<?xml version="1.0" standalone="no"?>
<!DOCTYPE svg PUBLIC "-//W3C//DTD SVG 1.1//EN" "http://www.w3.org/Graphics/SVG/1.1/DTD/svg11.dtd" >
<svg xmlns="http://www.w3.org/2000/svg" xmlns:xlink="http://www.w3.org/1999/xlink" version="1.1">
<metadata>
Created by FontForge 20170731 at Thu Jan 28 14:29:23 2021
 By Aleksey,,,
Copyright (c) 2020 Andrea Biggio &#38; The Designers Foundry. All rights reserved.
</metadata>
<defs>
<font id="TomatoGrotesk-Regular" horiz-adv-x="1957" >
  <font-face 
    font-family="Tomato Grotesk"
    font-weight="400"
    font-stretch="normal"
    units-per-em="2048"
    panose-1="0 0 5 0 0 0 0 0 0 0"
    ascent="1638"
    descent="-410"
    x-height="1057"
    cap-height="1434"
    bbox="-758 -623 4676 1991"
    underline-thickness="102"
    underline-position="-593"
    unicode-range="U+0020-1F345"
  />
<missing-glyph horiz-adv-x="1024" 
d="M190 1638h650v-2048h-650v2048zM682 1434v67h-338v-67h133v-76h-135v-68h340v68h-135v76h135zM547 1094v143h-205v-213h340v70h-135zM410 1167h67v-73h-67v73zM682 901v68h-340v-68h135v-76h-135v-67h205v143h135zM682 641v205h-68v-135h-272v-70h340zM682 365v231h-205
v-115h70v47h67v-96h-204v164h-68v-231h340zM682 10v232h-340v-232h340zM410 174h204v-96h-204v96zM682 -104v67h-340v-67h143l-143 -97v-67h340v67h-209l143 97h66z" />
    <glyph glyph-name="f_f" unicode="ff" horiz-adv-x="1277" 
d="M1114 1305q-124 -1 -166.5 -41t-42.5 -134v-73h322v-123h-318v-934h-164v934h-387v-934h-163v934h-164v123h164v73q0 173 89 245.5t275 74.5q35 0 117 -4v-146q-108 5 -113 5q-124 -1 -166.5 -41t-42.5 -134v-73h391v73q0 173 89.5 245.5t275.5 74.5q35 0 117 -4v-146
q-108 5 -113 5z" />
    <glyph glyph-name="f_f_i" unicode="ffi" horiz-adv-x="1601" 
d="M924 1057h557v-1057h-164v934h-389v-934h-164v934h-406v-934h-163v934h-164v123h164v73q0 173 89 245.5t275 74.5q35 0 117 -4v-146q-108 5 -113 5q-124 -1 -166.5 -41t-42.5 -134v-73h410v96q0 133 83.5 216t248.5 83h385l-2 -152h-379q-92 0 -134 -42.5t-42 -124.5v-76
z" />
    <glyph glyph-name="f_f_l" unicode="ffl" horiz-adv-x="1599" 
d="M1096 1452h385v-1452h-164v1300h-217q-92 0 -134 -42.5t-42 -124.5v-76h311v-123h-307v-934h-164v934h-406v-934h-163v934h-164v123h164v73q0 173 89 245.5t275 74.5q35 0 117 -4v-146q-108 5 -113 5q-124 -1 -166.5 -41t-42.5 -134v-73h410v96q0 133 83.5 216t248.5 83z
" />
    <glyph glyph-name="f_i" unicode="fi" horiz-adv-x="1032" 
d="M354 1057h557v-1057h-163v934h-390v-934h-163v934h-164v123h164v96q0 133 83 216t248 83h385l-2 -152h-379q-92 0 -134 -42.5t-42 -124.5v-76z" />
    <glyph glyph-name="f_l" unicode="fl" horiz-adv-x="1030" 
d="M526 1452h385v-1452h-163v1300h-218q-92 0 -134 -42.5t-42 -124.5v-76h312v-123h-308v-934h-163v934h-164v123h164v96q0 133 83 216t248 83z" />
    <glyph glyph-name="w_w_w" unicode="www" horiz-adv-x="4683" 
d="M4364 680l138 377h174l-392 -1057h-159l-262 852h-9l-262 -852h-160l-331 897l-332 -897h-160l-262 852h-8l-262 -852h-160l-332 897l-332 -897h-159l-263 852h-8l-262 -852h-160l-391 1057h174l138 -377q15 -42 50 -138.5t60.5 -168.5t52.5 -156h9q33 111 83 275.5
t58 189.5l115 375h155l115 -375q8 -25 58 -189.5t83 -275.5h8q27 83 53.5 157.5t59.5 165t51 140.5l137 377h230l137 -377q18 -50 51 -140.5t59.5 -165t53.5 -157.5h8q33 111 83 275.5t58 189.5l115 375h156l114 -375q15 -48 62.5 -202t79.5 -263h8q27 83 53.5 157.5
t59.5 165t51 140.5l137 377h229l138 -377q15 -42 50 -138.5t60.5 -168.5t52.5 -156h9q33 111 83 275.5t58 189.5l115 375h155l115 -375q8 -25 58 -189.5t83 -275.5h8q27 83 53.5 157.5t59.5 165t51 140.5z" />
    <glyph glyph-name=".notdef" horiz-adv-x="1024" 
d="M190 1638h650v-2048h-650v2048zM682 1434v67h-338v-67h133v-76h-135v-68h340v68h-135v76h135zM547 1094v143h-205v-213h340v70h-135zM410 1167h67v-73h-67v73zM682 901v68h-340v-68h135v-76h-135v-67h205v143h135zM682 641v205h-68v-135h-272v-70h340zM682 365v231h-205
v-115h70v47h67v-96h-204v164h-68v-231h340zM682 10v232h-340v-232h340zM410 174h204v-96h-204v96zM682 -104v67h-340v-67h143l-143 -97v-67h340v67h-209l143 97h66z" />
    <glyph glyph-name=".null" horiz-adv-x="0" 
 />
    <glyph glyph-name="nonmarkingreturn" horiz-adv-x="682" 
 />
    <glyph glyph-name="space" unicode=" " horiz-adv-x="409" 
 />
    <glyph glyph-name="exclam" unicode="!" horiz-adv-x="423" 
d="M145 375l-20 1059h174l-20 -1059h-134zM209 -33q-50 0 -83.5 34t-33.5 87q0 49 33.5 82t83.5 33q54 0 88.5 -32.5t34.5 -82.5q0 -54 -34.5 -87.5t-88.5 -33.5z" />
    <glyph glyph-name="quotedbl" unicode="&#x22;" horiz-adv-x="825" 
d="M291 885h-125l-33 549h191zM659 885h-124l-33 549h190z" />
    <glyph glyph-name="numbersign" unicode="#" horiz-adv-x="1376" 
d="M281 406h-199v139h227l72 344h-209v139h238l82 406h153l-72 -406h355l82 406h153l-71 -406h202v-139h-231l-72 -344h213v-139h-241l-82 -406h-152l70 406h-355l-82 -406h-151zM545 889l-72 -344h354l72 344h-354z" />
    <glyph glyph-name="dollar" unicode="$" horiz-adv-x="1318" 
d="M1268 389q0 -182 -144.5 -295t-390.5 -123v-223h-104v223q-260 12 -414 143.5t-154 342.5l179 -2q0 -139 105 -226t284 -98l2 520l-137 33q-385 89 -385 397q0 168 139 271t377 112v217h104v-217q244 -14 384 -144t140 -345h-178q0 141 -92.5 228.5t-253.5 101.5v-496
l186 -45q59 -14 106 -31.5t95 -47.5t80 -69t52 -97t20 -130zM287 1075q0 -160 254 -221l84 -20v471q-156 -7 -247 -69.5t-91 -160.5zM735 629l-2 -498q164 9 260.5 79t96.5 179q0 76 -51 128t-148 75z" />
    <glyph glyph-name="percent" unicode="%" horiz-adv-x="1820" 
d="M385 598q-169 0 -256.5 118t-87.5 312q0 198 85.5 315t258.5 117q174 0 259 -116.5t85 -315.5q0 -95 -20.5 -172t-61.5 -135.5t-107.5 -90.5t-154.5 -32zM600 0h-158l766 1434h158zM385 727q186 0 186 301q0 303 -186 303t-186 -303q0 -301 186 -301zM1436 -25
q-169 0 -256.5 118.5t-87.5 312.5q0 198 85.5 315t258.5 117q174 0 259 -116.5t85 -315.5q0 -128 -35 -222.5t-114 -151.5t-195 -57zM1436 104q186 0 186 302q0 303 -186 303q-187 0 -187 -303q0 -302 187 -302z" />
    <glyph glyph-name="ampersand" unicode="&#x26;" horiz-adv-x="1302" 
d="M1055 285l248 -285h-213l-134 152q-179 -185 -444 -185q-197 0 -318.5 99.5t-121.5 271.5q0 144 98.5 249.5t271.5 141.5l2 8q-126 129 -176.5 218t-50.5 178q0 147 105.5 244.5t273.5 97.5q164 0 270.5 -94t106.5 -242q0 -119 -85 -215.5t-263 -132.5l-2 -11l317 -362
q57 129 57 287h166q-6 -239 -108 -420zM594 1327q-97 0 -151 -56.5t-54 -137.5q0 -64 41.5 -130.5t165.5 -191.5q205 134 205 322q0 80 -57.5 137t-149.5 57zM522 123q196 0 328 151l-379 435q-112 -56 -170.5 -145t-58.5 -185q0 -109 73 -182.5t207 -73.5z" />
    <glyph glyph-name="quotesingle" unicode="'" horiz-adv-x="456" 
d="M291 885h-125l-33 549h191z" />
    <glyph glyph-name="parenleft" unicode="(" horiz-adv-x="563" 
d="M543 -381h-154q-287 399 -287 981q0 301 70.5 542t216.5 445h154q-144 -233 -205.5 -464.5t-61.5 -522.5q0 -290 61.5 -519t205.5 -462z" />
    <glyph glyph-name="parenright" unicode=")" horiz-adv-x="563" 
d="M174 -381h-154q144 233 205.5 462t61.5 519q0 291 -61.5 522.5t-205.5 464.5h154q146 -204 216.5 -445t70.5 -542q0 -582 -287 -981z" />
    <glyph glyph-name="asterisk" unicode="*" horiz-adv-x="960" 
d="M475 1032l-117 -299q-22 -57 -78 -48q-46 7 -73 48q-35 51 6 97l4 4l227 223l-2 8l-290 2q-58 0 -69 52q-10 48 22 91q36 51 88 31l12 -6l246 -137l6 6l-68 266q-16 63 38 89q47 22 97 2q55 -23 47 -79q0 -6 -2 -12l-67 -266l6 -6l246 137q54 30 96 -17q34 -39 29 -89
q-6 -52 -57 -59q-7 -1 -15 -1l-295 -2l-2 -8l233 -223q45 -44 13 -97q-25 -42 -72 -52q-58 -13 -83 42q-2 3 -3 6l-115 297h-8z" />
    <glyph glyph-name="plus" unicode="+" horiz-adv-x="1124" 
d="M643 803h399v-148h-399v-399h-160v399h-401v148h401v399h160v-399z" />
    <glyph glyph-name="comma" unicode="," horiz-adv-x="507" 
d="M92 -342l129 549h195l-191 -549h-133z" />
    <glyph glyph-name="hyphen" unicode="-" horiz-adv-x="778" 
d="M696 504h-614v147h614v-147z" />
    <glyph glyph-name="period" unicode="." horiz-adv-x="423" 
d="M209 -31q-50 0 -83.5 34t-33.5 87q0 49 33.5 82t83.5 33q54 0 88.5 -32.5t34.5 -82.5q0 -54 -34.5 -87.5t-88.5 -33.5z" />
    <glyph glyph-name="slash" unicode="/" horiz-adv-x="733" 
d="M190 0h-159l512 1434h159z" />
    <glyph glyph-name="zero" unicode="0" horiz-adv-x="1280" 
d="M639 -31q-261 0 -399 188t-138 560t138 560.5t399 188.5q262 0 400.5 -188t138.5 -561q0 -372 -138.5 -560t-400.5 -188zM639 125q185 0 271.5 146.5t86.5 445.5q0 300 -86.5 447t-271.5 147t-270.5 -146.5t-85.5 -447.5q0 -299 85.5 -445.5t270.5 -146.5z" />
    <glyph glyph-name="one" unicode="1" horiz-adv-x="798" 
d="M494 1208l-11 2q-105 -211 -364 -211h-25v179q189 0 312.5 69t146.5 187h113v-1434h-172v1208z" />
    <glyph glyph-name="two" unicode="2" horiz-adv-x="1114" 
d="M1051 0h-955l-2 143q71 67 173.5 161t157.5 145t129.5 123t113.5 114.5t84 97.5t66 95.5t35.5 85.5t14.5 88q0 124 -77.5 192t-208.5 68q-141 0 -221 -77.5t-80 -238.5h-168q-1 228 127.5 348.5t341.5 120.5q207 0 333.5 -112.5t126.5 -300.5q0 -46 -9.5 -91.5t-24 -85.5
t-43.5 -85.5t-55 -81.5t-71.5 -84t-80.5 -82.5t-96 -89t-103 -91t-115.5 -99.5t-121.5 -105l4 -13q143 9 350 9h375v-154z" />
    <glyph glyph-name="three" unicode="3" horiz-adv-x="1159" 
d="M735 752v-13q100 -15 170.5 -48t109.5 -81.5t55.5 -104t16.5 -124.5q0 -184 -138.5 -299t-354.5 -115q-236 0 -369.5 123.5t-132.5 341.5h168q4 -155 92 -233t242 -78q144 0 229.5 75t85.5 205q0 134 -88 200.5t-237 66.5h-107v141h96q137 0 218 72t81 192
q0 116 -78.5 178t-209.5 62q-295 0 -303 -316h-170q1 230 128.5 349.5t344.5 119.5q205 0 331.5 -102t126.5 -287q0 -43 -8 -82t-29.5 -80t-55 -73t-88.5 -56t-126 -34z" />
    <glyph glyph-name="four" unicode="4" horiz-adv-x="1169" 
d="M938 0h-172v358h-715v160l705 916h182v-920h190v-156h-190v-358zM524 897l-297 -383h539v746h-12q-22 -68 -77.5 -153.5t-152.5 -209.5z" />
    <glyph glyph-name="five" unicode="5" horiz-adv-x="1169" 
d="M631 934q206 0 331 -133t125 -350q0 -215 -137.5 -349.5t-359.5 -134.5q-206 0 -341 117.5t-147 314.5h168q12 -130 101 -204t219 -74q140 0 230.5 92t90.5 238q0 143 -89 237t-232 94q-211 0 -295 -176l-152 29l115 799h768v-152h-629l-82 -528l13 -2q28 83 115.5 132.5
t187.5 49.5z" />
    <glyph glyph-name="six" unicode="6" horiz-adv-x="1218" 
d="M272 649h13q29 131 128 208t265 77q196 0 322 -134t126 -347q0 -225 -136.5 -355.5t-356.5 -130.5q-119 0 -211 36.5t-152 100.5t-98 159.5t-54 205t-16 244.5t18.5 247.5t59 207t102.5 160t152 102t203 36.5q185 0 311 -102t160 -283h-172q-21 111 -100 170.5t-199 59.5
q-185 0 -273 -153.5t-92 -508.5zM633 123q143 0 229 92t86 238q0 142 -87.5 235.5t-227.5 93.5q-146 0 -234 -94t-88 -235q0 -150 90.5 -240t231.5 -90z" />
    <glyph glyph-name="seven" unicode="7" horiz-adv-x="1009" 
d="M821 1266l-2 12h-778v156h928v-127q-243 -262 -378.5 -598t-141.5 -709h-177q4 206 50.5 411t121.5 371t173.5 293.5t203.5 190.5z" />
    <glyph glyph-name="eight" unicode="8" horiz-adv-x="1187" 
d="M594 -33q-234 0 -378 118t-144 321q0 77 25 140t69 106.5t94.5 72t110.5 45.5v12q-99 15 -170.5 103.5t-71.5 199.5q0 175 131 278t334 103t334 -103t131 -278q0 -111 -71.5 -199.5t-170.5 -103.5v-12q60 -17 110.5 -45.5t94.5 -72t69 -106.5t25 -140q0 -203 -144 -321
t-378 -118zM594 834q293 0 293 239q0 116 -81 177t-212 61t-212 -61t-81 -177q0 -239 293 -239zM594 121q154 0 248 74.5t94 210.5q0 140 -92.5 212t-249.5 72t-249.5 -72t-92.5 -212q0 -136 94 -210.5t248 -74.5z" />
    <glyph glyph-name="nine" unicode="9" horiz-adv-x="1232" 
d="M961 784h-13q-29 -131 -128 -207.5t-265 -76.5q-196 0 -322.5 134t-126.5 347q0 225 136.5 355t357.5 130q119 0 210.5 -36.5t151.5 -100.5t98 -159t54 -204.5t16 -244.5t-18.5 -247.5t-59 -207.5t-102 -160.5t-151.5 -102t-203 -36.5q-185 0 -311 102t-160 283h172
q21 -111 100 -170t199 -59q185 0 273 153t92 508zM600 1311q-143 0 -229 -92t-86 -238q0 -142 87.5 -236t227.5 -94q146 0 234 94t88 236q0 150 -90.5 240t-231.5 90z" />
    <glyph glyph-name="colon" unicode=":" horiz-adv-x="423" 
d="M209 774q-50 0 -83.5 34t-33.5 87q0 49 33.5 82t83.5 33q54 0 88.5 -32.5t34.5 -82.5q0 -54 -34.5 -87.5t-88.5 -33.5zM209 -31q-50 0 -83.5 34t-33.5 87q0 49 33.5 82t83.5 33q54 0 88.5 -32.5t34.5 -82.5q0 -54 -34.5 -87.5t-88.5 -33.5z" />
    <glyph glyph-name="semicolon" unicode=";" horiz-adv-x="552" 
d="M338 774q-50 0 -83.5 34t-33.5 87q0 49 33.5 82t83.5 33q54 0 88.5 -32.5t34.5 -82.5q0 -54 -34.5 -87.5t-88.5 -33.5zM92 -342l129 549h195l-191 -549h-133z" />
    <glyph glyph-name="less" unicode="&#x3c;" horiz-adv-x="1083" 
d="M231 715v-8q41 -16 204.5 -76.5t266.5 -102.5l299 -122v-177l-919 396v170l919 395v-176l-299 -123q-78 -32 -240.5 -90.5t-230.5 -85.5z" />
    <glyph glyph-name="equal" unicode="=" horiz-adv-x="1124" 
d="M82 979h960v-148h-960v148zM82 627h960v-148h-960v148z" />
    <glyph glyph-name="greater" unicode="&#x3e;" horiz-adv-x="1083" 
d="M852 707v8q-68 27 -230.5 85.5t-240.5 90.5l-299 123v176l919 -395v-170l-919 -396v177l299 122q103 42 266.5 102.5t204.5 76.5z" />
    <glyph glyph-name="question" unicode="?" horiz-adv-x="1046" 
d="M594 375h-158q0 164 39 248t160 190q88 77 133 139t45 133q0 113 -73.5 171.5t-202.5 58.5q-157 0 -235 -77t-85 -251h-166q3 245 130 363t349 118q203 0 329 -100t126 -281q0 -104 -53 -188t-160 -174q-114 -95 -143 -154t-35 -196zM512 -33q-50 0 -83.5 34t-33.5 87
q0 49 33.5 82t83.5 33q54 0 88.5 -32.5t34.5 -82.5q0 -54 -34.5 -87.5t-88.5 -33.5z" />
    <glyph glyph-name="at" unicode="@" horiz-adv-x="1675" 
d="M1022 -623q-128 0 -248.5 30.5t-225.5 87t-193 140.5t-150.5 187.5t-97.5 233.5t-35 274q0 141 35.5 273.5t111 250.5t183.5 206t263 139.5t339 51.5q90 0 170.5 -17t150 -54t119.5 -91t79 -131.5t29 -171.5v-786h-155l-8 352h-9q-9 -83 -38.5 -149.5t-72 -109.5
t-97.5 -72t-112 -41.5t-118 -12.5q-164 0 -262 76.5t-98 216.5q0 147 106.5 227.5t310.5 77.5q62 -2 115.5 0t97.5 8t77.5 21t56.5 40.5t35 66.5t12 98q0 149 -103 231t-268 82q-163 0 -298 -43.5t-227 -118t-155 -175t-90.5 -212t-24.5 -231.5q4 -185 71 -340t179 -258
t260 -160t314 -57q208 3 413 90v-146q-221 -84 -442 -84zM983 106q90 0 168 32.5t129 85t80 117t29 128.5v160h-9q-11 -62 -46.5 -96t-123.5 -53.5t-249 -24.5q-94 -3 -149.5 -49.5t-55.5 -122.5q0 -177 227 -177z" />
    <glyph glyph-name="A" unicode="A" horiz-adv-x="1447" 
d="M1417 0h-180l-170 414h-690l-166 -414h-180l585 1434h203zM578 909l-138 -340h561l-137 334q-81 194 -139 359h-12q-45 -131 -135 -353z" />
    <glyph glyph-name="B" unicode="B" horiz-adv-x="1290" 
d="M858 776v-12q172 -9 277.5 -107t105.5 -249q0 -183 -126.5 -295.5t-332.5 -112.5h-649v1434h649q189 0 304.5 -94t115.5 -248q0 -132 -94.5 -219.5t-249.5 -96.5zM774 1278h-469v-471h389q149 0 240.5 70t91.5 184q0 98 -69 157.5t-183 59.5zM305 156h469
q132 0 212.5 67.5t80.5 179.5t-96.5 180t-255.5 68h-410v-495z" />
    <glyph glyph-name="C" unicode="C" horiz-adv-x="1449" 
d="M1206 526h180q-21 -161 -100.5 -285.5t-218.5 -199t-319 -74.5q-149 0 -274.5 53.5t-214 150.5t-138 239t-49.5 313q0 343 186 543t490 200q270 0 441 -156.5t200 -402.5h-181q-26 173 -146.5 286.5t-313.5 113.5q-226 0 -363 -156.5t-137 -427.5q0 -272 138 -434
t362 -162q96 0 177 32t137.5 87.5t93 126.5t50.5 153z" />
    <glyph glyph-name="D" unicode="D" horiz-adv-x="1390" 
d="M606 1434q335 0 524 -185t189 -532q0 -352 -189 -534.5t-524 -182.5h-473v1434h473zM305 156h301q263 0 400 140t137 421t-137.5 421t-399.5 140h-301v-1122z" />
    <glyph glyph-name="E" unicode="E" horiz-adv-x="1189" 
d="M1139 1434v-156h-834v-459h750v-155h-750v-508h823v-156h-995v1434h1006z" />
    <glyph glyph-name="F" unicode="F" horiz-adv-x="1136" 
d="M1096 1434v-156h-791v-459h707v-155h-707v-664h-172v1434h963z" />
    <glyph glyph-name="G" unicode="G" horiz-adv-x="1556" 
d="M1260 315h-13q-129 -348 -508 -348q-129 0 -238 38.5t-187.5 107.5t-133.5 163t-81.5 205.5t-26.5 235.5q0 120 24.5 227.5t79.5 204t136 166t201 110.5t267 41q119 0 220.5 -31.5t172.5 -84t124.5 -122.5t82.5 -144.5t39 -153.5h-180q-16 78 -52 145t-92 119.5
t-137.5 82.5t-179.5 30q-115 0 -206.5 -33t-151.5 -88.5t-100 -132.5t-57 -160t-17 -176q0 -92 17.5 -175.5t58 -160t101.5 -132.5t154 -89t209 -33q103 0 195 36.5t155 96t99.5 135.5t36.5 154v33h-572v155h744v-737h-166z" />
    <glyph glyph-name="H" unicode="H" horiz-adv-x="1419" 
d="M1114 801v633h172v-1434h-172v645h-809v-645h-172v1434h172v-633h809z" />
    <glyph glyph-name="I" unicode="I" horiz-adv-x="438" 
d="M133 0v1434h172v-1434h-172z" />
    <glyph glyph-name="J" unicode="J" horiz-adv-x="1107" 
d="M61 434v70h177v-76q0 -165 72 -234t227 -69t220.5 90t65.5 281v938h172v-959q0 -263 -119.5 -386.5t-338.5 -123.5q-72 0 -136.5 13t-128 46.5t-109 85t-74 134.5t-28.5 190z" />
    <glyph glyph-name="K" unicode="K" horiz-adv-x="1345" 
d="M678 842l2 -8h22q155 0 242.5 -57t132.5 -179l228 -598h-179l-188 504q-41 111 -93 146.5t-157 35.5h-156l-227 -237v-449h-172v1434h172l-8 -777l10 -2q119 139 393 426l336 353h213l-340 -355q-114 -120 -231 -237z" />
    <glyph glyph-name="L" unicode="L" horiz-adv-x="1097" 
d="M305 1434v-1278h752v-156h-924v1434h172z" />
    <glyph glyph-name="M" unicode="M" horiz-adv-x="1712" 
d="M303 0h-170v1434h225l322 -764q109 -258 172 -414h8q63 156 172 414l322 764h225v-1434h-170v664q0 325 2 499l-8 2q-128 -325 -197 -489l-278 -676h-144l-278 676q-69 164 -197 489l-8 -2q2 -174 2 -499v-664z" />
    <glyph glyph-name="N" unicode="N" horiz-adv-x="1437" 
d="M303 1188l-8 -2q10 -209 10 -590v-596h-172v1434h207l530 -791q15 -22 112 -167t153 -232l8 2q-10 207 -10 459v729h172v-1434h-209l-457 680q-247 366 -336 508z" />
    <glyph glyph-name="O" unicode="O" horiz-adv-x="1544" 
d="M772 -33q-202 0 -360.5 91.5t-249 264.5t-90.5 400q0 168 52.5 308t145 235t222 147.5t280.5 52.5t280.5 -52.5t222.5 -147.5t145.5 -235t52.5 -308q0 -171 -52.5 -313t-145.5 -239t-222.5 -150.5t-280.5 -53.5zM772 127q229 0 376.5 163t147.5 433q0 265 -147.5 424.5
t-376.5 159.5t-376.5 -159.5t-147.5 -424.5q0 -270 147.5 -433t376.5 -163z" />
    <glyph glyph-name="P" unicode="P" horiz-adv-x="1261" 
d="M690 1434q86 0 158 -13t137 -44.5t109.5 -80.5t71 -125.5t26.5 -175.5q0 -108 -39.5 -193t-109 -138t-159 -80t-194.5 -27h-385v-557h-172v1434h557zM305 713h354q359 0 359 282q0 82 -27.5 139t-78.5 87.5t-112 43.5t-141 13h-354v-565z" />
    <glyph glyph-name="Q" unicode="Q" horiz-adv-x="1552" 
d="M1470 -18v-213l-852 213q-257 64 -401.5 254.5t-144.5 486.5q0 169 52.5 308.5t145.5 234.5t223 147.5t283 52.5t283 -52.5t223.5 -147.5t146 -234.5t52.5 -308.5q0 -136 -32.5 -254t-97 -214t-170 -159t-243.5 -82v-12zM776 127q232 0 380.5 163t148.5 433
q0 265 -148.5 424.5t-380.5 159.5t-380 -159.5t-148 -424.5q0 -270 148 -433t380 -163z" />
    <glyph glyph-name="R" unicode="R" horiz-adv-x="1302" 
d="M1165 430l86 -430h-176l-71 383q-22 118 -75.5 157.5t-189.5 39.5h-434v-580h-172v1434h612q213 0 343.5 -100t130.5 -263q0 -149 -94 -248.5t-248 -111.5v-13q137 -9 199 -70t89 -198zM305 735h430q139 0 224 77.5t85 203.5q0 118 -84.5 190t-224.5 72h-430v-543z" />
    <glyph glyph-name="S" unicode="S" horiz-adv-x="1318" 
d="M682 -33q-282 0 -451.5 133.5t-169.5 354.5l179 -2q0 -149 120.5 -237.5t321.5 -88.5q186 0 297 70.5t111 189.5q0 76 -51 128t-148 75l-397 92q-385 89 -385 397q0 177 151 280t410 105q268 1 425.5 -131.5t157.5 -359.5h-178q0 154 -108.5 243t-296.5 89
q-176 0 -279.5 -63t-103.5 -169q0 -160 254 -221l374 -90q59 -14 106 -31.5t95 -47.5t80 -69t52 -97t20 -130q0 -191 -159.5 -305.5t-426.5 -114.5z" />
    <glyph glyph-name="T" unicode="T" horiz-adv-x="1241" 
d="M1200 1434v-156h-493v-1278h-172v1278h-494v156h1159z" />
    <glyph glyph-name="U" unicode="U" horiz-adv-x="1384" 
d="M113 551v883h170v-883q0 -202 103.5 -315t305.5 -113t306 113.5t104 314.5v883h170v-883q0 -272 -151 -428t-429 -156t-428.5 156t-150.5 428z" />
    <glyph glyph-name="V" unicode="V" horiz-adv-x="1366" 
d="M778 0h-203l-544 1434h180l127 -340q56 -150 167.5 -450t166.5 -451h12q58 150 171.5 449.5t170.5 449.5l129 342h180z" />
    <glyph glyph-name="W" unicode="W" horiz-adv-x="1998" 
d="M659 0h-206l-422 1434h184l66 -230q24 -86 123 -434.5t149 -536.5h12q50 187 149 531.5t130 456.5l59 213h193l59 -213q31 -112 130 -456.5t149 -531.5h12q53 201 272 971l66 230h184l-422 -1434h-207l-333 1169h-13z" />
    <glyph glyph-name="X" unicode="X" horiz-adv-x="1292" 
d="M229 0h-198l520 735l-494 699h209l76 -111q169 -246 299 -453h12q37 59 82 126.5t76 112t84.5 122.5t77.5 112l61 91h199l-488 -693l517 -741h-207l-105 152q-211 305 -301 450h-12q-105 -167 -305 -455z" />
    <glyph glyph-name="Y" unicode="Y" horiz-adv-x="1327" 
d="M1104 1434h192l-546 -850v-584h-172v582l-547 852h194l162 -256q211 -340 272 -447h13q97 168 270 443z" />
    <glyph glyph-name="Z" unicode="Z" horiz-adv-x="1239" 
d="M1188 0h-1137v156l905 1122l-4 10q-235 -10 -549 -10h-319v156h1094v-152l-912 -1126l4 -11q236 11 389 11h529v-156z" />
    <glyph glyph-name="bracketleft" unicode="[" horiz-adv-x="647" 
d="M606 -377h-473v1962h473v-143h-309v-1675h309v-144z" />
    <glyph glyph-name="backslash" unicode="\" horiz-adv-x="733" 
d="M190 1434l512 -1434h-159l-512 1434h159z" />
    <glyph glyph-name="bracketright" unicode="]" horiz-adv-x="647" 
d="M514 1585v-1962h-473v144h309v1675h-309v143h473z" />
    <glyph glyph-name="asciicircum" unicode="^" horiz-adv-x="890" 
d="M451 1300h-9q-6 -15 -18.5 -40t-26 -49.5t-41.5 -76.5t-51 -94l-121 -225h-174l346 619h179l346 -619h-174l-123 225q-120 226 -133 260z" />
    <glyph glyph-name="underscore" unicode="_" horiz-adv-x="856" 
d="M858 -354h-860v143h860v-143z" />
    <glyph glyph-name="grave" unicode="`" horiz-adv-x="616" 
d="M616 1325l-49 -108l-567 245l61 133z" />
    <glyph glyph-name="a" unicode="a" horiz-adv-x="1155" 
d="M61 260q0 147 107 227.5t311 77.5q75 -1 136.5 0t108.5 9.5t79 26t48.5 49t16.5 79.5q0 37 -15.5 73t-48.5 69.5t-96 54t-147 20.5q-80 0 -143.5 -25t-102 -67.5t-60.5 -93t-28 -107.5h-164q0 88 35 167t98.5 139t159.5 95.5t211 35.5q125 0 217.5 -32t145.5 -89.5
t77.5 -128t24.5 -156.5v-684h-155l-9 352h-8q-9 -83 -38.5 -149.5t-72 -109.5t-97.5 -72t-112 -41.5t-118 -12.5q-164 0 -262.5 77t-98.5 216zM236 283q0 -177 227 -177q90 0 168 32.5t129 85t79.5 117t28.5 128.5v160h-8q-11 -62 -47 -96t-124 -53.5t-249 -24.5
q-94 -3 -149 -49.5t-55 -122.5z" />
    <glyph glyph-name="b" unicode="b" horiz-adv-x="1232" 
d="M684 1090q215 0 346 -155t131 -409t-131 -408.5t-346 -154.5q-143 0 -250 93.5t-139 246.5h-8l-8 -303h-156v1434h164v-684h8q32 153 139 246.5t250 93.5zM641 111q160 0 257 114t97 301q0 188 -97 302t-257 114q-156 0 -255 -105.5t-99 -256.5v-107q0 -151 99 -256.5
t255 -105.5z" />
    <glyph glyph-name="c" unicode="c" horiz-adv-x="1132" 
d="M72 537q0 249 142 401t374 152q212 0 348 -124t145 -325h-168q-5 136 -92.5 218.5t-232.5 82.5q-158 0 -253 -109.5t-95 -291.5q0 -188 95.5 -307t252.5 -119q144 0 232 86.5t93 222.5h168q-6 -205 -142 -331t-351 -126q-232 0 -374 157t-142 413z" />
    <glyph glyph-name="d" unicode="d" horiz-adv-x="1232" 
d="M946 750v684h164v-1434h-156l-8 303h-8q-32 -153 -139 -246.5t-250 -93.5q-215 0 -346 154.5t-131 408.5t131 409t346 155q143 0 250 -93.5t139 -246.5h8zM592 111q156 0 255 105.5t99 256.5v107q0 151 -99 256.5t-255 105.5q-160 0 -257 -114t-97 -302q0 -187 97 -301
t257 -114z" />
    <glyph glyph-name="e" unicode="e" horiz-adv-x="1163" 
d="M1092 580v-78h-856q3 -187 102 -289t258 -102q127 0 211 73t108 187h168q-23 -182 -157 -293t-330 -111q-116 0 -211 35t-165 104t-109 177.5t-39 248.5q0 261 143 409.5t377 148.5q221 0 360.5 -146t139.5 -364zM586 946q-147 0 -243.5 -86t-106.5 -244h688
q-9 151 -98.5 240.5t-239.5 89.5z" />
    <glyph glyph-name="f" unicode="f" horiz-adv-x="727" 
d="M563 1305q-124 -1 -166.5 -41t-42.5 -134v-73h322v-123h-318v-934h-163v934h-164v123h164v73q0 173 89 245.5t275 74.5q35 0 117 -4v-146q-108 5 -113 5z" />
    <glyph glyph-name="g" unicode="g" horiz-adv-x="1136" 
d="M1096 1190v-158l-369 47l-2 -10q121 -34 188.5 -120.5t67.5 -205.5q0 -158 -112.5 -256t-305.5 -98q-106 0 -188 31q-113 -26 -113 -121q0 -51 43.5 -83t108.5 -32l278 -2q88 -1 155 -15.5t121.5 -47.5t83.5 -92.5t29 -143.5q0 -157 -131 -238t-381 -81
q-259 0 -383.5 72.5t-124.5 199.5q0 64 38.5 108.5t93.5 64t126 26.5v8q-99 13 -154.5 69t-55.5 130q0 93 65 138.5t156 47.5v10q-89 46 -137 125t-48 180q0 303 408 357q204 26 543 90zM813 743q0 89 -66 146t-184 57t-184 -57t-66 -146q0 -94 66 -152.5t184 -58.5
t184 58.5t66 152.5zM713 39h-316q-88 -22 -134 -64t-46 -100q0 -168 352 -168q185 0 265.5 45t80.5 129q0 79 -49 118.5t-153 39.5z" />
    <glyph glyph-name="h" unicode="h" horiz-adv-x="1179" 
d="M676 1090q171 0 276 -107t105 -281v-702h-164v649q0 130 -77.5 209.5t-205.5 79.5q-145 0 -233 -108t-88 -285v-545h-166v1434h166v-684h12q20 154 123 247t252 93z" />
    <glyph glyph-name="i" unicode="i" horiz-adv-x="460" 
d="M229 1231q-46 0 -78 32t-32 78t32 78.5t78 32.5t78.5 -32.5t32.5 -78.5t-32.5 -78t-78.5 -32zM147 0v1057h164v-1057h-164z" />
    <glyph glyph-name="j" unicode="j" horiz-adv-x="493" 
d="M262 1231q-46 0 -78 32t-32 78t32 78.5t78 32.5t78.5 -32.5t32.5 -78.5t-32.5 -78t-78.5 -32zM-45 -383v147q134 -6 178.5 19.5t44.5 112.5v1161h164v-1163q0 -159 -86.5 -224.5t-300.5 -52.5z" />
    <glyph glyph-name="k" unicode="k" horiz-adv-x="1075" 
d="M287 0h-164v1434h164v-545q0 -131 -4 -389l8 -2q16 23 32.5 43.5t35 41.5t30.5 34.5t34 35t30.5 29.5t33.5 31.5t31 29.5l338 314h209l-217 -201q-218 -204 -258 -229v-6h43q122 0 190.5 -57t102.5 -158l139 -406h-168l-115 328q-32 90 -70 123.5t-120 33.5h-141
l-164 -151v-334z" />
    <glyph glyph-name="l" unicode="l" horiz-adv-x="401" 
d="M119 0v1434h164v-1434h-164z" />
    <glyph glyph-name="m" unicode="m" horiz-adv-x="1869" 
d="M1386 1090q162 0 261.5 -107t99.5 -281v-702h-164v649q0 131 -72 210t-190 79q-136 0 -219.5 -108t-83.5 -285v-545h-164v649q0 131 -72 210t-190 79q-126 0 -207.5 -93t-93.5 -249v-596h-166l-2 1055h156l12 -305h10q20 153 118 246.5t238 93.5q151 0 248 -92.5
t111 -247.5h14q20 153 118 246.5t238 93.5z" />
    <glyph glyph-name="n" unicode="n" horiz-adv-x="1179" 
d="M676 1090q171 0 276 -107t105 -281v-702h-164v649q0 130 -77.5 209.5t-205.5 79.5q-145 0 -233 -108t-88 -285v-545h-166v1057h156l10 -307h12q20 154 123 247t252 93z" />
    <glyph glyph-name="o" unicode="o" horiz-adv-x="1245" 
d="M623 -33q-146 0 -270.5 67.5t-202.5 198.5t-78 299q0 165 78 294t202.5 196.5t270.5 67.5t270.5 -67.5t202.5 -196.5t78 -294q0 -168 -78 -299t-202.5 -198.5t-270.5 -67.5zM623 115q171 0 277 112.5t106 304.5q0 188 -106 299t-277 111t-277 -111t-106 -299
q0 -192 106 -304.5t277 -112.5z" />
    <glyph glyph-name="p" unicode="p" horiz-adv-x="1232" 
d="M684 1090q215 0 346 -155t131 -409t-131 -408.5t-346 -154.5q-143 0 -250 93.5t-139 246.5h-8v-680h-164v1434h156l8 -307h8q32 153 139 246.5t250 93.5zM641 111q160 0 257 114t97 301q0 188 -97 302t-257 114q-156 0 -255 -105.5t-99 -256.5v-107q0 -151 99 -256.5
t255 -105.5z" />
    <glyph glyph-name="q" unicode="q" horiz-adv-x="1232" 
d="M946 750l8 307h156v-1434h-164v680h-8q-32 -153 -139 -246.5t-250 -93.5q-215 0 -346 154.5t-131 408.5t131 409t346 155q143 0 250 -93.5t139 -246.5h8zM592 111q156 0 255 105.5t99 256.5v107q0 151 -99 256.5t-255 105.5q-160 0 -257 -114t-97 -302q0 -187 97 -301
t257 -114z" />
    <glyph glyph-name="r" unicode="r" horiz-adv-x="765" 
d="M287 657h8q35 223 138.5 319.5t301.5 96.5v-147q-246 -15 -347 -142.5t-101 -406.5v-377h-164v1057h158z" />
    <glyph glyph-name="s" unicode="s" horiz-adv-x="1013" 
d="M535 -33q-222 0 -349.5 97t-138.5 272h168q11 -109 93 -167t227 -58q125 0 197.5 46.5t72.5 125.5q0 57 -34 89.5t-114 51.5l-311 72q-128 29 -200 98.5t-72 179.5q0 146 116 231t316 85q211 0 334 -99.5t123 -269.5h-168q0 104 -77.5 164.5t-211.5 60.5
q-123 0 -195.5 -45t-72.5 -121q0 -51 39.5 -89.5t107.5 -53.5l305 -70q150 -34 216.5 -98t66.5 -180q0 -148 -118.5 -235t-319.5 -87z" />
    <glyph glyph-name="t" unicode="t" horiz-adv-x="724" 
d="M674 1057v-123h-291v-662q0 -83 35.5 -110t120.5 -27q55 0 135 6v-145q-86 -6 -152 -6q-89 0 -143 11t-92 41.5t-53 83t-15 136.5v672h-188v123h188v276h158l6 -276h291z" />
    <glyph glyph-name="u" unicode="u" horiz-adv-x="1179" 
d="M891 512v545h166v-1057h-156l-10 307h-12q-20 -154 -123 -247t-252 -93q-171 0 -276 106.5t-105 280.5v703h164v-649q0 -131 77.5 -210t204.5 -79q145 0 233.5 108t88.5 285z" />
    <glyph glyph-name="v" unicode="v" horiz-adv-x="1060" 
d="M618 0h-176l-432 1057h174l148 -377q129 -324 194 -483h9q65 159 194 483l148 377h174z" />
    <glyph glyph-name="w" unicode="w" horiz-adv-x="1652" 
d="M561 0h-160l-391 1057h174l138 -377q15 -42 50 -138.5t60.5 -168.5t52.5 -156h9q33 111 83 275.5t58 189.5l115 375h155l115 -375q8 -25 58 -189.5t83 -275.5h8q27 83 53.5 157.5t59.5 165t51 140.5l137 377h175l-392 -1057h-159l-263 852h-8z" />
    <glyph glyph-name="x" unicode="x" horiz-adv-x="1044" 
d="M201 0h-191l406 541l-383 516h192l88 -119q40 -56 205 -291h8q147 209 209 295l84 115h193l-394 -516l416 -541h-190l-125 166q-178 249 -193 270h-8q-111 -158 -196 -274z" />
    <glyph glyph-name="y" unicode="y" horiz-adv-x="1036" 
d="M504 186h8q47 126 133.5 345.5t112.5 287.5l88 238h180l-438 -1071q-49 -117 -94 -187t-107.5 -114t-140 -58.5t-193.5 -9.5v154q59 -5 105 -0.5t79 13t61 33t51 60t50 92.5l17 35l-406 1053h183l88 -244q204 -571 223 -627z" />
    <glyph glyph-name="z" unicode="z" horiz-adv-x="1034" 
d="M952 0h-880v123l690 788l-4 9q-109 -7 -383 -7h-275v144h863v-125l-682 -789l4 -8q159 8 372 8h295v-143z" />
    <glyph glyph-name="braceleft" unicode="{" horiz-adv-x="706" 
d="M666 -389h-138q-141 0 -209.5 67.5t-68.5 208.5v519q0 69 -41 97.5t-127 31.5v143q86 3 127 33t41 96v516q0 141 68.5 208.5t209.5 67.5h138v-143h-111q-75 0 -108 -33t-33 -108v-533q0 -86 -38 -127.5t-122 -44.5v-8q85 -3 122.5 -43.5t37.5 -128.5v-534
q0 -75 33 -108.5t108 -33.5h111v-143z" />
    <glyph glyph-name="bar" unicode="|" horiz-adv-x="413" 
d="M281 -401h-148v2033h148v-2033z" />
    <glyph glyph-name="braceright" unicode="}" horiz-adv-x="706" 
d="M178 -389h-137v143h111q75 0 108 33.5t33 108.5v534q0 88 37.5 128.5t122.5 43.5v8q-84 3 -122 44.5t-38 127.5v533q0 75 -33 108t-108 33h-111v143h137q141 0 210 -67.5t69 -208.5v-516q0 -66 41 -96t127 -33v-143q-86 -3 -127 -31.5t-41 -97.5v-519q0 -141 -69 -208.5
t-210 -67.5z" />
    <glyph glyph-name="asciitilde" unicode="~" horiz-adv-x="1083" 
d="M739 588q-45 0 -103 22.5t-103.5 49t-98.5 49t-90 22.5q-101 0 -119 -133h-143q9 132 76.5 209.5t185.5 77.5q50 0 130 -36t154.5 -72t110.5 -36q98 0 119 133h143q-9 -132 -76.5 -209t-185.5 -77z" />
    <glyph glyph-name="exclamdown" unicode="&#xa1;" horiz-adv-x="423" 
d="M209 1219q54 0 88.5 -33.5t34.5 -87.5q0 -50 -34.5 -82.5t-88.5 -32.5q-50 0 -83.5 33t-33.5 82q0 53 33.5 87t83.5 34zM299 -248h-174l20 1059h134z" />
    <glyph glyph-name="cent" unicode="&#xa2;" horiz-adv-x="1132" 
d="M625 940v-823q128 10 205.5 95t82.5 212h168q-6 -196 -131 -320t-325 -135v-207h-97v207q-208 22 -332 176t-124 392q0 231 124 380.5t332 169.5v199h97v-199q197 -11 322 -132.5t134 -313.5h-168q-5 127 -81.5 208t-206.5 91zM240 541q0 -168 78.5 -283.5t209.5 -138.5
v819q-133 -22 -210.5 -128t-77.5 -269z" />
    <glyph glyph-name="sterling" unicode="&#xa3;" horiz-adv-x="1185" 
d="M954 616h-592v-460h773v-156h-1074v156h127v460h-127v123h127v299q0 211 121 319.5t348 108.5q222 0 349.5 -119.5t128.5 -336.5h-179q-14 301 -307 301q-143 0 -215 -70.5t-72 -222.5v-279h592v-123z" />
    <glyph glyph-name="currency" unicode="&#xa4;" horiz-adv-x="1159" 
d="M1038 721q0 -172 -104 -295l160 -162l-70 -67l-162 161q-124 -94 -282 -94t-283 92l-160 -159l-69 67l157 162q-104 123 -104 295t106 297l-159 162l69 67l162 -162q123 93 281 93q159 0 282 -93l162 162l70 -67l-160 -162q104 -123 104 -297zM580 434q126 0 206 80.5
t80 206.5t-80 206.5t-206 80.5t-206.5 -80.5t-80.5 -206.5t80.5 -206.5t206.5 -80.5z" />
    <glyph glyph-name="yen" unicode="&#xa5;" horiz-adv-x="1286" 
d="M1083 1434h193l-490 -760h301v-103h-358v-155h358v-103h-358v-313h-172v313h-358v103h358v155h-358v103h299l-488 760h195l162 -256q211 -340 272 -447h12q86 149 271 443z" />
    <glyph glyph-name="brokenbar" unicode="&#xa6;" horiz-adv-x="413" 
d="M281 815h-148v817h148v-817zM281 -418h-148v817h148v-817z" />
    <glyph glyph-name="section" unicode="&#xa7;" horiz-adv-x="1159" 
d="M588 -397q-190 0 -290.5 99.5t-100.5 268.5h168q0 -227 223 -227q109 0 166 38.5t57 113.5q0 65 -45.5 111t-149.5 108l-251 149q-95 57 -157 108.5t-93 100t-42.5 90t-11.5 92.5q0 96 70.5 171t183.5 92l4 10q-55 45 -89.5 111t-34.5 132q0 141 97 220t290 79
q190 0 290.5 -99.5t100.5 -268.5h-168q0 227 -223 227q-109 0 -166.5 -38t-57.5 -113q0 -45 25.5 -84t63 -67t106.5 -69l252 -149q95 -57 156.5 -108.5t93 -100t42.5 -90t11 -92.5q0 -99 -71 -173t-185 -89l-2 -11q57 -46 91 -114.5t34 -128.5q0 -141 -97 -220t-290 -79z
M786 190q160 62 160 209q0 143 -227 279l-230 137q-55 32 -106 68q-160 -62 -160 -209q0 -143 228 -279l229 -137q55 -32 106 -68z" />
    <glyph glyph-name="dieresis" unicode="&#xa8;" horiz-adv-x="868" 
d="M254 1231q-46 0 -78.5 32t-32.5 78t32.5 78.5t78.5 32.5t78.5 -32.5t32.5 -78.5t-32.5 -78t-78.5 -32zM614 1231q-46 0 -78 32t-32 78t32 78.5t78 32.5t78.5 -32.5t32.5 -78.5t-32.5 -78t-78.5 -32z" />
    <glyph glyph-name="copyright" unicode="&#xa9;" horiz-adv-x="1656" 
d="M827 -23q-213 0 -386.5 101t-271 273t-97.5 378q0 208 98.5 381t272 273t384.5 100q160 0 301.5 -59.5t241.5 -160.5t157.5 -240t57.5 -294q0 -156 -58.5 -295t-159 -239.5t-241.5 -159t-299 -58.5zM827 102q174 0 317 83t224.5 226.5t81.5 317.5q0 173 -81 317t-224 228
t-318 84t-318 -85t-222.5 -228.5t-79.5 -315.5t81 -316t223.5 -227.5t315.5 -83.5zM412 737q0 204 117 329.5t307 125.5q174 0 286.5 -102.5t120.5 -266.5h-139q-3 111 -76 179.5t-192 68.5q-130 0 -208.5 -91t-78.5 -241q0 -154 79 -252t208 -98q118 0 191.5 71.5
t76.5 182.5h139q-6 -169 -118 -272t-289 -103q-191 0 -307.5 128.5t-116.5 340.5z" />
    <glyph glyph-name="ordfeminine" unicode="&#xaa;" horiz-adv-x="1017" 
d="M61 762q0 127 91.5 196t267.5 66q65 -1 117.5 0t93 8t68 22t41.5 42.5t14 68.5q0 33 -13.5 63.5t-42 59.5t-83 46.5t-126.5 17.5q-132 0 -203 -73t-83 -179h-140q0 157 118.5 266t314.5 109q108 0 187 -27.5t124.5 -77t66.5 -110t21 -134.5v-587h-133l-8 303h-6
q-8 -71 -33.5 -128.5t-62 -95t-84 -62.5t-96.5 -35.5t-101 -10.5q-140 0 -225 66t-85 186zM211 782q0 -151 195 -151q153 0 250.5 96.5t97.5 214.5v137h-6q-9 -53 -40.5 -82t-107.5 -46t-213 -21q-82 -3 -129 -42.5t-47 -105.5z" />
    <glyph glyph-name="guillemotleft" unicode="&#xab;" horiz-adv-x="1032" 
d="M240 532v-8q87 -63 188 -143l53 -43v-191l-348 285v191l348 284v-190l-51 -41q-81 -66 -190 -144zM657 532v-8q98 -70 189 -143l53 -43v-191l-348 285v191l348 284v-190l-51 -41q-73 -59 -191 -144z" />
    <glyph glyph-name="logicalnot" unicode="&#xac;" horiz-adv-x="1103" 
d="M82 717v147h940v-526h-160v379h-780z" />
    <glyph glyph-name="uni00AD" unicode="&#xad;" horiz-adv-x="778" 
d="M696 504h-614v147h614v-147z" />
    <glyph glyph-name="registered" unicode="&#xae;" horiz-adv-x="1165" 
d="M584 496q-141 0 -256.5 65t-180.5 176t-65 244q0 204 145 344.5t357 140.5q213 0 356 -140t143 -345q0 -206 -143.5 -345.5t-355.5 -139.5zM584 590q170 0 284.5 112.5t114.5 278.5q0 165 -114 278t-285 113q-170 0 -285 -113t-115 -278q0 -163 114.5 -277t285.5 -114z
M479 727h-90v520h232q77 0 124.5 -37t47.5 -98q0 -53 -37.5 -88t-98.5 -39v-4q50 -3 75 -29.5t36 -77.5l31 -147h-94l-25 125q-9 43 -29 57.5t-69 14.5h-103v-197zM479 1165v-164h127q43 0 68.5 24t25.5 62q0 35 -25.5 56.5t-68.5 21.5h-127z" />
    <glyph glyph-name="macron" unicode="&#xaf;" horiz-adv-x="593" 
d="M594 1231h-594v137h594v-137z" />
    <glyph glyph-name="degree" unicode="&#xb0;" horiz-adv-x="688" 
d="M344 985q-115 0 -188.5 68t-73.5 174t73 172.5t189 66.5t189 -66.5t73 -172.5t-73.5 -174t-188.5 -68zM344 1108q57 0 93 33t36 86q0 51 -36 83.5t-93 32.5t-93 -32.5t-36 -83.5q0 -53 36 -86t93 -33z" />
    <glyph glyph-name="plusminus" unicode="&#xb1;" horiz-adv-x="1124" 
d="M643 1202v-368h399v-148h-399v-369h-160v369h-401v148h401v368h160zM1042 0h-960v147h960v-147z" />
    <glyph glyph-name="uni00B2" unicode="&#xb2;" horiz-adv-x="681" 
d="M651 1090h-631v133q269 203 333 258q111 97 133 167q8 25 8 52q0 61 -43 93t-105 32q-163 0 -168 -142h-147q4 129 89 201t222 72q138 0 218.5 -69.5t80.5 -194.5q0 -35 -9.5 -68.5t-24.5 -63t-45 -62.5t-59 -61t-78.5 -66.5t-92.5 -69t-111 -78.5l2 -6q76 4 209 4h219
v-131z" />
    <glyph glyph-name="uni00B3" unicode="&#xb3;" horiz-adv-x="710" 
d="M461 1536v-6q213 -17 213 -207q0 -115 -93 -185.5t-225 -70.5q-145 0 -240.5 76.5t-95.5 210.5h146q1 -85 49.5 -123.5t140.5 -38.5q70 0 118 36.5t48 104.5q0 146 -172 146h-63v104h57q162 0 162 127q0 57 -39.5 88t-114.5 31q-72 0 -114 -32.5t-43 -119.5h-150
q1 94 43 157.5t108.5 90.5t153.5 27q83 0 148.5 -21t110 -74.5t44.5 -134.5q0 -75 -49 -123t-143 -63z" />
    <glyph glyph-name="acute" unicode="&#xb4;" horiz-adv-x="616" 
d="M616 1462l-567 -245l-49 108l555 270z" />
    <glyph glyph-name="uni00B5" unicode="&#xb5;" horiz-adv-x="1230" 
d="M272 -377h-149v1434h166v-613q0 -160 79.5 -242.5t219.5 -82.5q163 0 234 74.5t71 250.5v613h164v-832q0 -52 18.5 -71t61.5 -19q42 0 73 2v-143q-41 -4 -96 -4q-36 0 -70.5 8.5t-70.5 28t-58 60t-22 97.5v52h-10q-21 -130 -101.5 -197.5t-208.5 -67.5q-93 0 -155 23.5
t-123 81.5l-8 -4z" />
    <glyph glyph-name="paragraph" unicode="&#xb6;" horiz-adv-x="1153" 
d="M698 0h-159v723q-235 3 -352 89.5t-117 262.5q0 359 462 359h488v-1434h-160v1278h-162v-1278z" />
    <glyph glyph-name="periodcentered" unicode="&#xb7;" horiz-adv-x="423" 
d="M209 612q-50 0 -83.5 34t-33.5 87q0 49 33.5 82t83.5 33q54 0 88.5 -32.5t34.5 -82.5q0 -54 -34.5 -87.5t-88.5 -33.5z" />
    <glyph glyph-name="cedilla" unicode="&#xb8;" horiz-adv-x="819" 
d="M414 -92v-6h16q82 0 133 -44t51 -106q0 -190 -280 -190q-23 0 -125 4v96q47 -2 119 -2q57 0 93 22.5t36 65.5q0 33 -30 52t-70.5 20.5t-80.5 -2.5v78q86 31 86 104h136q0 -26 -19 -53t-65 -39z" />
    <glyph glyph-name="uni00B9" unicode="&#xb9;" horiz-adv-x="458" 
d="M250 1751h-6q-36 -46 -79.5 -69t-119.5 -23h-14v139q227 0 254 137h123v-845h-158v661z" />
    <glyph glyph-name="ordmasculine" unicode="&#xba;" horiz-adv-x="1091" 
d="M545 510q-125 0 -232 58t-174 171t-67 258q0 106 39 197t104.5 152.5t151 96t178.5 34.5q94 0 180 -34.5t151.5 -96t104.5 -152.5t39 -197q0 -146 -67 -258.5t-174.5 -170.5t-233.5 -58zM545 637q148 0 238.5 96.5t90.5 263.5q0 161 -90.5 257t-238.5 96q-146 0 -237 -96
t-91 -257q0 -166 90.5 -263t237.5 -97z" />
    <glyph glyph-name="guillemotright" unicode="&#xbb;" horiz-adv-x="1032" 
d="M375 524v8q-118 85 -191 144l-51 41v190l348 -284v-191l-348 -285v191l53 43q91 73 189 143zM793 524v8q-118 85 -191 144l-51 41v190l348 -284v-191l-348 -285v191l53 43q91 73 189 143z" />
    <glyph glyph-name="onequarter" unicode="&#xbc;" horiz-adv-x="1503" 
d="M250 1249h-6q-36 -46 -79.5 -69t-119.5 -23h-14v139q227 0 254 138h123v-846h-158v661zM410 0h-154l766 1434h154zM1360 0h-156v211h-426v143l422 492h160v-506h113v-129h-113v-211zM1034 469l-112 -129h288v352h-6q-28 -56 -170 -223z" />
    <glyph glyph-name="onehalf" unicode="&#xbd;" horiz-adv-x="1579" 
d="M250 1249h-6q-36 -46 -79.5 -69t-119.5 -23h-14v139q227 0 254 138h123v-846h-158v661zM410 0h-154l766 1434h154zM1548 0h-630v133q269 202 334 259q110 96 132 167q7 25 7 51q0 61 -43 93t-105 32q-163 0 -168 -141h-147q4 128 89 200t222 72q138 0 218.5 -69.5
t80.5 -194.5q0 -35 -9.5 -68.5t-24.5 -63t-45 -62.5t-59 -61t-78.5 -66.5t-92.5 -69t-111 -78.5l2 -6q76 4 209 4h219v-131z" />
    <glyph glyph-name="threequarters" unicode="&#xbe;" horiz-adv-x="1689" 
d="M461 1040v-6q213 -17 213 -207q0 -115 -93 -185.5t-225 -70.5q-145 0 -240.5 76.5t-95.5 210.5h146q1 -85 49.5 -123.5t140.5 -38.5q69 0 117.5 37t48.5 105q0 145 -172 145h-63v104h57q162 0 162 127q0 57 -39.5 88t-114.5 31q-72 0 -114 -32t-43 -119h-150q1 94 43 157
t108.5 90t153.5 27q61 0 113.5 -12.5t96 -38t68.5 -71.5t25 -107q0 -75 -49.5 -123.5t-142.5 -63.5zM594 0h-154l766 1434h154zM1546 0h-155v211h-426v143l421 492h160v-506h113v-129h-113v-211zM1221 469l-113 -129h289v352h-6q-28 -56 -170 -223z" />
    <glyph glyph-name="questiondown" unicode="&#xbf;" horiz-adv-x="1056" 
d="M545 1212q50 0 83.5 -33.5t33.5 -86.5q0 -49 -33.5 -82t-83.5 -33q-54 0 -88.5 32.5t-34.5 82.5q0 54 34.5 87t88.5 33zM463 805h158q0 -164 -39 -248t-160 -190q-87 -76 -132.5 -139t-45.5 -134q0 -113 73.5 -171t202.5 -58q157 0 235 77t85 251h166
q-3 -245 -130.5 -363.5t-349.5 -118.5q-203 0 -328.5 100t-125.5 281q0 105 53 189.5t160 173.5q114 95 143 154t35 196z" />
    <glyph glyph-name="Agrave" unicode="&#xc0;" horiz-adv-x="1447" 
d="M299 1972l555 -270l-49 -109l-567 246zM1417 0h-180l-170 414h-690l-166 -414h-180l585 1434h203zM578 909l-138 -340h561l-137 334q-81 194 -139 359h-12q-45 -131 -135 -353z" />
    <glyph glyph-name="Aacute" unicode="&#xc1;" horiz-adv-x="1447" 
d="M1139 1972l61 -133l-567 -246l-49 109zM1417 0h-180l-170 414h-690l-166 -414h-180l585 1434h203zM578 909l-138 -340h561l-137 334q-81 194 -139 359h-12q-45 -131 -135 -353z" />
    <glyph glyph-name="Acircumflex" unicode="&#xc2;" horiz-adv-x="1447" 
d="M596 1683l-72 -75h-184l274 295h205l275 -295h-185l-69 71q-78 80 -117 136h-12q-30 -43 -115 -132zM1417 0h-180l-170 414h-690l-166 -414h-180l585 1434h203zM578 909l-138 -340h561l-137 334q-81 194 -139 359h-12q-45 -131 -135 -353z" />
    <glyph glyph-name="Atilde" unicode="&#xc3;" horiz-adv-x="1447" 
d="M672 1667q-89 52 -133.5 42.5t-44.5 -101.5h-140q0 184 98.5 237.5t264.5 -43.5q98 -59 142 -45.5t44 103.5h139q0 -186 -97.5 -236.5t-272.5 43.5zM1417 0h-180l-170 414h-690l-166 -414h-180l585 1434h203zM578 909l-138 -340h561l-137 334q-81 194 -139 359h-12
q-45 -131 -135 -353z" />
    <glyph glyph-name="Adieresis" unicode="&#xc4;" horiz-adv-x="1447" 
d="M537 1608q-46 0 -78.5 32t-32.5 78t32.5 78.5t78.5 32.5t78 -32.5t32 -78.5t-32 -78t-78 -32zM897 1608q-46 0 -78.5 32t-32.5 78t32.5 78.5t78.5 32.5t78.5 -32.5t32.5 -78.5t-32.5 -78t-78.5 -32zM1417 0h-180l-170 414h-690l-166 -414h-180l585 1434h203zM578 909
l-138 -340h561l-137 334q-81 194 -139 359h-12q-45 -131 -135 -353z" />
    <glyph glyph-name="Aring" unicode="&#xc5;" horiz-adv-x="1447" 
d="M1417 0h-180l-170 414h-690l-166 -414h-180l549 1343q-58 30 -90.5 81.5t-32.5 119.5q0 103 71.5 166.5t188.5 63.5t188.5 -63.5t71.5 -166.5q0 -67 -32 -118.5t-89 -79.5zM717 1655q-60 0 -96.5 -30.5t-36.5 -80.5t36.5 -80t96.5 -30t96.5 30t36.5 80t-36.5 80.5
t-96.5 30.5zM578 909l-138 -340h561l-137 334q-81 194 -139 359h-12q-45 -131 -135 -353z" />
    <glyph glyph-name="AE" unicode="&#xc6;" horiz-adv-x="2150" 
d="M1141 664l211 -508h788v-156h-903l-170 414h-690l-166 -414h-180l585 1434h1084v-156h-815l190 -459h799v-155h-733zM578 909l-138 -340h561l-137 334q-81 194 -139 359h-12q-45 -131 -135 -353z" />
    <glyph glyph-name="Ccedilla" unicode="&#xc7;" horiz-adv-x="1449" 
d="M748 127q96 0 177 32t137.5 87.5t93 126.5t50.5 153h180q-30 -231 -181.5 -384t-393.5 -173q-20 -46 -78 -61v-6h17q82 0 133 -44t51 -106q0 -190 -281 -190q-23 0 -125 4v96q47 -2 119 -2q57 0 93 22.5t36 65.5q0 33 -30 52t-70 20.5t-80 -2.5v78q66 22 82 73
q-274 25 -440 227.5t-166 526.5q0 343 186 543t490 200q270 0 441 -156.5t200 -402.5h-181q-26 173 -146.5 286.5t-313.5 113.5q-226 0 -363 -156.5t-137 -427.5q0 -272 138 -434t362 -162z" />
    <glyph glyph-name="Egrave" unicode="&#xc8;" horiz-adv-x="1189" 
d="M219 1972l555 -270l-49 -109l-567 246zM1139 1434v-156h-834v-459h750v-155h-750v-508h823v-156h-995v1434h1006z" />
    <glyph glyph-name="Eacute" unicode="&#xc9;" horiz-adv-x="1189" 
d="M1059 1972l61 -133l-567 -246l-49 109zM1139 1434v-156h-834v-459h750v-155h-750v-508h823v-156h-995v1434h1006z" />
    <glyph glyph-name="Ecircumflex" unicode="&#xca;" horiz-adv-x="1189" 
d="M516 1683l-72 -75h-184l275 295h204l275 -295h-185l-69 71q-78 80 -117 136h-12q-30 -43 -115 -132zM1139 1434v-156h-834v-459h750v-155h-750v-508h823v-156h-995v1434h1006z" />
    <glyph glyph-name="Edieresis" unicode="&#xcb;" horiz-adv-x="1189" 
d="M457 1608q-46 0 -78.5 32t-32.5 78t32.5 78.5t78.5 32.5t78 -32.5t32 -78.5t-32 -78t-78 -32zM817 1608q-46 0 -78 32t-32 78t32 78.5t78 32.5t78.5 -32.5t32.5 -78.5t-32.5 -78t-78.5 -32zM1139 1434v-156h-834v-459h750v-155h-750v-508h823v-156h-995v1434h1006z" />
    <glyph glyph-name="Igrave" unicode="&#xcc;" horiz-adv-x="438" 
d="M356 1702l-49 -109l-567 246l61 133zM133 0v1434h172v-1434h-172z" />
    <glyph glyph-name="Iacute" unicode="&#xcd;" horiz-adv-x="438" 
d="M702 1839l-567 -246l-49 109l555 270zM133 0v1434h172v-1434h-172z" />
    <glyph glyph-name="Icircumflex" unicode="&#xce;" horiz-adv-x="438" 
d="M27 1608h-185l275 295h205l274 -295h-184l-70 71q-78 80 -117 136h-12q-30 -43 -115 -132zM133 0v1434h172v-1434h-172z" />
    <glyph glyph-name="Idieresis" unicode="&#xcf;" horiz-adv-x="438" 
d="M39 1608q-46 0 -78.5 32t-32.5 78t32.5 78.5t78.5 32.5t78.5 -32.5t32.5 -78.5t-32.5 -78t-78.5 -32zM399 1608q-46 0 -78 32t-32 78t32 78.5t78 32.5t78.5 -32.5t32.5 -78.5t-32.5 -78t-78.5 -32zM133 0v1434h172v-1434h-172z" />
    <glyph glyph-name="Eth" unicode="&#xd0;" horiz-adv-x="1437" 
d="M653 1434q335 0 524 -185t189 -532q0 -352 -189 -534.5t-524 -182.5h-473v700h-180v103h180v631h473zM352 156h301q263 0 400 140t137 421t-137.5 421t-399.5 140h-301v-475h410v-103h-410v-544z" />
    <glyph glyph-name="Ntilde" unicode="&#xd1;" horiz-adv-x="1437" 
d="M537 1608h-140q0 184 98.5 237.5t264.5 -43.5q98 -59 142 -45.5t44 103.5h139q0 -186 -97.5 -236.5t-272.5 43.5q-89 52 -133.5 42.5t-44.5 -101.5zM303 1188l-8 -2q10 -209 10 -590v-596h-172v1434h207l530 -791q15 -22 112 -167t153 -232l8 2q-10 207 -10 459v729h172
v-1434h-209l-457 680q-247 366 -336 508z" />
    <glyph glyph-name="Ograve" unicode="&#xd2;" horiz-adv-x="1544" 
d="M909 1702l-49 -109l-567 246l61 133zM772 -33q-202 0 -360.5 91.5t-249 264.5t-90.5 400q0 168 52.5 308t145 235t222 147.5t280.5 52.5t280.5 -52.5t222.5 -147.5t145.5 -235t52.5 -308q0 -171 -52.5 -313t-145.5 -239t-222.5 -150.5t-280.5 -53.5zM772 127
q229 0 376.5 163t147.5 433q0 265 -147.5 424.5t-376.5 159.5t-376.5 -159.5t-147.5 -424.5q0 -270 147.5 -433t376.5 -163z" />
    <glyph glyph-name="Oacute" unicode="&#xd3;" horiz-adv-x="1544" 
d="M1255 1839l-567 -246l-49 109l555 270zM772 -33q-202 0 -360.5 91.5t-249 264.5t-90.5 400q0 168 52.5 308t145 235t222 147.5t280.5 52.5t280.5 -52.5t222.5 -147.5t145.5 -235t52.5 -308q0 -171 -52.5 -313t-145.5 -239t-222.5 -150.5t-280.5 -53.5zM772 127
q229 0 376.5 163t147.5 433q0 265 -147.5 424.5t-376.5 159.5t-376.5 -159.5t-147.5 -424.5q0 -270 147.5 -433t376.5 -163z" />
    <glyph glyph-name="Ocircumflex" unicode="&#xd4;" horiz-adv-x="1544" 
d="M580 1608h-185l275 295h204l275 -295h-184l-70 71q-78 80 -117 136h-12q-30 -43 -115 -132zM772 -33q-202 0 -360.5 91.5t-249 264.5t-90.5 400q0 168 52.5 308t145 235t222 147.5t280.5 52.5t280.5 -52.5t222.5 -147.5t145.5 -235t52.5 -308q0 -171 -52.5 -313
t-145.5 -239t-222.5 -150.5t-280.5 -53.5zM772 127q229 0 376.5 163t147.5 433q0 265 -147.5 424.5t-376.5 159.5t-376.5 -159.5t-147.5 -424.5q0 -270 147.5 -433t376.5 -163z" />
    <glyph glyph-name="Otilde" unicode="&#xd5;" horiz-adv-x="1544" 
d="M549 1608h-139q0 184 98 237.5t264 -43.5q98 -59 142 -45.5t44 103.5h140q0 -186 -98 -236.5t-273 43.5q-89 52 -133.5 42.5t-44.5 -101.5zM772 -33q-202 0 -360.5 91.5t-249 264.5t-90.5 400q0 168 52.5 308t145 235t222 147.5t280.5 52.5t280.5 -52.5t222.5 -147.5
t145.5 -235t52.5 -308q0 -171 -52.5 -313t-145.5 -239t-222.5 -150.5t-280.5 -53.5zM772 127q229 0 376.5 163t147.5 433q0 265 -147.5 424.5t-376.5 159.5t-376.5 -159.5t-147.5 -424.5q0 -270 147.5 -433t376.5 -163z" />
    <glyph glyph-name="Odieresis" unicode="&#xd6;" horiz-adv-x="1544" 
d="M592 1608q-46 0 -78.5 32t-32.5 78t32.5 78.5t78.5 32.5t78 -32.5t32 -78.5t-32 -78t-78 -32zM952 1608q-46 0 -78 32t-32 78t32 78.5t78 32.5t78.5 -32.5t32.5 -78.5t-32.5 -78t-78.5 -32zM772 -33q-202 0 -360.5 91.5t-249 264.5t-90.5 400q0 168 52.5 308t145 235
t222 147.5t280.5 52.5t280.5 -52.5t222.5 -147.5t145.5 -235t52.5 -308q0 -171 -52.5 -313t-145.5 -239t-222.5 -150.5t-280.5 -53.5zM772 127q229 0 376.5 163t147.5 433q0 265 -147.5 424.5t-376.5 159.5t-376.5 -159.5t-147.5 -424.5q0 -270 147.5 -433t376.5 -163z" />
    <glyph glyph-name="multiply" unicode="&#xd7;" horiz-adv-x="1083" 
d="M850 1141l104 -105l-307 -307l307 -307l-104 -105l-307 308l-310 -308l-104 105l307 307l-307 307l104 105l310 -307z" />
    <glyph glyph-name="Oslash" unicode="&#xd8;" horiz-adv-x="1583" 
d="M1423 1509l88 -69l-184 -207q166 -203 166 -508q0 -227 -90.5 -400t-249 -264.5t-360.5 -91.5q-264 0 -455 158l-178 -199l-88 70l188 211q-168 204 -168 516q0 168 52.5 308t145.5 235t222.5 147.5t280.5 52.5q266 0 454 -155zM268 725q0 -225 109 -385l756 846
q-138 123 -340 123q-230 0 -377.5 -160t-147.5 -424zM1317 725q0 224 -109 377l-755 -846q139 -127 340 -127q229 0 376.5 163t147.5 433z" />
    <glyph glyph-name="Ugrave" unicode="&#xd9;" horiz-adv-x="1384" 
d="M829 1702l-49 -109l-567 246l61 133zM113 551v883h170v-883q0 -202 103.5 -315t305.5 -113t306 113.5t104 314.5v883h170v-883q0 -272 -151 -428t-429 -156t-428.5 156t-150.5 428z" />
    <glyph glyph-name="Uacute" unicode="&#xda;" horiz-adv-x="1384" 
d="M1176 1839l-568 -246l-49 109l555 270zM113 551v883h170v-883q0 -202 103.5 -315t305.5 -113t306 113.5t104 314.5v883h170v-883q0 -272 -151 -428t-429 -156t-428.5 156t-150.5 428z" />
    <glyph glyph-name="Ucircumflex" unicode="&#xdb;" horiz-adv-x="1384" 
d="M500 1608h-185l275 295h205l274 -295h-184l-70 71q-78 80 -117 136h-12q-30 -43 -115 -132zM113 551v883h170v-883q0 -202 103.5 -315t305.5 -113t306 113.5t104 314.5v883h170v-883q0 -272 -151 -428t-429 -156t-428.5 156t-150.5 428z" />
    <glyph glyph-name="Udieresis" unicode="&#xdc;" horiz-adv-x="1384" 
d="M512 1608q-46 0 -78.5 32t-32.5 78t32.5 78.5t78.5 32.5t78.5 -32.5t32.5 -78.5t-32.5 -78t-78.5 -32zM872 1608q-46 0 -78 32t-32 78t32 78.5t78 32.5t78.5 -32.5t32.5 -78.5t-32.5 -78t-78.5 -32zM113 551v883h170v-883q0 -202 103.5 -315t305.5 -113t306 113.5
t104 314.5v883h170v-883q0 -272 -151 -428t-429 -156t-428.5 156t-150.5 428z" />
    <glyph glyph-name="Yacute" unicode="&#xdd;" horiz-adv-x="1327" 
d="M1087 1972l62 -133l-567 -246l-50 109zM1104 1434h192l-546 -850v-584h-172v582l-547 852h194l162 -256q211 -340 272 -447h13q97 168 270 443z" />
    <glyph glyph-name="Thorn" unicode="&#xde;" horiz-adv-x="1261" 
d="M305 1165h385q502 0 502 -448q0 -112 -39.5 -199.5t-109 -141.5t-159 -81.5t-194.5 -26.5l-385 2v-270h-172v1434h172v-269zM305 424h354q359 0 359 293q0 69 -18.5 121t-50 84.5t-78.5 52.5t-98 27.5t-114 7.5h-354v-586z" />
    <glyph glyph-name="germandbls" unicode="&#xdf;" horiz-adv-x="1163" 
d="M707 795v-9q98 -8 173 -42t120.5 -85.5t68.5 -115t23 -135.5q0 -190 -138.5 -302t-351.5 -112q-72 0 -145 6v152q53 -2 125 -2q154 0 246 66t92 187q0 120 -92 190.5t-242 70.5h-115v149h111q118 0 190 71.5t72 200.5q0 109 -76.5 176.5t-202.5 67.5q-128 0 -203 -71
t-75 -197v-1061h-164v1071q0 186 120.5 294t321.5 108q200 0 322.5 -101.5t122.5 -267.5q0 -52 -15 -99.5t-47.5 -92t-94 -76t-146.5 -41.5z" />
    <glyph glyph-name="agrave" unicode="&#xe0;" horiz-adv-x="1155" 
d="M713 1325l-49 -108l-568 245l62 133zM61 260q0 147 107 227.5t311 77.5q75 -1 136.5 0t108.5 9.5t79 26t48.5 49t16.5 79.5q0 37 -15.5 73t-48.5 69.5t-96 54t-147 20.5q-80 0 -143.5 -25t-102 -67.5t-60.5 -93t-28 -107.5h-164q0 88 35 167t98.5 139t159.5 95.5
t211 35.5q125 0 217.5 -32t145.5 -89.5t77.5 -128t24.5 -156.5v-684h-155l-9 352h-8q-9 -83 -38.5 -149.5t-72 -109.5t-97.5 -72t-112 -41.5t-118 -12.5q-164 0 -262.5 77t-98.5 216zM236 283q0 -177 227 -177q90 0 168 32.5t129 85t79.5 117t28.5 128.5v160h-8
q-11 -62 -47 -96t-124 -53.5t-249 -24.5q-94 -3 -149 -49.5t-55 -122.5z" />
    <glyph glyph-name="aacute" unicode="&#xe1;" horiz-adv-x="1155" 
d="M1059 1462l-567 -245l-50 108l555 270zM61 260q0 147 107 227.5t311 77.5q75 -1 136.5 0t108.5 9.5t79 26t48.5 49t16.5 79.5q0 37 -15.5 73t-48.5 69.5t-96 54t-147 20.5q-80 0 -143.5 -25t-102 -67.5t-60.5 -93t-28 -107.5h-164q0 88 35 167t98.5 139t159.5 95.5
t211 35.5q125 0 217.5 -32t145.5 -89.5t77.5 -128t24.5 -156.5v-684h-155l-9 352h-8q-9 -83 -38.5 -149.5t-72 -109.5t-97.5 -72t-112 -41.5t-118 -12.5q-164 0 -262.5 77t-98.5 216zM236 283q0 -177 227 -177q90 0 168 32.5t129 85t79.5 117t28.5 128.5v160h-8
q-11 -62 -47 -96t-124 -53.5t-249 -24.5q-94 -3 -149 -49.5t-55 -122.5z" />
    <glyph glyph-name="acircumflex" unicode="&#xe2;" horiz-adv-x="1155" 
d="M383 1231h-184l274 295h205l274 -295h-184l-70 72q-77 79 -116 135h-13q-30 -43 -114 -131zM61 260q0 147 107 227.5t311 77.5q75 -1 136.5 0t108.5 9.5t79 26t48.5 49t16.5 79.5q0 37 -15.5 73t-48.5 69.5t-96 54t-147 20.5q-80 0 -143.5 -25t-102 -67.5t-60.5 -93
t-28 -107.5h-164q0 88 35 167t98.5 139t159.5 95.5t211 35.5q125 0 217.5 -32t145.5 -89.5t77.5 -128t24.5 -156.5v-684h-155l-9 352h-8q-9 -83 -38.5 -149.5t-72 -109.5t-97.5 -72t-112 -41.5t-118 -12.5q-164 0 -262.5 77t-98.5 216zM236 283q0 -177 227 -177
q90 0 168 32.5t129 85t79.5 117t28.5 128.5v160h-8q-11 -62 -47 -96t-124 -53.5t-249 -24.5q-94 -3 -149 -49.5t-55 -122.5z" />
    <glyph glyph-name="atilde" unicode="&#xe3;" horiz-adv-x="1155" 
d="M367 1231h-140q0 184 98.5 237.5t264.5 -43.5q98 -59 142 -45.5t44 103.5h139q0 -186 -97.5 -236.5t-272.5 43.5q-89 52 -133.5 42.5t-44.5 -101.5zM61 260q0 147 107 227.5t311 77.5q75 -1 136.5 0t108.5 9.5t79 26t48.5 49t16.5 79.5q0 37 -15.5 73t-48.5 69.5t-96 54
t-147 20.5q-80 0 -143.5 -25t-102 -67.5t-60.5 -93t-28 -107.5h-164q0 88 35 167t98.5 139t159.5 95.5t211 35.5q125 0 217.5 -32t145.5 -89.5t77.5 -128t24.5 -156.5v-684h-155l-9 352h-8q-9 -83 -38.5 -149.5t-72 -109.5t-97.5 -72t-112 -41.5t-118 -12.5
q-164 0 -262.5 77t-98.5 216zM236 283q0 -177 227 -177q90 0 168 32.5t129 85t79.5 117t28.5 128.5v160h-8q-11 -62 -47 -96t-124 -53.5t-249 -24.5q-94 -3 -149 -49.5t-55 -122.5z" />
    <glyph glyph-name="adieresis" unicode="&#xe4;" horiz-adv-x="1155" 
d="M395 1231q-46 0 -78 32t-32 78t32 78.5t78 32.5t78.5 -32.5t32.5 -78.5t-32.5 -78t-78.5 -32zM756 1231q-46 0 -78.5 32t-32.5 78t32.5 78.5t78.5 32.5t78 -32.5t32 -78.5t-32 -78t-78 -32zM61 260q0 147 107 227.5t311 77.5q75 -1 136.5 0t108.5 9.5t79 26t48.5 49
t16.5 79.5q0 37 -15.5 73t-48.5 69.5t-96 54t-147 20.5q-80 0 -143.5 -25t-102 -67.5t-60.5 -93t-28 -107.5h-164q0 88 35 167t98.5 139t159.5 95.5t211 35.5q125 0 217.5 -32t145.5 -89.5t77.5 -128t24.5 -156.5v-684h-155l-9 352h-8q-9 -83 -38.5 -149.5t-72 -109.5
t-97.5 -72t-112 -41.5t-118 -12.5q-164 0 -262.5 77t-98.5 216zM236 283q0 -177 227 -177q90 0 168 32.5t129 85t79.5 117t28.5 128.5v160h-8q-11 -62 -47 -96t-124 -53.5t-249 -24.5q-94 -3 -149 -49.5t-55 -122.5z" />
    <glyph glyph-name="aring" unicode="&#xe5;" horiz-adv-x="1155" 
d="M575 1231q-117 0 -188.5 63t-71.5 166t71.5 166.5t188.5 63.5t189 -63.5t72 -166.5t-72 -166t-189 -63zM575 1350q60 0 97 30.5t37 79.5q0 50 -37 80.5t-97 30.5t-96.5 -30.5t-36.5 -80.5t36.5 -80t96.5 -30zM61 260q0 147 107 227.5t311 77.5q75 -1 136.5 0t108.5 9.5
t79 26t48.5 49t16.5 79.5q0 37 -15.5 73t-48.5 69.5t-96 54t-147 20.5q-80 0 -143.5 -25t-102 -67.5t-60.5 -93t-28 -107.5h-164q0 88 35 167t98.5 139t159.5 95.5t211 35.5q125 0 217.5 -32t145.5 -89.5t77.5 -128t24.5 -156.5v-684h-155l-9 352h-8q-9 -83 -38.5 -149.5
t-72 -109.5t-97.5 -72t-112 -41.5t-118 -12.5q-164 0 -262.5 77t-98.5 216zM236 283q0 -177 227 -177q90 0 168 32.5t129 85t79.5 117t28.5 128.5v160h-8q-11 -62 -47 -96t-124 -53.5t-249 -24.5q-94 -3 -149 -49.5t-55 -122.5z" />
    <glyph glyph-name="ae" unicode="&#xe6;" horiz-adv-x="1970" 
d="M422 -33q-161 0 -261 77t-100 216q0 147 107 227.5t311 77.5q75 -1 136.5 0t108.5 9.5t79 26t48.5 49t16.5 79.5q0 37 -15.5 73t-48.5 69.5t-96 54t-147 20.5q-80 0 -143.5 -25t-102 -67.5t-60.5 -93t-28 -107.5h-164q0 88 35 167t98.5 139t159.5 95.5t211 35.5
q315 0 424 -207h8q73 105 170.5 156t229.5 51q146 0 261 -67.5t176.5 -183.5t61.5 -259v-78h-856q3 -187 102.5 -289t258.5 -102q129 0 213.5 73t105.5 187h168q-23 -182 -157 -293t-330 -111q-261 0 -399 166q-84 94 -117 219h-8q-18 -103 -64.5 -180t-110 -120t-134 -64
t-148.5 -21zM1042 616h689q-9 151 -98.5 240.5t-239.5 89.5q-147 0 -244 -86t-107 -244zM463 106q90 0 168 32.5t129 85t79.5 117t28.5 128.5v160h-8q-11 -62 -47 -96t-124 -53.5t-249 -24.5q-96 -3 -150 -49t-54 -123q0 -83 56 -130t171 -47z" />
    <glyph glyph-name="ccedilla" unicode="&#xe7;" horiz-adv-x="1132" 
d="M588 115q144 0 232 86.5t93 222.5h168q-6 -190 -123 -312t-307 -141q-15 -47 -78 -63v-6h17q82 0 133 -44t51 -106q0 -190 -280 -190q-23 0 -125 4v96q47 -2 118 -2q57 0 93 22.5t36 65.5q0 33 -30 52t-70 20.5t-80 -2.5v78q66 23 82 75q-203 23 -324.5 176.5
t-121.5 389.5q0 249 142 401t374 152q212 0 348 -124t145 -325h-168q-5 136 -92.5 218.5t-232.5 82.5q-158 0 -253 -109.5t-95 -291.5q0 -188 95.5 -307t252.5 -119z" />
    <glyph glyph-name="egrave" unicode="&#xe8;" horiz-adv-x="1163" 
d="M172 1595l555 -270l-49 -108l-567 245zM1092 580v-78h-856q3 -187 102 -289t258 -102q127 0 211 73t108 187h168q-23 -182 -157 -293t-330 -111q-116 0 -211 35t-165 104t-109 177.5t-39 248.5q0 261 143 409.5t377 148.5q221 0 360.5 -146t139.5 -364zM586 946
q-147 0 -243.5 -86t-106.5 -244h688q-9 151 -98.5 240.5t-239.5 89.5z" />
    <glyph glyph-name="eacute" unicode="&#xe9;" horiz-adv-x="1163" 
d="M1012 1595l61 -133l-567 -245l-49 108zM1092 580v-78h-856q3 -187 102 -289t258 -102q127 0 211 73t108 187h168q-23 -182 -157 -293t-330 -111q-116 0 -211 35t-165 104t-109 177.5t-39 248.5q0 261 143 409.5t377 148.5q221 0 360.5 -146t139.5 -364zM586 946
q-147 0 -243.5 -86t-106.5 -244h688q-9 151 -98.5 240.5t-239.5 89.5z" />
    <glyph glyph-name="ecircumflex" unicode="&#xea;" horiz-adv-x="1163" 
d="M469 1307l-72 -76h-184l274 295h205l275 -295h-185l-69 72q-80 82 -117 135h-12q-28 -39 -115 -131zM1092 580v-78h-856q3 -187 102 -289t258 -102q127 0 211 73t108 187h168q-23 -182 -157 -293t-330 -111q-116 0 -211 35t-165 104t-109 177.5t-39 248.5
q0 261 143 409.5t377 148.5q221 0 360.5 -146t139.5 -364zM586 946q-147 0 -243.5 -86t-106.5 -244h688q-9 151 -98.5 240.5t-239.5 89.5z" />
    <glyph glyph-name="edieresis" unicode="&#xeb;" horiz-adv-x="1163" 
d="M410 1231q-46 0 -78.5 32t-32.5 78t32.5 78.5t78.5 32.5t78 -32.5t32 -78.5t-32 -78t-78 -32zM770 1231q-46 0 -78.5 32t-32.5 78t32.5 78.5t78.5 32.5t78.5 -32.5t32.5 -78.5t-32.5 -78t-78.5 -32zM1092 580v-78h-856q3 -187 102 -289t258 -102q127 0 211 73t108 187
h168q-23 -182 -157 -293t-330 -111q-116 0 -211 35t-165 104t-109 177.5t-39 248.5q0 261 143 409.5t377 148.5q221 0 360.5 -146t139.5 -364zM586 946q-147 0 -243.5 -86t-106.5 -244h688q-9 151 -98.5 240.5t-239.5 89.5z" />
    <glyph glyph-name="igrave" unicode="&#xec;" horiz-adv-x="403" 
d="M336 1325l-49 -108l-568 245l62 133zM119 0v1057h164v-1057h-164z" />
    <glyph glyph-name="iacute" unicode="&#xed;" horiz-adv-x="403" 
d="M682 1462l-567 -245l-49 108l555 270zM119 0v1057h164v-1057h-164z" />
    <glyph glyph-name="icircumflex" unicode="&#xee;" horiz-adv-x="403" 
d="M6 1231h-184l274 295h205l274 -295h-184l-69 72q-80 82 -117 135h-12q-28 -39 -115 -131zM119 0v1057h164v-1057h-164z" />
    <glyph glyph-name="idieresis" unicode="&#xef;" horiz-adv-x="403" 
d="M18 1231q-46 0 -78 32t-32 78t32 78.5t78 32.5t78.5 -32.5t32.5 -78.5t-32.5 -78t-78.5 -32zM379 1231q-46 0 -78.5 32t-32.5 78t32.5 78.5t78.5 32.5t78 -32.5t32 -78.5t-32 -78t-78 -32zM119 0v1057h164v-1057h-164z" />
    <glyph glyph-name="eth" unicode="&#xf0;" horiz-adv-x="1181" 
d="M829 1257q281 -380 281 -749q0 -248 -142 -394.5t-378 -146.5q-235 0 -376.5 147.5t-141.5 387.5q0 115 37.5 214t101 166.5t148.5 105.5t178 38q142 0 233 -76.5t139 -199.5l9 2q-23 102 -64.5 188t-112.5 180q-23 31 -94 117l-307 -96v98l242 76q-22 23 -59 63t-52 56
h215q38 -43 57 -68l263 82v-98l-199 -64q5 -5 12 -15.5t10 -13.5zM598 113q163 0 255.5 100t92.5 285q0 192 -93 288.5t-255 96.5q-168 0 -264 -103.5t-96 -281.5q0 -177 96.5 -281t263.5 -104z" />
    <glyph glyph-name="ntilde" unicode="&#xf1;" horiz-adv-x="1179" 
d="M545 1290q-89 52 -133.5 42.5t-44.5 -101.5h-140q0 184 98.5 237.5t264.5 -43.5q98 -59 142 -45.5t44 103.5h139q0 -186 -97.5 -236.5t-272.5 43.5zM676 1090q171 0 276 -107t105 -281v-702h-164v649q0 130 -77.5 209.5t-205.5 79.5q-145 0 -233 -108t-88 -285v-545h-166
v1057h156l10 -307h12q20 154 123 247t252 93z" />
    <glyph glyph-name="ograve" unicode="&#xf2;" horiz-adv-x="1245" 
d="M760 1325l-49 -108l-568 245l62 133zM623 -33q-146 0 -270.5 67.5t-202.5 198.5t-78 299q0 165 78 294t202.5 196.5t270.5 67.5t270.5 -67.5t202.5 -196.5t78 -294q0 -168 -78 -299t-202.5 -198.5t-270.5 -67.5zM623 115q171 0 277 112.5t106 304.5q0 188 -106 299
t-277 111t-277 -111t-106 -299q0 -192 106 -304.5t277 -112.5z" />
    <glyph glyph-name="oacute" unicode="&#xf3;" horiz-adv-x="1245" 
d="M1106 1462l-567 -245l-50 108l555 270zM623 -33q-146 0 -270.5 67.5t-202.5 198.5t-78 299q0 165 78 294t202.5 196.5t270.5 67.5t270.5 -67.5t202.5 -196.5t78 -294q0 -168 -78 -299t-202.5 -198.5t-270.5 -67.5zM623 115q171 0 277 112.5t106 304.5q0 188 -106 299
t-277 111t-277 -111t-106 -299q0 -192 106 -304.5t277 -112.5z" />
    <glyph glyph-name="ocircumflex" unicode="&#xf4;" horiz-adv-x="1245" 
d="M430 1231h-184l274 295h205l274 -295h-184l-70 72q-77 79 -116 135h-13q-30 -43 -114 -131zM623 -33q-146 0 -270.5 67.5t-202.5 198.5t-78 299q0 165 78 294t202.5 196.5t270.5 67.5t270.5 -67.5t202.5 -196.5t78 -294q0 -168 -78 -299t-202.5 -198.5t-270.5 -67.5z
M623 115q171 0 277 112.5t106 304.5q0 188 -106 299t-277 111t-277 -111t-106 -299q0 -192 106 -304.5t277 -112.5z" />
    <glyph glyph-name="otilde" unicode="&#xf5;" horiz-adv-x="1245" 
d="M399 1231h-139q0 184 98.5 237.5t264.5 -43.5q98 -59 142 -45.5t44 103.5h139q0 -186 -97.5 -236.5t-272.5 43.5q-89 52 -134 42.5t-45 -101.5zM623 -33q-146 0 -270.5 67.5t-202.5 198.5t-78 299q0 165 78 294t202.5 196.5t270.5 67.5t270.5 -67.5t202.5 -196.5t78 -294
q0 -168 -78 -299t-202.5 -198.5t-270.5 -67.5zM623 115q171 0 277 112.5t106 304.5q0 188 -106 299t-277 111t-277 -111t-106 -299q0 -192 106 -304.5t277 -112.5z" />
    <glyph glyph-name="odieresis" unicode="&#xf6;" horiz-adv-x="1245" 
d="M442 1231q-46 0 -78 32t-32 78t32 78.5t78 32.5t78.5 -32.5t32.5 -78.5t-32.5 -78t-78.5 -32zM803 1231q-46 0 -78.5 32t-32.5 78t32.5 78.5t78.5 32.5t78 -32.5t32 -78.5t-32 -78t-78 -32zM623 -33q-146 0 -270.5 67.5t-202.5 198.5t-78 299q0 165 78 294t202.5 196.5
t270.5 67.5t270.5 -67.5t202.5 -196.5t78 -294q0 -168 -78 -299t-202.5 -198.5t-270.5 -67.5zM623 115q171 0 277 112.5t106 304.5q0 188 -106 299t-277 111t-277 -111t-106 -299q0 -192 106 -304.5t277 -112.5z" />
    <glyph glyph-name="divide" unicode="&#xf7;" horiz-adv-x="1124" 
d="M561 979q-46 0 -76 29t-30 73t30 72.5t76 28.5q48 0 79.5 -28.5t31.5 -72.5t-32 -73t-79 -29zM82 803h960v-148h-960v148zM561 276q-46 0 -76 29.5t-30 73.5t30 72t76 28q48 0 79.5 -28t31.5 -72t-32 -73.5t-79 -29.5z" />
    <glyph glyph-name="oslash" unicode="&#xf8;" horiz-adv-x="1290" 
d="M1145 1141l74 -64l-160 -170q137 -153 137 -375q0 -168 -78 -299t-202.5 -198.5t-270.5 -67.5q-206 0 -356 129l-144 -151l-73 63l147 156q-125 151 -125 368q0 165 78 294t202.5 196.5t270.5 67.5q193 0 342 -115zM262 532q0 -144 66 -253l557 587q-98 76 -240 76
q-171 0 -277 -111t-106 -299zM1028 532q0 153 -76 263l-561 -590q101 -90 254 -90q171 0 277 112.5t106 304.5z" />
    <glyph glyph-name="ugrave" unicode="&#xf9;" horiz-adv-x="1179" 
d="M176 1595l555 -270l-49 -108l-567 245zM891 512v545h166v-1057h-156l-10 307h-12q-20 -154 -123 -247t-252 -93q-171 0 -276 106.5t-105 280.5v703h164v-649q0 -131 77.5 -210t204.5 -79q145 0 233.5 108t88.5 285z" />
    <glyph glyph-name="uacute" unicode="&#xfa;" horiz-adv-x="1179" 
d="M1016 1595l61 -133l-567 -245l-49 108zM891 512v545h166v-1057h-156l-10 307h-12q-20 -154 -123 -247t-252 -93q-171 0 -276 106.5t-105 280.5v703h164v-649q0 -131 77.5 -210t204.5 -79q145 0 233.5 108t88.5 285z" />
    <glyph glyph-name="ucircumflex" unicode="&#xfb;" horiz-adv-x="1179" 
d="M473 1307l-72 -76h-184l275 295h204l275 -295h-185l-69 72q-80 82 -117 135h-12q-28 -39 -115 -131zM891 512v545h166v-1057h-156l-10 307h-12q-20 -154 -123 -247t-252 -93q-171 0 -276 106.5t-105 280.5v703h164v-649q0 -131 77.5 -210t204.5 -79q145 0 233.5 108
t88.5 285z" />
    <glyph glyph-name="udieresis" unicode="&#xfc;" horiz-adv-x="1179" 
d="M414 1231q-46 0 -78.5 32t-32.5 78t32.5 78.5t78.5 32.5t78 -32.5t32 -78.5t-32 -78t-78 -32zM774 1231q-46 0 -78 32t-32 78t32 78.5t78 32.5t78.5 -32.5t32.5 -78.5t-32.5 -78t-78.5 -32zM891 512v545h166v-1057h-156l-10 307h-12q-20 -154 -123 -247t-252 -93
q-171 0 -276 106.5t-105 280.5v703h164v-649q0 -131 77.5 -210t204.5 -79q145 0 233.5 108t88.5 285z" />
    <glyph glyph-name="yacute" unicode="&#xfd;" horiz-adv-x="1036" 
d="M1008 1462l-568 -245l-49 108l555 270zM504 186h8q47 126 133.5 345.5t112.5 287.5l88 238h180l-438 -1071q-49 -117 -94 -187t-107.5 -114t-140 -58.5t-193.5 -9.5v154q59 -5 105 -0.5t79 13t61 33t51 60t50 92.5l17 35l-406 1053h183l88 -244q204 -571 223 -627z" />
    <glyph glyph-name="thorn" unicode="&#xfe;" horiz-adv-x="1232" 
d="M684 1090q215 0 346 -155t131 -409t-131 -408.5t-346 -154.5q-143 0 -250 93.5t-139 246.5h-8v-680h-164v1811h164v-684h8q32 153 139 246.5t250 93.5zM641 111q160 0 257 114t97 301q0 188 -97 302t-257 114q-156 0 -255 -105.5t-99 -256.5v-107q0 -151 99 -256.5
t255 -105.5z" />
    <glyph glyph-name="ydieresis" unicode="&#xff;" horiz-adv-x="1036" 
d="M344 1231q-46 0 -78.5 32t-32.5 78t32.5 78.5t78.5 32.5t78.5 -32.5t32.5 -78.5t-32.5 -78t-78.5 -32zM705 1231q-46 0 -78.5 32t-32.5 78t32.5 78.5t78.5 32.5t78 -32.5t32 -78.5t-32 -78t-78 -32zM504 186h8q47 126 133.5 345.5t112.5 287.5l88 238h180l-438 -1071
q-49 -117 -94 -187t-107.5 -114t-140 -58.5t-193.5 -9.5v154q59 -5 105 -0.5t79 13t61 33t51 60t50 92.5l17 35l-406 1053h183l88 -244q204 -571 223 -627z" />
    <glyph glyph-name="Amacron" unicode="&#x100;" horiz-adv-x="1447" 
d="M338 1745h758v-137h-758v137zM1417 0h-180l-170 414h-690l-166 -414h-180l585 1434h203zM578 909l-138 -340h561l-137 334q-81 194 -139 359h-12q-45 -131 -135 -353z" />
    <glyph glyph-name="amacron" unicode="&#x101;" horiz-adv-x="1155" 
d="M872 1231h-593v137h593v-137zM61 260q0 147 107 227.5t311 77.5q75 -1 136.5 0t108.5 9.5t79 26t48.5 49t16.5 79.5q0 37 -15.5 73t-48.5 69.5t-96 54t-147 20.5q-80 0 -143.5 -25t-102 -67.5t-60.5 -93t-28 -107.5h-164q0 88 35 167t98.5 139t159.5 95.5t211 35.5
q125 0 217.5 -32t145.5 -89.5t77.5 -128t24.5 -156.5v-684h-155l-9 352h-8q-9 -83 -38.5 -149.5t-72 -109.5t-97.5 -72t-112 -41.5t-118 -12.5q-164 0 -262.5 77t-98.5 216zM236 283q0 -177 227 -177q90 0 168 32.5t129 85t79.5 117t28.5 128.5v160h-8q-11 -62 -47 -96
t-124 -53.5t-249 -24.5q-94 -3 -149 -49.5t-55 -122.5z" />
    <glyph glyph-name="Abreve" unicode="&#x102;" horiz-adv-x="1447" 
d="M717 1608q-137 0 -223.5 83.5t-92.5 221.5h142q6 -84 52.5 -128t121.5 -44q78 0 123 45t51 127h141q-11 -138 -96 -221.5t-219 -83.5zM1417 0h-180l-170 414h-690l-166 -414h-180l585 1434h203zM578 909l-138 -340h561l-137 334q-81 194 -139 359h-12q-45 -131 -135 -353
z" />
    <glyph glyph-name="abreve" unicode="&#x103;" horiz-adv-x="1155" 
d="M575 1231q-137 0 -223 83.5t-92 221.5h141q6 -84 52.5 -128t121.5 -44q78 0 123.5 45t51.5 127h141q-11 -138 -96.5 -221.5t-219.5 -83.5zM61 260q0 147 107 227.5t311 77.5q75 -1 136.5 0t108.5 9.5t79 26t48.5 49t16.5 79.5q0 37 -15.5 73t-48.5 69.5t-96 54t-147 20.5
q-80 0 -143.5 -25t-102 -67.5t-60.5 -93t-28 -107.5h-164q0 88 35 167t98.5 139t159.5 95.5t211 35.5q125 0 217.5 -32t145.5 -89.5t77.5 -128t24.5 -156.5v-684h-155l-9 352h-8q-9 -83 -38.5 -149.5t-72 -109.5t-97.5 -72t-112 -41.5t-118 -12.5q-164 0 -262.5 77
t-98.5 216zM236 283q0 -177 227 -177q90 0 168 32.5t129 85t79.5 117t28.5 128.5v160h-8q-11 -62 -47 -96t-124 -53.5t-249 -24.5q-94 -3 -149 -49.5t-55 -122.5z" />
    <glyph glyph-name="Aogonek" unicode="&#x104;" horiz-adv-x="1447" 
d="M1204 -199q0 -49 34 -68.5t99 -19.5q22 0 80 4v-131q-74 -8 -104 -8q-128 0 -196 38.5t-68 131.5q0 82 82 148.5t217 95.5v8h-111l-170 414h-690l-166 -414h-180l585 1434h203l598 -1434q-213 -106 -213 -199zM578 909l-138 -340h561l-137 334q-81 194 -139 359h-12
q-45 -131 -135 -353z" />
    <glyph glyph-name="aogonek" unicode="&#x105;" horiz-adv-x="1155" 
d="M1032 684v-684q-213 -106 -213 -199q0 -49 34 -68.5t99 -19.5q22 0 80 4v-131q-74 -8 -104 -8q-128 0 -196 38.5t-68 131.5q0 82 82 148.5t217 95.5v8h-86l-9 352h-8q-9 -83 -38.5 -149.5t-72 -109.5t-97.5 -72t-112 -41.5t-118 -12.5q-164 0 -262.5 77t-98.5 216
q0 147 107 227.5t311 77.5q75 -1 136.5 0t108.5 9.5t79 26t48.5 49t16.5 79.5q0 37 -15.5 73t-48.5 69.5t-96 54t-147 20.5q-80 0 -143.5 -25t-102 -67.5t-60.5 -93t-28 -107.5h-164q0 88 35 167t98.5 139t159.5 95.5t211 35.5q125 0 217.5 -32t145.5 -89.5t77.5 -128
t24.5 -156.5zM868 469v160h-8q-11 -62 -47 -96t-124 -53.5t-249 -24.5q-94 -3 -149 -49.5t-55 -122.5q0 -177 227 -177q90 0 168 32.5t129 85t79.5 117t28.5 128.5z" />
    <glyph glyph-name="Cacute" unicode="&#x106;" horiz-adv-x="1449" 
d="M1231 1841l-567 -246l-50 109l555 270zM1206 526h180q-21 -161 -100.5 -285.5t-218.5 -199t-319 -74.5q-149 0 -274.5 53.5t-214 150.5t-138 239t-49.5 313q0 343 186 543t490 200q270 0 441 -156.5t200 -402.5h-181q-26 173 -146.5 286.5t-313.5 113.5
q-226 0 -363 -156.5t-137 -427.5q0 -272 138 -434t362 -162q96 0 177 32t137.5 87.5t93 126.5t50.5 153z" />
    <glyph glyph-name="cacute" unicode="&#x107;" horiz-adv-x="1132" 
d="M1071 1462l-567 -245l-49 108l555 270zM72 537q0 249 142 401t374 152q212 0 348 -124t145 -325h-168q-5 136 -92.5 218.5t-232.5 82.5q-158 0 -253 -109.5t-95 -291.5q0 -188 95.5 -307t252.5 -119q144 0 232 86.5t93 222.5h168q-6 -205 -142 -331t-351 -126
q-232 0 -374 157t-142 413z" />
    <glyph glyph-name="Cdotaccent" unicode="&#x10a;" horiz-adv-x="1449" 
d="M748 1610q-46 0 -78.5 32t-32.5 78t32.5 78.5t78.5 32.5t78 -32.5t32 -78.5t-32 -78t-78 -32zM1206 526h180q-21 -161 -100.5 -285.5t-218.5 -199t-319 -74.5q-149 0 -274.5 53.5t-214 150.5t-138 239t-49.5 313q0 343 186 543t490 200q270 0 441 -156.5t200 -402.5h-181
q-26 173 -146.5 286.5t-313.5 113.5q-226 0 -363 -156.5t-137 -427.5q0 -272 138 -434t362 -162q96 0 177 32t137.5 87.5t93 126.5t50.5 153z" />
    <glyph glyph-name="cdotaccent" unicode="&#x10b;" horiz-adv-x="1132" 
d="M588 1231q-46 0 -78.5 32t-32.5 78t32.5 78.5t78.5 32.5t78 -32.5t32 -78.5t-32 -78t-78 -32zM72 537q0 249 142 401t374 152q212 0 348 -124t145 -325h-168q-5 136 -92.5 218.5t-232.5 82.5q-158 0 -253 -109.5t-95 -291.5q0 -188 95.5 -307t252.5 -119q144 0 232 86.5
t93 222.5h168q-6 -205 -142 -331t-351 -126q-232 0 -374 157t-142 413z" />
    <glyph glyph-name="Ccaron" unicode="&#x10c;" horiz-adv-x="1449" 
d="M645 1610l-274 295h184l72 -76q84 -88 114 -131h13q39 56 116 135l70 72h184l-274 -295h-205zM1206 526h180q-21 -161 -100.5 -285.5t-218.5 -199t-319 -74.5q-149 0 -274.5 53.5t-214 150.5t-138 239t-49.5 313q0 343 186 543t490 200q270 0 441 -156.5t200 -402.5h-181
q-26 173 -146.5 286.5t-313.5 113.5q-226 0 -363 -156.5t-137 -427.5q0 -272 138 -434t362 -162q96 0 177 32t137.5 87.5t93 126.5t50.5 153z" />
    <glyph glyph-name="ccaron" unicode="&#x10d;" horiz-adv-x="1132" 
d="M485 1231l-274 295h184l72 -76q87 -92 115 -131h12q37 53 117 135l69 72h185l-275 -295h-205zM72 537q0 249 142 401t374 152q212 0 348 -124t145 -325h-168q-5 136 -92.5 218.5t-232.5 82.5q-158 0 -253 -109.5t-95 -291.5q0 -188 95.5 -307t252.5 -119q144 0 232 86.5
t93 222.5h168q-6 -205 -142 -331t-351 -126q-232 0 -374 157t-142 413z" />
    <glyph glyph-name="Dcaron" unicode="&#x10e;" horiz-adv-x="1390" 
d="M1104 1903l-275 -295h-204l-275 295h185l71 -76q87 -92 115 -131h12q37 53 117 135l70 72h184zM606 1434q335 0 524 -185t189 -532q0 -352 -189 -534.5t-524 -182.5h-473v1434h473zM305 156h301q263 0 400 140t137 421t-137.5 421t-399.5 140h-301v-1122z" />
    <glyph glyph-name="dcaron" unicode="&#x10f;" horiz-adv-x="1433" 
d="M938 750h8v684h164v-1434h-156l-8 303h-8q-32 -153 -139 -246.5t-250 -93.5q-215 0 -346 154.5t-131 408.5t131 409t346 155q143 0 250 -93.5t139 -246.5zM1186 868l78 566h180l-144 -566h-114zM592 111q156 0 255 105.5t99 256.5v107q0 151 -99 256.5t-255 105.5
q-160 0 -257 -114t-97 -302q0 -187 97 -301t257 -114z" />
    <glyph glyph-name="Dcroat" unicode="&#x110;" horiz-adv-x="1437" 
d="M653 1434q335 0 524 -185t189 -532q0 -352 -189 -534.5t-524 -182.5h-473v700h-180v103h180v631h473zM352 156h301q263 0 400 140t137 421t-137.5 421t-399.5 140h-301v-475h410v-103h-410v-544z" />
    <glyph glyph-name="dcroat" unicode="&#x111;" horiz-adv-x="1257" 
d="M1110 1280h147v-94h-147v-1186h-156l-8 303h-8q-32 -153 -139 -246.5t-250 -93.5q-215 0 -346 154.5t-131 408.5t131 409t346 155q143 0 250 -93.5t139 -246.5h8v436h-328v94h328v154h164v-154zM592 111q156 0 255 105.5t99 256.5v107q0 151 -99 256.5t-255 105.5
q-160 0 -257 -114t-97 -302q0 -187 97 -301t257 -114z" />
    <glyph glyph-name="Emacron" unicode="&#x112;" horiz-adv-x="1189" 
d="M340 1745h594v-137h-594v137zM1139 1434v-156h-834v-459h750v-155h-750v-508h823v-156h-995v1434h1006z" />
    <glyph glyph-name="emacron" unicode="&#x113;" horiz-adv-x="1163" 
d="M293 1368h594v-137h-594v137zM1092 580v-78h-856q3 -187 102 -289t258 -102q127 0 211 73t108 187h168q-23 -182 -157 -293t-330 -111q-116 0 -211 35t-165 104t-109 177.5t-39 248.5q0 261 143 409.5t377 148.5q221 0 360.5 -146t139.5 -364zM586 946q-147 0 -243.5 -86
t-106.5 -244h688q-9 151 -98.5 240.5t-239.5 89.5z" />
    <glyph glyph-name="Ebreve" unicode="&#x114;" horiz-adv-x="1189" 
d="M637 1608q-137 0 -223 83.5t-92 221.5h141q6 -84 52.5 -128t121.5 -44q78 0 123 45t51 127h141q-11 -138 -96 -221.5t-219 -83.5zM1139 1434v-156h-834v-459h750v-155h-750v-508h823v-156h-995v1434h1006z" />
    <glyph glyph-name="ebreve" unicode="&#x115;" horiz-adv-x="1163" 
d="M590 1231q-137 0 -223.5 83.5t-92.5 221.5h142q6 -84 52.5 -128t121.5 -44q78 0 123 45t51 127h141q-11 -138 -96 -221.5t-219 -83.5zM1092 580v-78h-856q3 -187 102 -289t258 -102q127 0 211 73t108 187h168q-23 -182 -157 -293t-330 -111q-116 0 -211 35t-165 104
t-109 177.5t-39 248.5q0 261 143 409.5t377 148.5q221 0 360.5 -146t139.5 -364zM586 946q-147 0 -243.5 -86t-106.5 -244h688q-9 151 -98.5 240.5t-239.5 89.5z" />
    <glyph glyph-name="Edotaccent" unicode="&#x116;" horiz-adv-x="1189" 
d="M637 1608q-46 0 -78.5 32t-32.5 78t32.5 78.5t78.5 32.5t78.5 -32.5t32.5 -78.5t-32.5 -78t-78.5 -32zM1139 1434v-156h-834v-459h750v-155h-750v-508h823v-156h-995v1434h1006z" />
    <glyph glyph-name="edotaccent" unicode="&#x117;" horiz-adv-x="1163" 
d="M590 1231q-46 0 -78.5 32t-32.5 78t32.5 78.5t78.5 32.5t78 -32.5t32 -78.5t-32 -78t-78 -32zM1092 580v-78h-856q3 -187 102 -289t258 -102q127 0 211 73t108 187h168q-23 -182 -157 -293t-330 -111q-116 0 -211 35t-165 104t-109 177.5t-39 248.5q0 261 143 409.5
t377 148.5q221 0 360.5 -146t139.5 -364zM586 946q-147 0 -243.5 -86t-106.5 -244h688q-9 151 -98.5 240.5t-239.5 89.5z" />
    <glyph glyph-name="Eogonek" unicode="&#x118;" horiz-adv-x="1189" 
d="M1139 1434v-156h-834v-459h750v-155h-750v-508h823v-156q-213 -106 -213 -199q0 -49 34 -68.5t100 -19.5q21 0 79 4v-131q-74 -8 -104 -8q-128 0 -196 38.5t-68 131.5q0 82 82 148.5t217 95.5v8h-926v1434h1006z" />
    <glyph glyph-name="eogonek" unicode="&#x119;" horiz-adv-x="1163" 
d="M1092 580v-78h-856q3 -187 102 -289t258 -102q127 0 211 73t108 187h168q-17 -133 -95.5 -230.5t-201.5 -140.5q-208 -106 -208 -199q0 -49 36 -68.5t103 -19.5q20 0 74 4v-131q-47 -8 -103 -8q-58 0 -102 7t-83 24t-60 50t-21 81q0 74 70 138t182 85v8q-54 -4 -78 -4
q-116 0 -211 35t-165 104t-109 177.5t-39 248.5q0 261 143 409.5t377 148.5q221 0 360.5 -146t139.5 -364zM586 946q-147 0 -243.5 -86t-106.5 -244h688q-9 151 -98.5 240.5t-239.5 89.5z" />
    <glyph glyph-name="Ecaron" unicode="&#x11a;" horiz-adv-x="1189" 
d="M1014 1903l-275 -295h-204l-275 295h184l72 -76q87 -92 115 -131h12q37 53 117 135l69 72h185zM1139 1434v-156h-834v-459h750v-155h-750v-508h823v-156h-995v1434h1006z" />
    <glyph glyph-name="ecaron" unicode="&#x11b;" horiz-adv-x="1163" 
d="M967 1526l-275 -295h-205l-274 295h184l72 -76q87 -92 115 -131h12q37 53 117 135l69 72h185zM1092 580v-78h-856q3 -187 102 -289t258 -102q127 0 211 73t108 187h168q-23 -182 -157 -293t-330 -111q-116 0 -211 35t-165 104t-109 177.5t-39 248.5q0 261 143 409.5
t377 148.5q221 0 360.5 -146t139.5 -364zM586 946q-147 0 -243.5 -86t-106.5 -244h688q-9 151 -98.5 240.5t-239.5 89.5z" />
    <glyph glyph-name="Gbreve" unicode="&#x11e;" horiz-adv-x="1556" 
d="M778 1608q-137 0 -223 83.5t-92 221.5h141q6 -84 52.5 -128t121.5 -44q78 0 123 45t51 127h142q-11 -138 -96.5 -221.5t-219.5 -83.5zM1260 315h-13q-129 -348 -508 -348q-129 0 -238 38.5t-187.5 107.5t-133.5 163t-81.5 205.5t-26.5 235.5q0 120 24.5 227.5t79.5 204
t136 166t201 110.5t267 41q119 0 220.5 -31.5t172.5 -84t124.5 -122.5t82.5 -144.5t39 -153.5h-180q-16 78 -52 145t-92 119.5t-137.5 82.5t-179.5 30q-115 0 -206.5 -33t-151.5 -88.5t-100 -132.5t-57 -160t-17 -176q0 -92 17.5 -175.5t58 -160t101.5 -132.5t154 -89
t209 -33q103 0 195 36.5t155 96t99.5 135.5t36.5 154v33h-572v155h744v-737h-166z" />
    <glyph glyph-name="gbreve" unicode="&#x11f;" horiz-adv-x="1136" 
d="M563 1231q-137 0 -223 83.5t-92 221.5h141q6 -84 52.5 -128t121.5 -44q78 0 123 45t51 127h142q-11 -138 -96.5 -221.5t-219.5 -83.5zM1096 1190v-158l-369 47l-2 -10q121 -34 188.5 -120.5t67.5 -205.5q0 -158 -112.5 -256t-305.5 -98q-106 0 -188 31
q-113 -26 -113 -121q0 -51 43.5 -83t108.5 -32l278 -2q88 -1 155 -15.5t121.5 -47.5t83.5 -92.5t29 -143.5q0 -157 -131 -238t-381 -81q-259 0 -383.5 72.5t-124.5 199.5q0 64 38.5 108.5t93.5 64t126 26.5v8q-99 13 -154.5 69t-55.5 130q0 93 65 138.5t156 47.5v10
q-89 46 -137 125t-48 180q0 303 408 357q204 26 543 90zM813 743q0 89 -66 146t-184 57t-184 -57t-66 -146q0 -94 66 -152.5t184 -58.5t184 58.5t66 152.5zM713 39h-316q-88 -22 -134 -64t-46 -100q0 -168 352 -168q185 0 265.5 45t80.5 129q0 79 -49 118.5t-153 39.5z" />
    <glyph glyph-name="Gdotaccent" unicode="&#x120;" horiz-adv-x="1556" 
d="M778 1608q-46 0 -78 32t-32 78t32 78.5t78 32.5t78.5 -32.5t32.5 -78.5t-32.5 -78t-78.5 -32zM1260 315h-13q-129 -348 -508 -348q-129 0 -238 38.5t-187.5 107.5t-133.5 163t-81.5 205.5t-26.5 235.5q0 120 24.5 227.5t79.5 204t136 166t201 110.5t267 41
q119 0 220.5 -31.5t172.5 -84t124.5 -122.5t82.5 -144.5t39 -153.5h-180q-16 78 -52 145t-92 119.5t-137.5 82.5t-179.5 30q-115 0 -206.5 -33t-151.5 -88.5t-100 -132.5t-57 -160t-17 -176q0 -92 17.5 -175.5t58 -160t101.5 -132.5t154 -89t209 -33q103 0 195 36.5t155 96
t99.5 135.5t36.5 154v33h-572v155h744v-737h-166z" />
    <glyph glyph-name="gdotaccent" unicode="&#x121;" horiz-adv-x="1136" 
d="M563 1231q-46 0 -78 32t-32 78t32 78.5t78 32.5t78.5 -32.5t32.5 -78.5t-32.5 -78t-78.5 -32zM1096 1190v-158l-369 47l-2 -10q121 -34 188.5 -120.5t67.5 -205.5q0 -158 -112.5 -256t-305.5 -98q-106 0 -188 31q-113 -26 -113 -121q0 -51 43.5 -83t108.5 -32l278 -2
q88 -1 155 -15.5t121.5 -47.5t83.5 -92.5t29 -143.5q0 -157 -131 -238t-381 -81q-259 0 -383.5 72.5t-124.5 199.5q0 64 38.5 108.5t93.5 64t126 26.5v8q-99 13 -154.5 69t-55.5 130q0 93 65 138.5t156 47.5v10q-89 46 -137 125t-48 180q0 303 408 357q204 26 543 90z
M813 743q0 89 -66 146t-184 57t-184 -57t-66 -146q0 -94 66 -152.5t184 -58.5t184 58.5t66 152.5zM713 39h-316q-88 -22 -134 -64t-46 -100q0 -168 352 -168q185 0 265.5 45t80.5 129q0 79 -49 118.5t-153 39.5z" />
    <glyph glyph-name="uni0122" unicode="&#x122;" horiz-adv-x="1556" 
d="M1260 315h-13q-129 -348 -508 -348q-129 0 -238 38.5t-187.5 107.5t-133.5 163t-81.5 205.5t-26.5 235.5q0 120 24.5 227.5t79.5 204t136 166t201 110.5t267 41q119 0 220.5 -31.5t172.5 -84t124.5 -122.5t82.5 -144.5t39 -153.5h-180q-16 78 -52 145t-92 119.5
t-137.5 82.5t-179.5 30q-115 0 -206.5 -33t-151.5 -88.5t-100 -132.5t-57 -160t-17 -176q0 -92 17.5 -175.5t58 -160t101.5 -132.5t154 -89t209 -33q103 0 195 36.5t155 96t99.5 135.5t36.5 154v33h-572v155h744v-737h-166zM709 -514h-125l106 340h174z" />
    <glyph glyph-name="uni0123" unicode="&#x123;" horiz-adv-x="1136" 
d="M606 1571h174l-155 -340h-125zM1096 1190v-158l-369 47l-2 -10q121 -34 188.5 -120.5t67.5 -205.5q0 -158 -112.5 -256t-305.5 -98q-106 0 -188 31q-113 -26 -113 -121q0 -51 43.5 -83t108.5 -32l278 -2q88 -1 155 -15.5t121.5 -47.5t83.5 -92.5t29 -143.5
q0 -157 -131 -238t-381 -81q-259 0 -383.5 72.5t-124.5 199.5q0 64 38.5 108.5t93.5 64t126 26.5v8q-99 13 -154.5 69t-55.5 130q0 93 65 138.5t156 47.5v10q-89 46 -137 125t-48 180q0 303 408 357q204 26 543 90zM813 743q0 89 -66 146t-184 57t-184 -57t-66 -146
q0 -94 66 -152.5t184 -58.5t184 58.5t66 152.5zM713 39h-316q-88 -22 -134 -64t-46 -100q0 -168 352 -168q185 0 265.5 45t80.5 129q0 79 -49 118.5t-153 39.5z" />
    <glyph glyph-name="Hbar" unicode="&#x126;" horiz-adv-x="1501" 
d="M1327 1204h174v-102h-174v-1102h-172v645h-809v-645h-172v1102h-174v102h174v230h172v-230h809v230h172v-230zM346 801h809v301h-809v-301z" />
    <glyph glyph-name="hbar" unicode="&#x127;" horiz-adv-x="1222" 
d="M719 1090q171 0 276 -107t105 -281v-702h-164v649q0 130 -77.5 209.5t-205.5 79.5q-145 0 -233 -108t-88 -285v-545h-166v1186h-146v94h146v154h166v-154h327v-94h-327v-436h12q20 154 123 247t252 93z" />
    <glyph glyph-name="Imacron" unicode="&#x12a;" horiz-adv-x="438" 
d="M516 1608h-594v137h594v-137zM133 0v1434h172v-1434h-172z" />
    <glyph glyph-name="imacron" unicode="&#x12b;" horiz-adv-x="403" 
d="M496 1231h-594v137h594v-137zM119 0v1057h164v-1057h-164z" />
    <glyph glyph-name="Iogonek" unicode="&#x12e;" horiz-adv-x="438" 
d="M283 -289q17 0 53 4v-129q-38 -6 -70 -6q-104 0 -160.5 49.5t-56.5 141.5q0 69 51.5 128t151.5 93v8h-119v1434h172v-1434q-127 -94 -127 -197q0 -52 26.5 -72t78.5 -20z" />
    <glyph glyph-name="iogonek" unicode="&#x12f;" horiz-adv-x="403" 
d="M199 1231q-46 0 -78.5 32t-32.5 78t32.5 78.5t78.5 32.5t78 -32.5t32 -78.5t-32 -78t-78 -32zM260 -289q17 0 53 4v-129q-38 -6 -69 -6q-104 0 -160.5 49.5t-56.5 141.5q0 69 51 128t151 93v8h-110v1057h164v-1057q-127 -94 -127 -197q0 -52 26 -72t78 -20z" />
    <glyph glyph-name="Idotaccent" unicode="&#x130;" horiz-adv-x="438" 
d="M219 1608q-46 0 -78 32t-32 78t32 78.5t78 32.5t78.5 -32.5t32.5 -78.5t-32.5 -78t-78.5 -32zM133 0v1434h172v-1434h-172z" />
    <glyph glyph-name="dotlessi" unicode="&#x131;" horiz-adv-x="403" 
d="M119 0v1057h164v-1057h-164z" />
    <glyph glyph-name="uni0136" unicode="&#x136;" horiz-adv-x="1345" 
d="M678 842l2 -8h22q155 0 242.5 -57t132.5 -179l228 -598h-179l-188 504q-41 111 -93 146.5t-157 35.5h-156l-227 -237v-449h-172v1434h172l-8 -777l10 -2q119 139 393 426l336 353h213l-340 -355q-114 -120 -231 -237zM604 -514h-125l107 340h174z" />
    <glyph glyph-name="uni0137" unicode="&#x137;" horiz-adv-x="1075" 
d="M287 0h-164v1434h164v-545q0 -131 -4 -389l8 -2q16 23 32.5 43.5t35 41.5t30.5 34.5t34 35t30.5 29.5t33.5 31.5t31 29.5l338 314h209l-217 -201q-218 -204 -258 -229v-6h43q122 0 190.5 -57t102.5 -158l139 -406h-168l-115 328q-32 90 -70 123.5t-120 33.5h-141
l-164 -151v-334zM518 -514h-125l107 340h174z" />
    <glyph glyph-name="Lacute" unicode="&#x139;" horiz-adv-x="1097" 
d="M743 1972l62 -133l-567 -246l-50 109zM305 1434v-1278h752v-156h-924v1434h172z" />
    <glyph glyph-name="lacute" unicode="&#x13a;" horiz-adv-x="401" 
d="M684 1839l-567 -246l-49 109l555 270zM119 0v1434h164v-1434h-164z" />
    <glyph glyph-name="uni013B" unicode="&#x13b;" horiz-adv-x="1097" 
d="M305 1434v-1278h752v-156h-924v1434h172zM557 -514h-125l107 340h174z" />
    <glyph glyph-name="uni013C" unicode="&#x13c;" horiz-adv-x="401" 
d="M119 0v1434h164v-1434h-164zM115 -514h-125l106 340h174z" />
    <glyph glyph-name="Lcaron" unicode="&#x13d;" horiz-adv-x="1097" 
d="M305 1434v-1278h752v-156h-924v1434h172zM532 1430h181l-144 -566h-114z" />
    <glyph glyph-name="lcaron" unicode="&#x13e;" horiz-adv-x="626" 
d="M119 0v1434h164v-1434h-164zM494 864h-115l78 566h180z" />
    <glyph glyph-name="Lslash" unicode="&#x141;" horiz-adv-x="1132" 
d="M340 797v-641h752v-156h-924v719l-168 -76v115l168 76v600h172v-523l387 174v-114z" />
    <glyph glyph-name="lslash" unicode="&#x142;" horiz-adv-x="509" 
d="M334 817l176 98v-108l-176 -98v-709h-164v616l-170 -96v109l170 96v709h164v-617z" />
    <glyph glyph-name="Nacute" unicode="&#x143;" horiz-adv-x="1437" 
d="M1243 1839l-567 -246l-49 109l555 270zM303 1188l-8 -2q10 -209 10 -590v-596h-172v1434h207l530 -791q15 -22 112 -167t153 -232l8 2q-10 207 -10 459v729h172v-1434h-209l-457 680q-247 366 -336 508z" />
    <glyph glyph-name="nacute" unicode="&#x144;" horiz-adv-x="1179" 
d="M1012 1595l61 -133l-567 -245l-49 108zM676 1090q171 0 276 -107t105 -281v-702h-164v649q0 130 -77.5 209.5t-205.5 79.5q-145 0 -233 -108t-88 -285v-545h-166v1057h156l10 -307h12q20 154 123 247t252 93z" />
    <glyph glyph-name="uni0145" unicode="&#x145;" horiz-adv-x="1437" 
d="M303 1188l-8 -2q10 -209 10 -590v-596h-172v1434h207l530 -791q15 -22 112 -167t153 -232l8 2q-10 207 -10 459v729h172v-1434h-209l-457 680q-247 366 -336 508zM625 -514h-125l106 340h174z" />
    <glyph glyph-name="uni0146" unicode="&#x146;" horiz-adv-x="1179" 
d="M676 1090q171 0 276 -107t105 -281v-702h-164v649q0 130 -77.5 209.5t-205.5 79.5q-145 0 -233 -108t-88 -285v-545h-166v1057h156l10 -307h12q20 154 123 247t252 93zM561 -514h-125l107 340h174z" />
    <glyph glyph-name="Ncaron" unicode="&#x147;" horiz-adv-x="1437" 
d="M657 1608l-274 295h184l72 -76q87 -92 115 -131h12q37 53 117 135l69 72h185l-275 -295h-205zM303 1188l-8 -2q10 -209 10 -590v-596h-172v1434h207l530 -791q15 -22 112 -167t153 -232l8 2q-10 207 -10 459v729h172v-1434h-209l-457 680q-247 366 -336 508z" />
    <glyph glyph-name="ncaron" unicode="&#x148;" horiz-adv-x="1179" 
d="M967 1526l-275 -295h-205l-274 295h184l72 -76q87 -92 115 -131h12q37 53 117 135l69 72h185zM676 1090q171 0 276 -107t105 -281v-702h-164v649q0 130 -77.5 209.5t-205.5 79.5q-145 0 -233 -108t-88 -285v-545h-166v1057h156l10 -307h12q20 154 123 247t252 93z" />
    <glyph glyph-name="Eng" unicode="&#x14a;" horiz-adv-x="1437" 
d="M305 0h-172v1434h207l530 -791q15 -22 112 -167t153 -232l8 2q-10 207 -10 459v729h172v-1434q0 -195 -112 -300.5t-306 -105.5q-77 0 -148 5v163q66 -4 95 -4q138 0 200 50t62 186v6l-457 680q-247 366 -336 508l-8 -2q10 -209 10 -590v-596z" />
    <glyph glyph-name="eng" unicode="&#x14b;" horiz-adv-x="1179" 
d="M289 0h-166v1057h156l10 -307h12q20 154 123 247t252 93q171 0 276 -107t105 -281v-890q0 -220 -244 -220q-115 0 -129 2v144q54 -3 109 0q51 3 75.5 24.5t24.5 65.5v821q0 130 -77.5 209.5t-205.5 79.5q-145 0 -233 -108t-88 -285v-545z" />
    <glyph glyph-name="Omacron" unicode="&#x14c;" horiz-adv-x="1544" 
d="M1151 1608h-758v137h758v-137zM772 -33q-202 0 -360.5 91.5t-249 264.5t-90.5 400q0 168 52.5 308t145 235t222 147.5t280.5 52.5t280.5 -52.5t222.5 -147.5t145.5 -235t52.5 -308q0 -171 -52.5 -313t-145.5 -239t-222.5 -150.5t-280.5 -53.5zM772 127q229 0 376.5 163
t147.5 433q0 265 -147.5 424.5t-376.5 159.5t-376.5 -159.5t-147.5 -424.5q0 -270 147.5 -433t376.5 -163z" />
    <glyph glyph-name="omacron" unicode="&#x14d;" horiz-adv-x="1245" 
d="M920 1231h-594v137h594v-137zM623 -33q-146 0 -270.5 67.5t-202.5 198.5t-78 299q0 165 78 294t202.5 196.5t270.5 67.5t270.5 -67.5t202.5 -196.5t78 -294q0 -168 -78 -299t-202.5 -198.5t-270.5 -67.5zM623 115q171 0 277 112.5t106 304.5q0 188 -106 299t-277 111
t-277 -111t-106 -299q0 -192 106 -304.5t277 -112.5z" />
    <glyph glyph-name="Ohungarumlaut" unicode="&#x150;" horiz-adv-x="1544" 
d="M915 1888l-251 -295l-99 70l201 328zM1239 1888l-252 -295l-98 70l201 328zM772 -33q-202 0 -360.5 91.5t-249 264.5t-90.5 400q0 168 52.5 308t145 235t222 147.5t280.5 52.5t280.5 -52.5t222.5 -147.5t145.5 -235t52.5 -308q0 -171 -52.5 -313t-145.5 -239
t-222.5 -150.5t-280.5 -53.5zM772 127q229 0 376.5 163t147.5 433q0 265 -147.5 424.5t-376.5 159.5t-376.5 -159.5t-147.5 -424.5q0 -270 147.5 -433t376.5 -163z" />
    <glyph glyph-name="ohungarumlaut" unicode="&#x151;" horiz-adv-x="1245" 
d="M766 1511l-252 -294l-98 69l200 328zM1090 1511l-252 -294l-99 69l201 328zM623 -33q-146 0 -270.5 67.5t-202.5 198.5t-78 299q0 165 78 294t202.5 196.5t270.5 67.5t270.5 -67.5t202.5 -196.5t78 -294q0 -168 -78 -299t-202.5 -198.5t-270.5 -67.5zM623 115
q171 0 277 112.5t106 304.5q0 188 -106 299t-277 111t-277 -111t-106 -299q0 -192 106 -304.5t277 -112.5z" />
    <glyph glyph-name="OE" unicode="&#x152;" horiz-adv-x="2357" 
d="M772 -33q-202 0 -360.5 91.5t-249 264.5t-90.5 400q0 168 52.5 308t145 235t222 147.5t280.5 52.5q199 0 363 -96q88 -52 155 -151l10 4v211h1006v-156h-833v-459h749v-155h-749v-508h823v-156h-996v211l-10 4q-69 -91 -110 -121q-175 -127 -408 -127zM772 127
q229 0 376.5 163t147.5 433q0 265 -147.5 424.5t-376.5 159.5t-376.5 -159.5t-147.5 -424.5q0 -270 147.5 -433t376.5 -163z" />
    <glyph glyph-name="oe" unicode="&#x153;" horiz-adv-x="2101" 
d="M623 -33q-146 0 -270.5 67.5t-202.5 198.5t-78 299q0 165 78 294t202.5 196.5t270.5 67.5q138 0 259.5 -65t196.5 -187h8q65 125 179.5 188.5t263.5 63.5q221 0 360.5 -146t139.5 -364v-78h-856q3 -187 102 -289t258 -102q129 0 213.5 73t105.5 187h168
q-23 -182 -157 -293t-330 -111q-314 0 -440 252h-13q-74 -123 -196.5 -187.5t-261.5 -64.5zM1174 616h688q-9 151 -98.5 240.5t-239.5 89.5q-147 0 -243.5 -86t-106.5 -244zM623 115q171 0 277 112.5t106 304.5q0 188 -106 299t-277 111t-277 -111t-106 -299
q0 -192 106 -304.5t277 -112.5z" />
    <glyph glyph-name="Racute" unicode="&#x154;" horiz-adv-x="1302" 
d="M1073 1972l62 -133l-568 -246l-49 109zM1165 430l86 -430h-176l-71 383q-22 118 -75.5 157.5t-189.5 39.5h-434v-580h-172v1434h612q213 0 343.5 -100t130.5 -263q0 -149 -94 -248.5t-248 -111.5v-13q137 -9 199 -70t89 -198zM305 735h430q139 0 224 77.5t85 203.5
q0 118 -84.5 190t-224.5 72h-430v-543z" />
    <glyph glyph-name="racute" unicode="&#x155;" horiz-adv-x="765" 
d="M815 1595l62 -133l-568 -245l-49 108zM287 657h8q35 223 138.5 319.5t301.5 96.5v-147q-246 -15 -347 -142.5t-101 -406.5v-377h-164v1057h158z" />
    <glyph glyph-name="uni0156" unicode="&#x156;" horiz-adv-x="1302" 
d="M1165 430l86 -430h-176l-71 383q-22 118 -75.5 157.5t-189.5 39.5h-434v-580h-172v1434h612q213 0 343.5 -100t130.5 -263q0 -149 -94 -248.5t-248 -111.5v-13q137 -9 199 -70t89 -198zM305 735h430q139 0 224 77.5t85 203.5q0 118 -84.5 190t-224.5 72h-430v-543z
M629 -514h-125l106 340h174z" />
    <glyph glyph-name="uni0157" unicode="&#x157;" horiz-adv-x="765" 
d="M287 657h8q35 223 138.5 319.5t301.5 96.5v-147q-246 -15 -347 -142.5t-101 -406.5v-377h-164v1057h158zM135 -514h-125l107 340h174z" />
    <glyph glyph-name="Rcaron" unicode="&#x158;" horiz-adv-x="1302" 
d="M1028 1903l-274 -295h-205l-275 295h185l71 -76q87 -92 115 -131h12q37 53 117 135l70 72h184zM1165 430l86 -430h-176l-71 383q-22 118 -75.5 157.5t-189.5 39.5h-434v-580h-172v1434h612q213 0 343.5 -100t130.5 -263q0 -149 -94 -248.5t-248 -111.5v-13
q137 -9 199 -70t89 -198zM305 735h430q139 0 224 77.5t85 203.5q0 118 -84.5 190t-224.5 72h-430v-543z" />
    <glyph glyph-name="rcaron" unicode="&#x159;" horiz-adv-x="765" 
d="M770 1526l-274 -295h-205l-275 295h185l71 -76q87 -92 115 -131h12q37 53 117 135l70 72h184zM287 657h8q35 223 138.5 319.5t301.5 96.5v-147q-246 -15 -347 -142.5t-101 -406.5v-377h-164v1057h158z" />
    <glyph glyph-name="Sacute" unicode="&#x15a;" horiz-adv-x="1318" 
d="M1143 1839l-568 -246l-49 109l555 270zM682 -33q-282 0 -451.5 133.5t-169.5 354.5l179 -2q0 -149 120.5 -237.5t321.5 -88.5q186 0 297 70.5t111 189.5q0 76 -51 128t-148 75l-397 92q-385 89 -385 397q0 177 151 280t410 105q268 1 425.5 -131.5t157.5 -359.5h-178
q0 154 -108.5 243t-296.5 89q-176 0 -279.5 -63t-103.5 -169q0 -160 254 -221l374 -90q59 -14 106 -31.5t95 -47.5t80 -69t52 -97t20 -130q0 -191 -159.5 -305.5t-426.5 -114.5z" />
    <glyph glyph-name="sacute" unicode="&#x15b;" horiz-adv-x="1013" 
d="M983 1462l-567 -245l-49 108l555 270zM535 -33q-222 0 -349.5 97t-138.5 272h168q11 -109 93 -167t227 -58q125 0 197.5 46.5t72.5 125.5q0 57 -34 89.5t-114 51.5l-311 72q-128 29 -200 98.5t-72 179.5q0 146 116 231t316 85q211 0 334 -99.5t123 -269.5h-168
q0 104 -77.5 164.5t-211.5 60.5q-123 0 -195.5 -45t-72.5 -121q0 -51 39.5 -89.5t107.5 -53.5l305 -70q150 -34 216.5 -98t66.5 -180q0 -148 -118.5 -235t-319.5 -87z" />
    <glyph glyph-name="Scedilla" unicode="&#x15e;" horiz-adv-x="1318" 
d="M723 -33q-19 -43 -78 -59v-6h17q82 0 133 -44t51 -106q0 -190 -281 -190q-23 0 -125 4v96q47 -2 119 -2q57 0 93 22.5t36 65.5q0 33 -30 52t-70 20.5t-80 -2.5v78q66 23 82 75q-244 22 -386.5 152t-142.5 332l179 -2q0 -149 120.5 -237.5t321.5 -88.5q186 0 297 70.5
t111 189.5q0 76 -51 128t-148 75l-397 92q-385 89 -385 397q0 177 151 280t410 105q268 1 425.5 -131.5t157.5 -359.5h-178q0 154 -108.5 243t-296.5 89q-176 0 -279.5 -63t-103.5 -169q0 -160 254 -221l374 -90q59 -14 106 -31.5t95 -47.5t80 -69t52 -97t20 -130
q0 -183 -148 -297t-397 -123z" />
    <glyph glyph-name="scedilla" unicode="&#x15f;" horiz-adv-x="1013" 
d="M573 -33q-19 -44 -77 -59v-6h16q82 0 133 -44t51 -106q0 -190 -280 -190q-23 0 -125 4v96q47 -2 119 -2q57 0 93 22.5t36 65.5q0 33 -30 52t-70.5 20.5t-80.5 -2.5v78q65 22 82 75q-180 20 -282 115t-111 250h168q11 -109 93 -167t227 -58q125 0 197.5 46.5t72.5 125.5
q0 57 -34 89.5t-114 51.5l-311 72q-128 29 -200 98.5t-72 179.5q0 146 116 231t316 85q211 0 334 -99.5t123 -269.5h-168q0 104 -77.5 164.5t-211.5 60.5q-123 0 -195.5 -45t-72.5 -121q0 -51 39.5 -89.5t107.5 -53.5l305 -70q150 -34 216.5 -98t66.5 -180
q0 -140 -108 -226.5t-292 -95.5z" />
    <glyph glyph-name="Scaron" unicode="&#x160;" horiz-adv-x="1318" 
d="M557 1608l-274 295h184l72 -76q84 -88 114 -131h13q39 56 116 135l70 72h184l-274 -295h-205zM682 -33q-282 0 -451.5 133.5t-169.5 354.5l179 -2q0 -149 120.5 -237.5t321.5 -88.5q186 0 297 70.5t111 189.5q0 76 -51 128t-148 75l-397 92q-385 89 -385 397
q0 177 151 280t410 105q268 1 425.5 -131.5t157.5 -359.5h-178q0 154 -108.5 243t-296.5 89q-176 0 -279.5 -63t-103.5 -169q0 -160 254 -221l374 -90q59 -14 106 -31.5t95 -47.5t80 -69t52 -97t20 -130q0 -191 -159.5 -305.5t-426.5 -114.5z" />
    <glyph glyph-name="scaron" unicode="&#x161;" horiz-adv-x="1013" 
d="M397 1231l-274 295h184l72 -76q87 -92 115 -131h12q37 53 117 135l69 72h185l-275 -295h-205zM535 -33q-222 0 -349.5 97t-138.5 272h168q11 -109 93 -167t227 -58q125 0 197.5 46.5t72.5 125.5q0 57 -34 89.5t-114 51.5l-311 72q-128 29 -200 98.5t-72 179.5
q0 146 116 231t316 85q211 0 334 -99.5t123 -269.5h-168q0 104 -77.5 164.5t-211.5 60.5q-123 0 -195.5 -45t-72.5 -121q0 -51 39.5 -89.5t107.5 -53.5l305 -70q150 -34 216.5 -98t66.5 -180q0 -148 -118.5 -235t-319.5 -87z" />
    <glyph glyph-name="uni0162" unicode="&#x162;" horiz-adv-x="1241" 
d="M707 0h-17q0 -26 -19 -53t-65 -39v-6h17q82 0 133 -44t51 -106q0 -190 -281 -190q-23 0 -125 4v96q47 -2 119 -2q57 0 93 22.5t36 65.5q0 33 -30 52t-70 20.5t-80 -2.5v78q86 31 86 104h-20v1278h-494v156h1159v-156h-493v-1278z" />
    <glyph glyph-name="uni0163" unicode="&#x163;" horiz-adv-x="724" 
d="M674 1057v-123h-291v-662q0 -83 35.5 -110t120.5 -27q55 0 135 6v-145q-86 -6 -150 -6q-9 -62 -84 -82v-6h17q82 0 133 -44t51 -106q0 -190 -281 -190q-22 0 -124 4v96q47 -2 118 -2q57 0 93 22.5t36 65.5q0 33 -30 52t-70 20.5t-80 -2.5v78q86 31 86 104
q-93 17 -131.5 75.5t-38.5 186.5v672h-188v123h188v276h158l6 -276h291z" />
    <glyph glyph-name="Tcaron" unicode="&#x164;" horiz-adv-x="1241" 
d="M997 1903l-274 -295h-205l-274 295h184l72 -76q84 -88 114 -131h13q39 56 116 135l70 72h184zM1200 1434v-156h-493v-1278h-172v1278h-494v156h1159z" />
    <glyph glyph-name="tcaron" unicode="&#x165;" horiz-adv-x="724" 
d="M545 1556h180l-143 -421h-115zM219 1333h158l6 -276h291v-123h-291v-662q0 -83 35.5 -110t120.5 -27q55 0 135 6v-145q-86 -6 -152 -6q-89 0 -143 11t-92 41.5t-53 83t-15 136.5v672h-188v123h188v276z" />
    <glyph glyph-name="Tbar" unicode="&#x166;" horiz-adv-x="1241" 
d="M1200 1434v-156h-493v-500h313v-102h-313v-676h-172v676h-314v102h314v500h-494v156h1159z" />
    <glyph glyph-name="tbar" unicode="&#x167;" horiz-adv-x="724" 
d="M674 1057v-123h-291v-328h291v-94h-291v-240q0 -83 35.5 -110t120.5 -27q55 0 135 6v-145q-86 -6 -152 -6q-89 0 -143 11t-92 41.5t-53 83t-15 136.5v250h-188v94h188v328h-188v123h188v276h158l6 -276h291z" />
    <glyph glyph-name="Umacron" unicode="&#x16a;" horiz-adv-x="1384" 
d="M1071 1608h-758v137h758v-137zM113 551v883h170v-883q0 -202 103.5 -315t305.5 -113t306 113.5t104 314.5v883h170v-883q0 -272 -151 -428t-429 -156t-428.5 156t-150.5 428z" />
    <glyph glyph-name="umacron" unicode="&#x16b;" horiz-adv-x="1179" 
d="M297 1368h594v-137h-594v137zM891 512v545h166v-1057h-156l-10 307h-12q-20 -154 -123 -247t-252 -93q-171 0 -276 106.5t-105 280.5v703h164v-649q0 -131 77.5 -210t204.5 -79q145 0 233.5 108t88.5 285z" />
    <glyph glyph-name="Uring" unicode="&#x16e;" horiz-adv-x="1384" 
d="M692 1315q-117 0 -188.5 63t-71.5 166t71.5 166.5t188.5 63.5t188.5 -63.5t71.5 -166.5t-71.5 -166t-188.5 -63zM692 1434q60 0 96.5 30t36.5 80t-36.5 80.5t-96.5 30.5t-96.5 -30.5t-36.5 -80.5t36.5 -80t96.5 -30zM113 551v883h170v-883q0 -202 103.5 -315t305.5 -113
t306 113.5t104 314.5v883h170v-883q0 -272 -151 -428t-429 -156t-428.5 156t-150.5 428z" />
    <glyph glyph-name="uring" unicode="&#x16f;" horiz-adv-x="1179" 
d="M594 1231q-117 0 -188.5 63t-71.5 166t71.5 166.5t188.5 63.5t188.5 -63.5t71.5 -166.5t-71.5 -166t-188.5 -63zM594 1571q-60 0 -96.5 -30.5t-36.5 -80.5t36.5 -80t96.5 -30t96.5 30t36.5 80t-36.5 80.5t-96.5 30.5zM891 512v545h166v-1057h-156l-10 307h-12
q-20 -154 -123 -247t-252 -93q-171 0 -276 106.5t-105 280.5v703h164v-649q0 -131 77.5 -210t204.5 -79q145 0 233.5 108t88.5 285z" />
    <glyph glyph-name="Uhungarumlaut" unicode="&#x170;" horiz-adv-x="1384" 
d="M836 1888l-252 -295l-99 70l201 328zM1159 1888l-252 -295l-98 70l201 328zM113 551v883h170v-883q0 -202 103.5 -315t305.5 -113t306 113.5t104 314.5v883h170v-883q0 -272 -151 -428t-429 -156t-428.5 156t-150.5 428z" />
    <glyph glyph-name="uhungarumlaut" unicode="&#x171;" horiz-adv-x="1179" 
d="M588 1614l149 -103l-252 -294l-98 69zM1061 1511l-252 -294l-98 69l200 328zM891 512v545h166v-1057h-156l-10 307h-12q-20 -154 -123 -247t-252 -93q-171 0 -276 106.5t-105 280.5v703h164v-649q0 -131 77.5 -210t204.5 -79q145 0 233.5 108t88.5 285z" />
    <glyph glyph-name="Uogonek" unicode="&#x172;" horiz-adv-x="1384" 
d="M1102 551v883h170v-883q0 -234 -112.5 -383.5t-323.5 -187.5q-172 -91 -172 -179q0 -49 36 -68.5t103 -19.5q20 0 74 4v-131q-47 -8 -103 -8q-58 0 -102 7t-83 24t-60 50t-21 81q0 74 70 138t182 85v6q-23 -2 -68 -2q-278 0 -428.5 156t-150.5 428v883h170v-883
q0 -202 103.5 -315t305.5 -113t306 113.5t104 314.5z" />
    <glyph glyph-name="uogonek" unicode="&#x173;" horiz-adv-x="1179" 
d="M1057 1057v-1057q-213 -106 -213 -199q0 -49 34 -68.5t99 -19.5q22 0 80 4v-131q-74 -8 -105 -8q-128 0 -196 38.5t-68 131.5q0 82 82 148.5t217 95.5v8h-86l-10 307h-12q-20 -154 -123 -247t-252 -93q-171 0 -276 106.5t-105 280.5v703h164v-649q0 -131 77.5 -210
t204.5 -79q145 0 233.5 108t88.5 285v545h166z" />
    <glyph glyph-name="Wcircumflex" unicode="&#x174;" horiz-adv-x="1998" 
d="M807 1608h-184l274 295h205l274 -295h-184l-70 71q-74 76 -116 136h-13q-33 -47 -114 -132zM659 0h-206l-422 1434h184l66 -230q24 -86 123 -434.5t149 -536.5h12q50 187 149 531.5t130 456.5l59 213h193l59 -213q31 -112 130 -456.5t149 -531.5h12q53 201 272 971
l66 230h184l-422 -1434h-207l-333 1169h-13z" />
    <glyph glyph-name="wcircumflex" unicode="&#x175;" horiz-adv-x="1652" 
d="M635 1231h-184l274 295h205l274 -295h-184l-70 72q-77 79 -116 135h-13q-30 -43 -114 -131zM561 0h-160l-391 1057h174l138 -377q15 -42 50 -138.5t60.5 -168.5t52.5 -156h9q33 111 83 275.5t58 189.5l115 375h155l115 -375q8 -25 58 -189.5t83 -275.5h8
q27 83 53.5 157.5t59.5 165t51 140.5l137 377h175l-392 -1057h-159l-263 852h-8z" />
    <glyph glyph-name="Ycircumflex" unicode="&#x176;" horiz-adv-x="1327" 
d="M545 1683l-72 -75h-184l274 295h205l274 -295h-184l-70 71q-74 76 -116 136h-13q-33 -47 -114 -132zM1104 1434h192l-546 -850v-584h-172v582l-547 852h194l162 -256q211 -340 272 -447h13q97 168 270 443z" />
    <glyph glyph-name="ycircumflex" unicode="&#x177;" horiz-adv-x="1036" 
d="M332 1231h-185l275 295h205l274 -295h-184l-70 72q-80 82 -117 135h-12q-28 -39 -115 -131zM504 186h8q47 126 133.5 345.5t112.5 287.5l88 238h180l-438 -1071q-49 -117 -94 -187t-107.5 -114t-140 -58.5t-193.5 -9.5v154q59 -5 105 -0.5t79 13t61 33t51 60t50 92.5
l17 35l-406 1053h183l88 -244q204 -571 223 -627z" />
    <glyph glyph-name="Ydieresis" unicode="&#x178;" horiz-adv-x="1327" 
d="M485 1608q-46 0 -78 32t-32 78t32 78.5t78 32.5t78.5 -32.5t32.5 -78.5t-32.5 -78t-78.5 -32zM846 1608q-46 0 -78.5 32t-32.5 78t32.5 78.5t78.5 32.5t78 -32.5t32 -78.5t-32 -78t-78 -32zM1104 1434h192l-546 -850v-584h-172v582l-547 852h194l162 -256
q211 -340 272 -447h13q97 168 270 443z" />
    <glyph glyph-name="Zacute" unicode="&#x179;" horiz-adv-x="1239" 
d="M1122 1839l-567 -246l-49 109l555 270zM1188 0h-1137v156l905 1122l-4 10q-235 -10 -549 -10h-319v156h1094v-152l-912 -1126l4 -11q236 11 389 11h529v-156z" />
    <glyph glyph-name="zacute" unicode="&#x17a;" horiz-adv-x="1034" 
d="M1004 1462l-568 -245l-49 108l555 270zM952 0h-880v123l690 788l-4 9q-109 -7 -383 -7h-275v144h863v-125l-682 -789l4 -8q159 8 372 8h295v-143z" />
    <glyph glyph-name="Zdotaccent" unicode="&#x17b;" horiz-adv-x="1239" 
d="M639 1608q-46 0 -78.5 32t-32.5 78t32.5 78.5t78.5 32.5t78.5 -32.5t32.5 -78.5t-32.5 -78t-78.5 -32zM1188 0h-1137v156l905 1122l-4 10q-235 -10 -549 -10h-319v156h1094v-152l-912 -1126l4 -11q236 11 389 11h529v-156z" />
    <glyph glyph-name="zdotaccent" unicode="&#x17c;" horiz-adv-x="1034" 
d="M520 1231q-46 0 -78 32t-32 78t32 78.5t78 32.5t78.5 -32.5t32.5 -78.5t-32.5 -78t-78.5 -32zM952 0h-880v123l690 788l-4 9q-109 -7 -383 -7h-275v144h863v-125l-682 -789l4 -8q159 8 372 8h295v-143z" />
    <glyph glyph-name="Zcaron" unicode="&#x17d;" horiz-adv-x="1239" 
d="M537 1608l-275 295h184l72 -76q87 -92 115 -131h12q37 53 117 135l69 72h185l-275 -295h-204zM1188 0h-1137v156l905 1122l-4 10q-235 -10 -549 -10h-319v156h1094v-152l-912 -1126l4 -11q236 11 389 11h529v-156z" />
    <glyph glyph-name="zcaron" unicode="&#x17e;" horiz-adv-x="1034" 
d="M418 1231l-275 295h185l71 -76q87 -92 115 -131h12q37 53 117 135l70 72h184l-274 -295h-205zM952 0h-880v123l690 788l-4 9q-109 -7 -383 -7h-275v144h863v-125l-682 -789l4 -8q159 8 372 8h295v-143z" />
    <glyph glyph-name="florin" unicode="&#x192;" horiz-adv-x="1005" 
d="M829 1321q-72 0 -109 -36.5t-48 -113.5l-56 -378h267v-123h-279l-112 -768q-24 -160 -90 -228.5t-205 -68.5q-51 0 -146 10v143q93 -10 125 -10q71 0 106 36.5t46 113.5l112 772h-243v123h262l55 374q24 160 90 228.5t205 68.5q44 0 145 -8v-143q-99 8 -125 8z" />
    <glyph glyph-name="uni01E2" unicode="&#x1e2;" horiz-adv-x="2150" 
d="M799 1745h594v-137h-594v137zM1141 664l211 -508h788v-156h-903l-170 414h-690l-166 -414h-180l585 1434h1084v-156h-815l190 -459h799v-155h-733zM578 909l-138 -340h561l-137 334q-81 194 -139 359h-12q-45 -131 -135 -353z" />
    <glyph glyph-name="uni01E3" unicode="&#x1e3;" horiz-adv-x="1970" 
d="M1305 1231h-594v137h594v-137zM422 -33q-161 0 -261 77t-100 216q0 147 107 227.5t311 77.5q75 -1 136.5 0t108.5 9.5t79 26t48.5 49t16.5 79.5q0 37 -15.5 73t-48.5 69.5t-96 54t-147 20.5q-80 0 -143.5 -25t-102 -67.5t-60.5 -93t-28 -107.5h-164q0 88 35 167t98.5 139
t159.5 95.5t211 35.5q315 0 424 -207h8q73 105 170.5 156t229.5 51q146 0 261 -67.5t176.5 -183.5t61.5 -259v-78h-856q3 -187 102.5 -289t258.5 -102q129 0 213.5 73t105.5 187h168q-23 -182 -157 -293t-330 -111q-261 0 -399 166q-84 94 -117 219h-8q-18 -103 -64.5 -180
t-110 -120t-134 -64t-148.5 -21zM1042 616h689q-9 151 -98.5 240.5t-239.5 89.5q-147 0 -244 -86t-107 -244zM463 106q90 0 168 32.5t129 85t79.5 117t28.5 128.5v160h-8q-11 -62 -47 -96t-124 -53.5t-249 -24.5q-96 -3 -150 -49t-54 -123q0 -83 56 -130t171 -47z" />
    <glyph glyph-name="AEacute" unicode="&#x1fc;" horiz-adv-x="2150" 
d="M1518 1972l61 -133l-567 -246l-49 109zM1141 664l211 -508h788v-156h-903l-170 414h-690l-166 -414h-180l585 1434h1084v-156h-815l190 -459h799v-155h-733zM578 909l-138 -340h561l-137 334q-81 194 -139 359h-12q-45 -131 -135 -353z" />
    <glyph glyph-name="aeacute" unicode="&#x1fd;" horiz-adv-x="1970" 
d="M1491 1462l-567 -245l-50 108l556 270zM422 -33q-161 0 -261 77t-100 216q0 147 107 227.5t311 77.5q75 -1 136.5 0t108.5 9.5t79 26t48.5 49t16.5 79.5q0 37 -15.5 73t-48.5 69.5t-96 54t-147 20.5q-80 0 -143.5 -25t-102 -67.5t-60.5 -93t-28 -107.5h-164q0 88 35 167
t98.5 139t159.5 95.5t211 35.5q315 0 424 -207h8q73 105 170.5 156t229.5 51q146 0 261 -67.5t176.5 -183.5t61.5 -259v-78h-856q3 -187 102.5 -289t258.5 -102q129 0 213.5 73t105.5 187h168q-23 -182 -157 -293t-330 -111q-261 0 -399 166q-84 94 -117 219h-8
q-18 -103 -64.5 -180t-110 -120t-134 -64t-148.5 -21zM1042 616h689q-9 151 -98.5 240.5t-239.5 89.5q-147 0 -244 -86t-107 -244zM463 106q90 0 168 32.5t129 85t79.5 117t28.5 128.5v160h-8q-11 -62 -47 -96t-124 -53.5t-249 -24.5q-96 -3 -150 -49t-54 -123
q0 -83 56 -130t171 -47z" />
    <glyph glyph-name="uni0218" unicode="&#x218;" horiz-adv-x="1318" 
d="M682 -33q-282 0 -451.5 133.5t-169.5 354.5l179 -2q0 -149 120.5 -237.5t321.5 -88.5q186 0 297 70.5t111 189.5q0 76 -51 128t-148 75l-397 92q-385 89 -385 397q0 177 151 280t410 105q268 1 425.5 -131.5t157.5 -359.5h-178q0 154 -108.5 243t-296.5 89
q-176 0 -279.5 -63t-103.5 -169q0 -160 254 -221l374 -90q59 -14 106 -31.5t95 -47.5t80 -69t52 -97t20 -130q0 -191 -159.5 -305.5t-426.5 -114.5zM590 -514h-125l106 340h174z" />
    <glyph glyph-name="uni0219" unicode="&#x219;" horiz-adv-x="1013" 
d="M535 -33q-222 0 -349.5 97t-138.5 272h168q11 -109 93 -167t227 -58q125 0 197.5 46.5t72.5 125.5q0 57 -34 89.5t-114 51.5l-311 72q-128 29 -200 98.5t-72 179.5q0 146 116 231t316 85q211 0 334 -99.5t123 -269.5h-168q0 104 -77.5 164.5t-211.5 60.5
q-123 0 -195.5 -45t-72.5 -121q0 -51 39.5 -89.5t107.5 -53.5l305 -70q150 -34 216.5 -98t66.5 -180q0 -148 -118.5 -235t-319.5 -87zM440 -514h-125l107 340h174z" />
    <glyph glyph-name="uni021A" unicode="&#x21a;" horiz-adv-x="1241" 
d="M1200 1434v-156h-493v-1278h-172v1278h-494v156h1159zM551 -514h-125l106 340h175z" />
    <glyph glyph-name="uni021B" unicode="&#x21b;" horiz-adv-x="724" 
d="M674 1057v-123h-291v-662q0 -83 35.5 -110t120.5 -27q55 0 135 6v-145q-86 -6 -152 -6q-89 0 -143 11t-92 41.5t-53 83t-15 136.5v672h-188v123h188v276h158l6 -276h291zM385 -514h-125l107 340h174z" />
    <glyph glyph-name="circumflex" unicode="&#x2c6;" horiz-adv-x="860" 
d="M238 1231h-185l275 295h204l275 -295h-184l-70 72q-80 82 -117 135h-12q-28 -39 -115 -131z" />
    <glyph glyph-name="caron" unicode="&#x2c7;" horiz-adv-x="860" 
d="M328 1231l-275 295h185l71 -76q87 -92 115 -131h12q37 53 117 135l70 72h184l-275 -295h-204z" />
    <glyph glyph-name="breve" unicode="&#x2d8;" horiz-adv-x="819" 
d="M410 1231q-137 0 -223.5 83.5t-92.5 221.5h142q6 -84 52.5 -128t121.5 -44q78 0 123 45t51 127h141q-11 -138 -96 -221.5t-219 -83.5z" />
    <glyph glyph-name="dotaccent" unicode="&#x2d9;" horiz-adv-x="864" 
d="M432 1231q-46 0 -78 32t-32 78t32 78.5t78 32.5t78.5 -32.5t32.5 -78.5t-32.5 -78t-78.5 -32z" />
    <glyph glyph-name="ring" unicode="&#x2da;" horiz-adv-x="819" 
d="M410 1231q-117 0 -188.5 63t-71.5 166t71.5 166.5t188.5 63.5t188.5 -63.5t71.5 -166.5t-71.5 -166t-188.5 -63zM410 1350q60 0 96.5 30t36.5 80t-36.5 80.5t-96.5 30.5t-97 -30.5t-37 -80.5q0 -49 37 -79.5t97 -30.5z" />
    <glyph glyph-name="ogonek" unicode="&#x2db;" horiz-adv-x="368" 
d="M264 -422q-123 0 -193.5 48t-70.5 143q0 160 299 223v8h70q-213 -106 -213 -199q0 -49 34 -68.5t99 -19.5q22 0 80 4v-131q-74 -8 -105 -8z" />
    <glyph glyph-name="tilde" unicode="&#x2dc;" horiz-adv-x="819" 
d="M205 1231h-139q0 184 98 237.5t264 -43.5q98 -59 142 -45.5t44 103.5h140q0 -186 -98 -236.5t-273 43.5q-89 52 -133.5 42.5t-44.5 -101.5z" />
    <glyph glyph-name="hungarumlaut" unicode="&#x2dd;" horiz-adv-x="673" 
d="M350 1511l-252 -294l-98 69l201 328zM674 1511l-252 -294l-98 69l200 328z" />
    <glyph glyph-name="uni02F3" unicode="&#x2f3;" horiz-adv-x="819" 
d="M410 -571q-117 0 -188.5 63t-71.5 166t71.5 166t188.5 63t188.5 -63t71.5 -166t-71.5 -166t-188.5 -63zM410 -453q60 0 96.5 30.5t36.5 80.5t-36.5 80.5t-96.5 30.5t-97 -30.5t-37 -80.5t37 -80.5t97 -30.5z" />
    <glyph glyph-name="gravecomb" unicode="&#x300;" horiz-adv-x="0" 
d="M0 1702l-49 -109l-567 246l61 133z" />
    <glyph glyph-name="acutecomb" unicode="&#x301;" horiz-adv-x="0" 
d="M0 1839l-567 -246l-49 109l555 270z" />
    <glyph glyph-name="uni0302" unicode="&#x302;" horiz-adv-x="0" 
d="M-569 1608h-185l275 295h205l274 -295h-184l-70 71q-78 80 -117 136h-12q-30 -43 -115 -132z" />
    <glyph glyph-name="tildecomb" unicode="&#x303;" horiz-adv-x="0" 
d="M-549 1608h-139q0 184 98 237.5t264 -43.5q98 -59 142.5 -45.5t44.5 103.5h139q0 -186 -98 -236.5t-273 43.5q-89 52 -133.5 42.5t-44.5 -101.5z" />
    <glyph glyph-name="uni0304" unicode="&#x304;" horiz-adv-x="0" 
d="M0 1608h-594v137h594v-137z" />
    <glyph glyph-name="uni0306" unicode="&#x306;" horiz-adv-x="0" 
d="M-315 1608q-137 0 -223.5 83.5t-92.5 221.5h142q6 -84 52.5 -128t121.5 -44q78 0 123 45t51 127h141q-11 -138 -96 -221.5t-219 -83.5z" />
    <glyph glyph-name="uni0307" unicode="&#x307;" horiz-adv-x="0" 
d="M-111 1608q-46 0 -78 32t-32 78t32 78.5t78 32.5t78.5 -32.5t32.5 -78.5t-32.5 -78t-78.5 -32z" />
    <glyph glyph-name="uni0308" unicode="&#x308;" horiz-adv-x="0" 
d="M-471 1608q-46 0 -78.5 32t-32.5 78t32.5 78.5t78.5 32.5t78.5 -32.5t32.5 -78.5t-32.5 -78t-78.5 -32zM-111 1608q-46 0 -78 32t-32 78t32 78.5t78 32.5t78.5 -32.5t32.5 -78.5t-32.5 -78t-78.5 -32z" />
    <glyph glyph-name="uni030A" unicode="&#x30a;" horiz-adv-x="0" 
d="M-260 1315q-117 0 -188.5 63t-71.5 166t71.5 166.5t188.5 63.5t188.5 -63.5t71.5 -166.5t-71.5 -166t-188.5 -63zM-260 1434q60 0 96.5 30t36.5 80t-36.5 80.5t-96.5 30.5t-96.5 -30.5t-36.5 -80.5t36.5 -80t96.5 -30z" />
    <glyph glyph-name="uni030B" unicode="&#x30b;" horiz-adv-x="0" 
d="M-324 1888l-251 -295l-99 70l201 328zM0 1888l-252 -295l-98 70l200 328z" />
    <glyph glyph-name="uni030C" unicode="&#x30c;" horiz-adv-x="0" 
d="M-479 1608l-275 295h185l71 -76q87 -92 115 -131h12q37 53 117 135l70 72h184l-274 -295h-205z" />
    <glyph glyph-name="uni0312" unicode="&#x312;" horiz-adv-x="0" 
d="M-225 1608h-125l106 340h174z" />
    <glyph glyph-name="uni0326" unicode="&#x326;" horiz-adv-x="0" 
d="M-164 -514h-125l107 340h174z" />
    <glyph glyph-name="uni0327" unicode="&#x327;" horiz-adv-x="0" 
d="M-201 -92v-6h17q82 0 133 -44t51 -106q0 -190 -281 -190q-23 0 -125 4v96q47 -2 119 -2q57 0 93 22.5t36 65.5q0 33 -30 52t-70 20.5t-80 -2.5v78q86 31 86 104h135q0 -26 -19 -53t-65 -39z" />
    <glyph glyph-name="uni0328" unicode="&#x328;" horiz-adv-x="0" 
d="M-104 -422q-128 0 -196.5 38.5t-68.5 131.5q0 82 82 148.5t217 95.5v8h70q-213 -106 -213 -199q0 -49 34 -68.5t99 -19.5q22 0 80 4v-131q-74 -8 -104 -8z" />
    <glyph glyph-name="uni0394" unicode="&#x394;" horiz-adv-x="1341" 
d="M1290 0h-1239v156l520 1278h193l526 -1278v-156zM217 168l6 -12h371h194h332l6 10q-83 159 -165 356l-136 328q-85 215 -153 418h-13q-65 -205 -155 -428l-135 -342q-74 -183 -152 -330z" />
    <glyph glyph-name="uni03A9" unicode="&#x3a9;" horiz-adv-x="1560" 
d="M672 0h-600v154h397l2 12q-190 102 -286.5 261t-96.5 349q0 323 189.5 511t504.5 188q316 0 500 -188t184 -511q0 -193 -93.5 -351.5t-282.5 -258.5l2 -12h397v-154h-598v137q194 102 297.5 266t103.5 373q0 261 -132 403t-378 142q-251 0 -385.5 -142.5t-134.5 -402.5
q0 -205 107.5 -371t302.5 -268v-137z" />
    <glyph glyph-name="uni03BC" unicode="&#x3bc;" horiz-adv-x="1230" 
d="M272 -377h-149v1434h166v-613q0 -160 79.5 -242.5t219.5 -82.5q163 0 234 74.5t71 250.5v613h164v-832q0 -52 18.5 -71t61.5 -19q42 0 73 2v-143q-41 -4 -96 -4q-36 0 -70.5 8.5t-70.5 28t-58 60t-22 97.5v52h-10q-21 -130 -101.5 -197.5t-208.5 -67.5q-93 0 -155 23.5
t-123 81.5l-8 -4z" />
    <glyph glyph-name="pi" unicode="&#x3c0;" horiz-adv-x="1153" 
d="M1102 1057v-144h-174v-684q0 -52 18.5 -71t61.5 -19h94v-139q-92 -6 -117 -6q-115 0 -168 53t-53 168v698h-395v-913h-164v913h-174v144h1071z" />
    <glyph glyph-name="Wgrave" unicode="&#x1e80;" horiz-adv-x="1998" 
d="M1137 1702l-50 -109l-567 246l62 133zM659 0h-206l-422 1434h184l66 -230q24 -86 123 -434.5t149 -536.5h12q50 187 149 531.5t130 456.5l59 213h193l59 -213q31 -112 130 -456.5t149 -531.5h12q53 201 272 971l66 230h184l-422 -1434h-207l-333 1169h-13z" />
    <glyph glyph-name="wgrave" unicode="&#x1e81;" horiz-adv-x="1652" 
d="M965 1325l-50 -108l-567 245l62 133zM561 0h-160l-391 1057h174l138 -377q15 -42 50 -138.5t60.5 -168.5t52.5 -156h9q33 111 83 275.5t58 189.5l115 375h155l115 -375q8 -25 58 -189.5t83 -275.5h8q27 83 53.5 157.5t59.5 165t51 140.5l137 377h175l-392 -1057h-159
l-263 852h-8z" />
    <glyph glyph-name="Wacute" unicode="&#x1e82;" horiz-adv-x="1998" 
d="M1483 1839l-568 -246l-49 109l555 270zM659 0h-206l-422 1434h184l66 -230q24 -86 123 -434.5t149 -536.5h12q50 187 149 531.5t130 456.5l59 213h193l59 -213q31 -112 130 -456.5t149 -531.5h12q53 201 272 971l66 230h184l-422 -1434h-207l-333 1169h-13z" />
    <glyph glyph-name="wacute" unicode="&#x1e83;" horiz-adv-x="1652" 
d="M1311 1462l-568 -245l-49 108l555 270zM561 0h-160l-391 1057h174l138 -377q15 -42 50 -138.5t60.5 -168.5t52.5 -156h9q33 111 83 275.5t58 189.5l115 375h155l115 -375q8 -25 58 -189.5t83 -275.5h8q27 83 53.5 157.5t59.5 165t51 140.5l137 377h175l-392 -1057h-159
l-263 852h-8z" />
    <glyph glyph-name="Wdieresis" unicode="&#x1e84;" horiz-adv-x="1998" 
d="M819 1608q-46 0 -78 32t-32 78t32 78.5t78 32.5t78.5 -32.5t32.5 -78.5t-32.5 -78t-78.5 -32zM1180 1608q-46 0 -78.5 32t-32.5 78t32.5 78.5t78.5 32.5t78 -32.5t32 -78.5t-32 -78t-78 -32zM659 0h-206l-422 1434h184l66 -230q24 -86 123 -434.5t149 -536.5h12
q50 187 149 531.5t130 456.5l59 213h193l59 -213q31 -112 130 -456.5t149 -531.5h12q53 201 272 971l66 230h184l-422 -1434h-207l-333 1169h-13z" />
    <glyph glyph-name="wdieresis" unicode="&#x1e85;" horiz-adv-x="1652" 
d="M647 1231q-46 0 -78 32t-32 78t32 78.5t78 32.5t78.5 -32.5t32.5 -78.5t-32.5 -78t-78.5 -32zM1008 1231q-46 0 -78.5 32t-32.5 78t32.5 78.5t78.5 32.5t78 -32.5t32 -78.5t-32 -78t-78 -32zM561 0h-160l-391 1057h174l138 -377q15 -42 50 -138.5t60.5 -168.5t52.5 -156
h9q33 111 83 275.5t58 189.5l115 375h155l115 -375q8 -25 58 -189.5t83 -275.5h8q27 83 53.5 157.5t59.5 165t51 140.5l137 377h175l-392 -1057h-159l-263 852h-8z" />
    <glyph glyph-name="uni1E9E" unicode="&#x1e9e;" horiz-adv-x="1290" 
d="M858 776v-12q175 -11 279 -109t104 -258q0 -186 -149 -308t-383 -122q-133 0 -250 19v155q103 -18 233 -18q167 0 271 73.5t104 194.5q0 126 -99 193t-255 67h-246v156h223q164 0 250 73.5t86 182.5q0 99 -69.5 157t-184.5 58h-467v-1278h-172v1434h647q188 0 305 -93
t117 -245q0 -132 -93 -221t-251 -99z" />
    <glyph glyph-name="Ygrave" unicode="&#x1ef2;" horiz-adv-x="1327" 
d="M248 1972l555 -270l-49 -109l-568 246zM1104 1434h192l-546 -850v-584h-172v582l-547 852h194l162 -256q211 -340 272 -447h13q97 168 270 443z" />
    <glyph glyph-name="ygrave" unicode="&#x1ef3;" horiz-adv-x="1036" 
d="M662 1325l-50 -108l-567 245l61 133zM504 186h8q47 126 133.5 345.5t112.5 287.5l88 238h180l-438 -1071q-49 -117 -94 -187t-107.5 -114t-140 -58.5t-193.5 -9.5v154q59 -5 105 -0.5t79 13t61 33t51 60t50 92.5l17 35l-406 1053h183l88 -244q204 -571 223 -627z" />
    <glyph glyph-name="endash" unicode="&#x2013;" horiz-adv-x="1085" 
d="M1004 504h-922v147h922v-147z" />
    <glyph glyph-name="emdash" unicode="&#x2014;" horiz-adv-x="1966" 
d="M1884 504h-1802v147h1802v-147z" />
    <glyph glyph-name="quoteleft" unicode="&#x2018;" horiz-adv-x="507" 
d="M416 1434l-129 -549h-195l191 549h133z" />
    <glyph glyph-name="quoteright" unicode="&#x2019;" horiz-adv-x="507" 
d="M92 885l129 549h195l-191 -549h-133z" />
    <glyph glyph-name="quotesinglbase" unicode="&#x201a;" horiz-adv-x="507" 
d="M92 -342l129 549h195l-191 -549h-133z" />
    <glyph glyph-name="quotedblleft" unicode="&#x201c;" horiz-adv-x="856" 
d="M416 1434l-129 -549h-195l191 549h133zM764 1434l-129 -549h-195l191 549h133z" />
    <glyph glyph-name="quotedblright" unicode="&#x201d;" horiz-adv-x="856" 
d="M92 885l129 549h195l-191 -549h-133zM440 885l129 549h195l-191 -549h-133z" />
    <glyph glyph-name="quotedblbase" unicode="&#x201e;" horiz-adv-x="856" 
d="M92 -342l129 549h195l-191 -549h-133zM440 -342l129 549h195l-191 -549h-133z" />
    <glyph glyph-name="dagger" unicode="&#x2020;" horiz-adv-x="1169" 
d="M674 1032h454v-155h-454v-1201h-178v1201h-455v155h455v402h178v-402z" />
    <glyph glyph-name="daggerdbl" unicode="&#x2021;" horiz-adv-x="1169" 
d="M1128 1032v-155h-454v-644h454v-155h-454v-402h-178v402h-455v155h455v644h-455v155h455v402h178v-402h454z" />
    <glyph glyph-name="bullet" unicode="&#x2022;" horiz-adv-x="651" 
d="M319 393q-79 0 -132.5 55t-53.5 140q0 79 53.5 131.5t132.5 52.5q87 0 143 -52t56 -132q0 -86 -55.5 -140.5t-143.5 -54.5z" />
    <glyph glyph-name="ellipsis" unicode="&#x2026;" horiz-adv-x="1343" 
d="M209 -31q-50 0 -83.5 34t-33.5 87q0 49 33.5 82t83.5 33q54 0 88.5 -32.5t34.5 -82.5q0 -54 -34.5 -87.5t-88.5 -33.5zM680 -31q-50 0 -83.5 34t-33.5 87q0 49 33.5 82t83.5 33q54 0 88.5 -32.5t34.5 -82.5q0 -54 -34.5 -87.5t-88.5 -33.5zM1128 -31q-50 0 -83 34t-33 87
q0 49 33 82t83 33q54 0 88.5 -32.5t34.5 -82.5q0 -54 -34.5 -87.5t-88.5 -33.5z" />
    <glyph glyph-name="perthousand" unicode="&#x2030;" horiz-adv-x="2590" 
d="M385 598q-169 0 -256.5 118t-87.5 312q0 198 85.5 315t258.5 117q174 0 259 -116.5t85 -315.5q0 -95 -20.5 -172t-61.5 -135.5t-107.5 -90.5t-154.5 -32zM600 0h-158l766 1434h158zM385 727q186 0 186 301q0 303 -186 303t-186 -303q0 -301 186 -301zM2206 -8
q-169 0 -256.5 118t-87.5 312q0 198 85.5 315t258.5 117q174 0 259 -116.5t85 -315.5q0 -95 -20.5 -172t-61.5 -135.5t-107.5 -90.5t-154.5 -32zM1436 -25q-169 0 -256.5 118.5t-87.5 312.5q0 198 85.5 315t258.5 117q174 0 259 -116.5t85 -315.5q0 -128 -35 -222.5
t-114 -151.5t-195 -57zM2206 121q186 0 186 301q0 303 -186 303q-187 0 -187 -303q0 -301 187 -301zM1436 104q186 0 186 302q0 303 -186 303q-187 0 -187 -303q0 -302 187 -302z" />
    <glyph glyph-name="guilsinglleft" unicode="&#x2039;" horiz-adv-x="614" 
d="M240 532v-8q87 -63 188 -143l53 -43v-191l-348 285v191l348 284v-190l-51 -41q-81 -66 -190 -144z" />
    <glyph glyph-name="guilsinglright" unicode="&#x203a;" horiz-adv-x="614" 
d="M375 524v8q-118 85 -191 144l-51 41v190l348 -284v-191l-348 -285v191l53 43q91 73 189 143z" />
    <glyph glyph-name="uni203D" unicode="&#x203d;" horiz-adv-x="1046" 
d="M592 721h8q26 65 119 158q48 48 71 95t23 111q0 113 -73.5 171.5t-202.5 58.5q-157 0 -235 -77t-85 -251h-166q3 245 130 363t349 118q203 0 329 -100t126 -281q0 -104 -53 -188t-160 -174q-114 -95 -143 -154t-35 -196h-158q-1 49 -4 146.5t-4 146.5l-6 458h174z
M512 -33q-50 0 -83.5 34t-33.5 87q0 49 33.5 82t83.5 33q54 0 88.5 -32.5t34.5 -82.5q0 -54 -34.5 -87.5t-88.5 -33.5z" />
    <glyph glyph-name="fraction" unicode="&#x2044;" horiz-adv-x="595" 
d="M-8 0h-154l766 1434h154z" />
    <glyph glyph-name="uni2070" unicode="&#x2070;" horiz-adv-x="770" 
d="M385 1065q-158 0 -251 111t-93 329q0 220 93 331.5t251 111.5q160 0 252 -111.5t92 -331.5q0 -219 -92 -329.5t-252 -110.5zM385 1196q103 0 144.5 80.5t41.5 228.5q0 71 -8.5 124.5t-29 97.5t-58 67t-90.5 23t-90.5 -23t-58 -67t-29 -97.5t-8.5 -124.5
q0 -148 41.5 -228.5t144.5 -80.5z" />
    <glyph glyph-name="uni2074" unicode="&#x2074;" horiz-adv-x="755" 
d="M612 1090h-155v210h-426v144l422 491h159v-505h113v-130h-113v-210zM287 1559l-113 -129h289v352h-6q-28 -56 -170 -223z" />
    <glyph glyph-name="uni2075" unicode="&#x2075;" horiz-adv-x="720" 
d="M401 1655q133 0 206 -84.5t73 -206.5q0 -130 -87 -213.5t-228 -83.5q-130 0 -224 66.5t-100 185.5h145q24 -129 179 -129q76 0 123 47.5t47 126.5q0 72 -46 122t-122 50q-61 0 -100.5 -23.5t-65.5 -76.5l-142 28l80 467h484v-129h-369l-41 -248l6 -2q18 49 69.5 76
t112.5 27z" />
    <glyph glyph-name="uni2076" unicode="&#x2076;" horiz-adv-x="749" 
d="M195 1507h8q11 64 66.5 106t152.5 42q118 0 202.5 -81t84.5 -204q0 -144 -89.5 -223.5t-224.5 -79.5q-174 0 -259 115t-85 321q0 201 90 324t256 123q111 0 196 -62t105 -166h-149q-25 105 -152 105q-100 0 -149.5 -74t-52.5 -246zM395 1190q80 0 124 48t44 112
q0 81 -48 129.5t-120 48.5q-75 0 -124.5 -48.5t-49.5 -129.5q0 -66 47.5 -113t126.5 -47z" />
    <glyph glyph-name="uni2077" unicode="&#x2077;" horiz-adv-x="653" 
d="M516 1800v6h-485v129h592v-131q-70 -67 -117.5 -128t-90 -145.5t-64 -193.5t-23.5 -247h-162q2 113 25 215t58 176t82.5 138.5t92 106t92.5 74.5z" />
    <glyph glyph-name="uni2078" unicode="&#x2078;" horiz-adv-x="741" 
d="M373 1067q-153 0 -242.5 69.5t-89.5 188.5q0 76 48 134t130 81v8q-64 10 -102.5 59.5t-38.5 121.5q0 103 80 163t215 60q132 0 209 -60t77 -163q0 -74 -36 -123t-99 -58v-8q82 -23 129 -80.5t47 -134.5q0 -119 -88 -188.5t-239 -69.5zM373 1581q72 0 112.5 37t38.5 102
q-1 55 -42 88t-109 33q-72 0 -114 -32.5t-42 -88.5q0 -64 42 -101.5t114 -37.5zM373 1190q82 0 130.5 39t49.5 106q2 68 -46.5 107t-133.5 39t-134 -37.5t-49 -102.5q0 -69 49.5 -110t133.5 -41z" />
    <glyph glyph-name="uni2079" unicode="&#x2079;" horiz-adv-x="741" 
d="M555 1509h-8q-11 -64 -66.5 -105.5t-152.5 -41.5q-120 0 -203.5 84t-83.5 221q0 130 90 206.5t223 76.5q173 0 254.5 -115t81.5 -322q0 -202 -86.5 -324t-251.5 -122q-111 0 -196 62t-105 165h150q24 -104 151 -104q100 0 150 73.5t53 245.5zM354 1827q-80 0 -124 -48
t-44 -112q0 -81 48 -129.5t120 -48.5q75 0 124.5 48.5t49.5 129.5q0 66 -47.5 113t-126.5 47z" />
    <glyph glyph-name="uni2080" unicode="&#x2080;" horiz-adv-x="770" 
d="M385 -422q-158 0 -251 111t-93 329q0 220 93 331.5t251 111.5q160 0 252 -111.5t92 -331.5q0 -219 -92 -329.5t-252 -110.5zM385 -291q103 0 144.5 80.5t41.5 228.5q0 71 -8.5 124.5t-29 97.5t-58 67t-90.5 23t-90.5 -23t-58 -67t-29 -97.5t-8.5 -124.5
q0 -148 41.5 -228.5t144.5 -80.5z" />
    <glyph glyph-name="uni2081" unicode="&#x2081;" horiz-adv-x="458" 
d="M250 252h-6q-36 -46 -79.5 -69t-119.5 -23h-14v139q227 0 254 137h123v-846h-158v662z" />
    <glyph glyph-name="uni2082" unicode="&#x2082;" horiz-adv-x="681" 
d="M651 -410h-631v134q269 203 333 258q111 97 133 167q8 25 8 52q0 61 -43 93t-105 32q-163 0 -168 -142h-147q4 129 89 201t222 72q138 0 218.5 -69.5t80.5 -194.5q0 -35 -9.5 -68.5t-24.5 -63t-45 -62.5t-59 -61t-78.5 -66.5t-92.5 -69t-111 -78.5l2 -7q76 4 209 4h219
v-131z" />
    <glyph glyph-name="uni2083" unicode="&#x2083;" horiz-adv-x="710" 
d="M461 47v-6q213 -17 213 -207q0 -115 -93 -185.5t-225 -70.5q-145 0 -240.5 76.5t-95.5 210.5h146q1 -85 49.5 -123.5t140.5 -38.5q70 0 118 36.5t48 104.5q0 146 -172 146h-63v104h57q162 0 162 127q0 57 -39.5 88t-114.5 31q-72 0 -114 -32.5t-43 -119.5h-150
q1 94 43 157.5t108.5 90.5t153.5 27q83 0 148.5 -21t110 -74.5t44.5 -134.5q0 -75 -49 -123t-143 -63z" />
    <glyph glyph-name="uni2084" unicode="&#x2084;" horiz-adv-x="755" 
d="M612 -410h-155v211h-426v144l422 491h159v-506h113v-129h-113v-211zM287 59l-113 -129h289v353h-6q-30 -58 -170 -224z" />
    <glyph glyph-name="uni2085" unicode="&#x2085;" horiz-adv-x="720" 
d="M401 164q133 0 206 -84.5t73 -206.5q0 -130 -87 -213.5t-228 -83.5q-130 0 -224 66.5t-100 185.5h145q24 -129 179 -129q76 0 123 47.5t47 126.5q0 72 -46 122t-122 50q-61 0 -100.5 -23.5t-65.5 -76.5l-142 28l80 467h484v-129h-369l-41 -248l6 -2q18 49 69.5 76
t112.5 27z" />
    <glyph glyph-name="uni2086" unicode="&#x2086;" horiz-adv-x="749" 
d="M195 18h8q11 64 66.5 106t152.5 42q118 0 202.5 -81t84.5 -204q0 -144 -89.5 -223.5t-224.5 -79.5q-174 0 -259 115t-85 321q0 201 90 324t256 123q111 0 196 -62t105 -166h-149q-25 105 -152 105q-100 0 -149.5 -74t-52.5 -246zM395 -299q80 0 124 48t44 112
q0 81 -48 129.5t-120 48.5q-75 0 -124.5 -48.5t-49.5 -129.5q0 -66 47.5 -113t126.5 -47z" />
    <glyph glyph-name="uni2087" unicode="&#x2087;" horiz-adv-x="653" 
d="M516 301v6h-485v129h592v-131q-70 -67 -117.5 -128.5t-89.5 -146t-64 -193.5t-24 -247h-162q2 113 25 215t58 176.5t82.5 139t92 106t92.5 74.5z" />
    <glyph glyph-name="uni2088" unicode="&#x2088;" horiz-adv-x="741" 
d="M373 -422q-153 0 -242.5 69.5t-89.5 188.5q0 76 48 134t130 81v8q-64 10 -102.5 59.5t-38.5 121.5q0 103 80 163t215 60q132 0 209 -60t77 -163q0 -74 -36 -123t-99 -58v-8q82 -23 129 -80.5t47 -134.5q0 -119 -88 -188.5t-239 -69.5zM373 92q72 0 112.5 37t38.5 102
q-1 55 -42 88t-109 33q-72 0 -114 -32.5t-42 -88.5q0 -64 42 -101.5t114 -37.5zM373 -299q82 0 130.5 39t49.5 106q2 68 -46.5 107t-133.5 39t-134 -37.5t-49 -101.5q0 -69 49.5 -110.5t133.5 -41.5z" />
    <glyph glyph-name="uni2089" unicode="&#x2089;" horiz-adv-x="741" 
d="M555 25h-8q-11 -64 -66.5 -106t-152.5 -42q-120 0 -203.5 84t-83.5 221q0 130 90 206.5t223 76.5q173 0 254.5 -114.5t81.5 -321.5q0 -203 -86.5 -325t-251.5 -122q-111 0 -196 62t-105 166h150q25 -105 151 -105q100 0 150 74t53 246zM354 342q-80 0 -124 -48t-44 -112
q0 -81 48 -129.5t120 -48.5q75 0 124.5 48.5t49.5 129.5q0 66 -47.5 113t-126.5 47z" />
    <glyph glyph-name="uni208D" unicode="&#x208d;" horiz-adv-x="323" 
d="M324 -553h-142q-66 153 -93.5 282t-27.5 289q0 172 26.5 299.5t94.5 276.5h142q-125 -277 -125 -576q0 -288 125 -571z" />
    <glyph glyph-name="uni208E" unicode="&#x208e;" horiz-adv-x="323" 
d="M141 -553h-141q125 283 125 571q0 299 -125 576h141q68 -149 94.5 -276.5t26.5 -299.5q0 -160 -27.5 -289t-93.5 -282z" />
    <glyph glyph-name="franc" unicode="&#x20a3;" horiz-adv-x="1054" 
d="M1014 1434v-156h-668v-459h584v-155h-584v-281h293v-102h-293v-281h-172v281h-174v102h174v1051h840z" />
    <glyph glyph-name="lira" unicode="&#x20a4;" horiz-adv-x="1228" 
d="M954 502h-592v-346h773v-156h-1074v156h127v346h-127v102h127v144h-127v102h127v188q0 211 121 319.5t348 108.5q222 0 349.5 -119.5t128.5 -336.5h-179q-14 301 -307 301q-143 0 -215 -70.5t-72 -222.5v-168h592v-102h-592v-144h592v-102z" />
    <glyph glyph-name="uni20A6" unicode="&#x20a6;" horiz-adv-x="1519" 
d="M1346 768h174v-102h-174v-666h-209l-447 666h-344v-70v-596h-172v666h-174v102h174v666h207l446 -666h347v666h172v-666zM344 1188l-8 -2q10 -242 10 -418h275q-187 276 -277 420zM1176 244l8 2q-10 190 -10 420h-277l14 -23q15 -22 112 -167t153 -232z" />
    <glyph glyph-name="peseta" unicode="&#x20a7;" horiz-adv-x="1396" 
d="M1231 1047h166v-103h-166q-18 -188 -157 -287.5t-343 -99.5h-385v-557h-172v944h-174v103h174v387h557q470 0 500 -387zM700 1278h-354v-231h711q-9 66 -40 112.5t-80.5 71.5t-106.5 36t-130 11zM346 713h354q325 0 355 231h-709v-231z" />
    <glyph glyph-name="uni20A8" unicode="&#x20a8;" horiz-adv-x="2316" 
d="M877 711v-13q137 -9 199 -70t89 -198l86 -430h-176l-71 383q-22 118 -75.5 157.5t-189.5 39.5h-434v-580h-172v1434h612q213 0 343.5 -100t130.5 -263q0 -149 -94 -248.5t-248 -111.5zM305 735h430q139 0 224 77.5t85 203.5q0 118 -84.5 190t-224.5 72h-430v-543z
M1688 637l305 -70q150 -34 216 -98t66 -180q0 -148 -118.5 -235t-319.5 -87q-222 0 -349 97t-138 272h168q11 -109 93 -167t226 -58q125 0 197.5 46.5t72.5 125.5q0 57 -34 89.5t-113 51.5l-311 72q-128 29 -200.5 98.5t-72.5 179.5q0 146 116 231t316 85q211 0 334 -99.5
t123 -269.5h-168q0 104 -77.5 164.5t-211.5 60.5q-123 0 -195.5 -45t-72.5 -121q0 -51 40 -89.5t108 -53.5z" />
    <glyph glyph-name="uni20A9" unicode="&#x20a9;" horiz-adv-x="1951" 
d="M1747 768h205v-102h-234l-196 -666h-207l-191 666h-299l-190 -666h-207l-197 666h-231v102h203l-197 666h184l66 -230l123 -436h311l129 453l60 213h192l59 -213l130 -453h309q20 72 62 217.5t63 218.5l65 230h185zM969 1169l-115 -401h242l-115 401h-12zM528 233h13
q61 225 121 433h-252q18 -63 38 -136t43.5 -161t36.5 -136zM1409 233h12q100 368 119 433h-252q60 -208 121 -433z" />
    <glyph glyph-name="Euro" unicode="&#x20ac;" horiz-adv-x="1341" 
d="M1165 492h170q-35 -242 -187 -381.5t-378 -139.5q-129 0 -236 43.5t-181.5 122.5t-122 184t-66.5 232h-164v102h154q-2 20 -2 64q0 36 4 106h-156v103h170q46 244 198 388t396 144q227 0 370 -122.5t197 -348.5h-182q-91 316 -387 316q-169 0 -272 -100.5t-138 -276.5
h467v-103h-483q-4 -70 -4 -106q0 -44 2 -64h485v-102h-475q31 -195 137.5 -310.5t288.5 -115.5q337 0 395 365z" />
    <glyph glyph-name="uni20AD" unicode="&#x20ad;" horiz-adv-x="1382" 
d="M1335 743v-102h-428l461 -641h-207l-456 641h-185l-174 -162v-479h-172v641h-174v102h174v691h172l-8 -691h96q103 107 174 175l535 516h229l-620 -576l82 -115h501z" />
    <glyph glyph-name="uni20AE" unicode="&#x20ae;" horiz-adv-x="1241" 
d="M1200 1434v-156h-493v-348l278 129v-115l-278 -129v-182l278 129v-115l-278 -129v-518h-172v438l-277 -127v115l277 127v182l-277 -127v115l277 127v428h-494v156h1159z" />
    <glyph glyph-name="uni20B1" unicode="&#x20b1;" horiz-adv-x="1380" 
d="M1210 1157h170v-102h-149q2 -18 2 -60q0 -23 -4 -59h151v-102h-174q-49 -135 -177 -206t-298 -71h-385v-557h-172v834h-174v102h174v119h-174v102h174v277h557q398 0 479 -277zM700 1278h-354v-121h672q-78 121 -318 121zM1059 995q0 24 -4 60h-709v-119h709q4 36 4 59z
M346 713h354q234 0 316 121h-670v-121z" />
    <glyph glyph-name="uni20B2" unicode="&#x20b2;" horiz-adv-x="1556" 
d="M967 582v155h477v-737h-166l-18 315h-13q-115 -312 -434 -344v-223h-104v219q-123 5 -227 46t-179 110t-127.5 162t-78 202.5t-25.5 229.5q0 114 22.5 217t72 196.5t122.5 163.5t180.5 115t239.5 55v217h104v-215q112 -4 208 -37.5t163.5 -85.5t118 -121t78.5 -142
t38 -150h-180q-15 75 -48.5 139.5t-85.5 116.5t-127 84t-165 37v-1180q98 5 184.5 43.5t146 97t94 132t34.5 149.5v33h-305zM246 717q0 -108 25.5 -204t78 -178.5t144.5 -136.5t215 -67v1172q-123 -11 -215.5 -64.5t-145 -136.5t-77.5 -179t-25 -206z" />
    <glyph glyph-name="uni20B3" unicode="&#x20b3;" horiz-adv-x="1447" 
d="M1417 0h-180l-147 358h-734l-145 -358h-180l147 358h-127v103h168l68 164h-236v102h277l288 707h203l295 -707h289v-102h-246l68 -164h178v-103h-135zM578 909l-74 -182h432l-72 176q-81 194 -139 359h-12q-45 -131 -135 -353zM463 625l-66 -164h650l-68 164h-516z" />
    <glyph glyph-name="uni20B4" unicode="&#x20b4;" horiz-adv-x="1396" 
d="M1188 889h209v-103h-1397v103h946q69 30 104 72.5t35 111.5q0 62 -31 109t-84.5 74t-118.5 40t-140 13q-194 0 -304 -73t-110 -222h-178q0 194 154.5 322.5t437.5 127.5q158 -1 281.5 -44t197.5 -131.5t74 -209.5q0 -114 -76 -190zM221 565h-221v103h1397v-103h-889
q-106 -32 -158.5 -78.5t-52.5 -130.5q0 -62 31 -109t84.5 -73.5t118.5 -39.5t141 -13q193 0 303 73t110 222h179q0 -194 -154.5 -323t-437.5 -128q-158 1 -281.5 44t-197.5 131.5t-74 209.5q0 132 102 215z" />
    <glyph glyph-name="uni20B5" unicode="&#x20b5;" horiz-adv-x="1449" 
d="M782 1305v-1176q175 10 285.5 122t138.5 275h180q-30 -238 -190 -392.5t-414 -166.5v-219h-104v221q-274 25 -440 227.5t-166 526.5q0 323 165.5 520t440.5 221v217h104v-215q256 -12 418 -167t189 -392h-181q-12 79 -45.5 148.5t-86 123.5t-128 87.5t-166.5 38.5z
M248 723q0 -249 117 -407t313 -185v1172q-197 -25 -313.5 -178.5t-116.5 -401.5z" />
    <glyph glyph-name="uni20B8" unicode="&#x20b8;" horiz-adv-x="1251" 
d="M1210 1278h-1169v156h1169v-156zM715 0h-178v934h-496v156h1169v-156h-495v-934z" />
    <glyph glyph-name="uni20B9" unicode="&#x20b9;" horiz-adv-x="1290" 
d="M1221 1434v-103h-273l-2 -12q69 -45 101 -100.5t32 -145.5h142v-102h-154q-26 -107 -111 -168t-219 -72v-12q137 -9 198.5 -70t88.5 -198l88 -451h-176l-74 403q-22 118 -74.5 157.5t-187.5 39.5h-465v156h461q133 0 212 59.5t93 155.5h-766v102h766q-15 107 -90.5 156
t-214.5 49h-463v156h1088z" />
    <glyph glyph-name="uni20BA" unicode="&#x20ba;" horiz-adv-x="1165" 
d="M924 762h180q0 -350 -211 -556t-569 -206h-172v647l-152 -69v114l152 70v182l-152 -70v115l152 70v375h172v-295l403 186v-115l-403 -186v-182l403 186v-115l-403 -186v-569q281 0 440.5 163.5t159.5 440.5z" />
    <glyph glyph-name="uni20BC" unicode="&#x20bc;" horiz-adv-x="1437" 
d="M799 1434v-347q270 -3 398 -122.5t128 -372.5v-592h-170v606q0 172 -87.5 251.5t-268.5 82.5v-840h-168v840q-179 -1 -263.5 -84t-84.5 -250v-606h-170v592q0 255 127 374t391 121v347h168z" />
    <glyph glyph-name="uni20BF" unicode="&#x20bf;" horiz-adv-x="1290" 
d="M1241 408q0 -181 -125.5 -293.5t-329.5 -114.5v-252h-104v252h-188v-252h-105v252h-256v1434h256v247h105v-247h188v247h104v-247q187 -1 301.5 -95.5t114.5 -246.5q0 -132 -94.5 -219.5t-249.5 -96.5v-12q172 -9 277.5 -107t105.5 -249zM774 1278h-469v-471h389
q149 0 240.5 70t91.5 184q0 98 -69 157.5t-183 59.5zM305 156h469q132 0 212.5 67.5t80.5 179.5t-96.5 180t-255.5 68h-410v-495z" />
    <glyph glyph-name="uni2116" unicode="&#x2116;" horiz-adv-x="2287" 
d="M1860 709q-159 0 -255 105t-96 271t96 271.5t255 105.5q157 0 251.5 -106t94.5 -271t-94.5 -270.5t-251.5 -105.5zM303 1188l-8 -2q10 -209 10 -590v-596h-172v1434h207l530 -791q15 -22 112 -167t153 -232l8 2q-10 207 -10 459v729h172v-1434h-209l-457 680
q-247 366 -336 508zM1860 850q96 0 146 66.5t50 168.5q0 106 -51 172t-145 66t-147.5 -66t-53.5 -172q0 -105 52 -170t149 -65zM2206 506h-697v115h697v-115z" />
    <glyph glyph-name="trademark" unicode="&#x2122;" horiz-adv-x="1103" 
d="M307 911h-90v441h-166v82h422v-82h-166v-441zM625 911h-88v523h102l100 -250q47 -120 56 -150h2q18 54 59 162l92 238h105v-523h-88v162q0 56 4 182h-4q-12 -32 -27 -73.5t-20 -55.5l-89 -215h-67l-78 187q-4 9 -59 155h-4q4 -66 4 -184v-158z" />
    <glyph glyph-name="estimated" unicode="&#x212e;" horiz-adv-x="1845" 
d="M328 1260q219 213 596 213q376 0 596 -224q221 -221 221 -549h-1307q-28 0 -28 -26v-357q0 -69 32 -94q194 -194 486 -194q151 0 286 63q143 68 224 168h147q-88 -126 -260 -205q-171 -82 -397 -82q-370 0 -594 211q-228 208 -228 537q0 326 226 539zM924 1415
q-290 0 -486 -196q-32 -28 -32 -91v-356q0 -27 28 -27h973q29 0 29 27v356q0 62 -33 91q-202 196 -479 196z" />
    <glyph glyph-name="uni2150" unicode="&#x2150;" horiz-adv-x="1605" 
d="M250 1249h-6q-36 -46 -79.5 -69t-119.5 -23h-14v139q227 0 254 138h123v-846h-158v661zM389 0h-153l765 1434h154zM1468 711v6h-485v129h592v-131q-70 -67 -117.5 -128.5t-89.5 -146t-64 -193.5t-24 -247h-162q2 113 25 215t58 176.5t82.5 139t92 106t92.5 74.5z" />
    <glyph glyph-name="uni2151" unicode="&#x2151;" horiz-adv-x="1591" 
d="M250 1249h-6q-36 -46 -79.5 -69t-119.5 -23h-14v139q227 0 254 138h123v-846h-158v661zM389 0h-153l765 1434h154zM1405 412h-8q-11 -64 -66.5 -106t-152.5 -42q-120 0 -203.5 84t-83.5 221q0 130 90 206.5t223 76.5q173 0 254.5 -114.5t81.5 -321.5q0 -203 -86.5 -325
t-251.5 -122q-111 0 -196 62t-105 166h150q25 -105 151 -105q100 0 150 74t53 246zM1204 729q-80 0 -124 -48t-44 -112q0 -81 48 -129.5t120 -48.5q75 0 124.5 48.5t49.5 129.5q0 66 -47.5 113t-126.5 47z" />
    <glyph glyph-name="uni2152" unicode="&#x2152;" horiz-adv-x="2119" 
d="M250 1249h-6q-36 -46 -79.5 -69t-119.5 -23h-14v139q227 0 254 138h123v-846h-158v661zM389 0h-153l765 1434h154zM1735 -31q-158 0 -251 111t-93 330q0 220 93 331t251 111q160 0 252 -111t92 -331q0 -219 -92.5 -330t-251.5 -111zM1141 662h-6q-37 -47 -80 -70
t-119 -23h-14v140q227 0 254 137h122v-846h-157v662zM1735 100q103 0 144.5 81t41.5 229q0 71 -8.5 124.5t-29 97t-58 66.5t-90.5 23q-103 0 -145 -82t-42 -229q0 -148 42 -229t145 -81z" />
    <glyph glyph-name="uni2153" unicode="&#x2153;" horiz-adv-x="1570" 
d="M250 1249h-6q-36 -46 -79.5 -69t-119.5 -23h-14v139q227 0 254 138h123v-846h-158v661zM389 0h-153l765 1434h154zM1321 434v-6q213 -17 213 -207q0 -115 -92.5 -185.5t-224.5 -70.5q-145 0 -240.5 76.5t-95.5 210.5h145q1 -85 49.5 -123.5t141.5 -38.5q69 0 117 36.5
t48 104.5q0 146 -172 146h-63v104h57q162 0 162 127q0 57 -39.5 88t-114.5 31q-72 0 -114 -32.5t-43 -119.5h-150q1 94 43 157.5t108.5 90.5t153.5 27q61 0 113.5 -12.5t96 -38t68.5 -71.5t25 -107q0 -75 -49.5 -123.5t-142.5 -63.5z" />
    <glyph glyph-name="uni2154" unicode="&#x2154;" horiz-adv-x="1814" 
d="M651 588h-631v133q269 203 333 258q111 97 133 167q8 25 8 52q0 61 -43 93t-105 32q-163 0 -168 -141h-147q4 128 89 200t222 72q138 0 218.5 -69.5t80.5 -194.5q0 -35 -9.5 -68.5t-24.5 -63t-45 -62.5t-59 -61t-78.5 -66.5t-92.5 -69t-111 -78.5l2 -6q76 4 209 4h219
v-131zM633 0h-154l766 1434h154zM1565 434v-6q213 -17 213 -207q0 -115 -93 -185.5t-225 -70.5q-145 0 -240.5 76.5t-95.5 210.5h146q1 -85 49.5 -123.5t140.5 -38.5q70 0 118 36.5t48 104.5q0 146 -172 146h-63v104h57q162 0 162 127q0 57 -39.5 88t-114.5 31
q-72 0 -114.5 -32.5t-43.5 -119.5h-149q1 94 43 157.5t108.5 90.5t153.5 27q61 0 113.5 -12.5t96 -38t68.5 -71.5t25 -107q0 -75 -49.5 -123.5t-142.5 -63.5z" />
    <glyph glyph-name="uni2155" unicode="&#x2155;" horiz-adv-x="1570" 
d="M250 588v661h-6q-36 -46 -79.5 -69t-119.5 -23h-14v139q227 0 254 138h123v-846h-158zM236 0l765 1434h154l-766 -1434h-153zM1251 557q133 0 206 -84.5t73 -206.5q0 -130 -87.5 -213.5t-228.5 -83.5q-129 0 -223 66.5t-100 185.5h145q24 -129 178 -129q76 0 123 47.5
t47 126.5q0 72 -46 122t-121 50q-61 0 -100.5 -23.5t-65.5 -76.5l-142 29l80 467h484v-129h-369l-41 -248l6 -2q18 49 69.5 75.5t112.5 26.5z" />
    <glyph glyph-name="uni2156" unicode="&#x2156;" horiz-adv-x="1814" 
d="M432 719h219v-131h-631v133q269 203 333 258q111 97 133 167q8 25 8 52q0 61 -43 93t-105 32q-163 0 -168 -141h-147q4 128 89 200t222 72q138 0 218.5 -69.5t80.5 -194.5q0 -35 -9.5 -68.5t-24.5 -63t-45 -62.5t-59 -61t-78.5 -66.5t-92.5 -69t-111 -78.5l2 -6
q76 4 209 4zM479 0l766 1434h154l-766 -1434h-154zM1495 557q133 0 206 -84.5t73 -206.5q0 -130 -87.5 -213.5t-228.5 -83.5q-129 0 -223 66.5t-100 185.5h145q24 -129 178 -129q76 0 123 47.5t47 126.5q0 72 -46 122t-122 50q-61 0 -100.5 -23.5t-65.5 -76.5l-141 29
l80 467h483v-129h-368l-41 -248l6 -2q18 49 69.5 75.5t112.5 26.5z" />
    <glyph glyph-name="uni2157" unicode="&#x2157;" horiz-adv-x="1761" 
d="M674 827q0 -115 -93 -185.5t-225 -70.5q-145 0 -240.5 76.5t-95.5 210.5h146q1 -85 49.5 -123.5t140.5 -38.5q69 0 117.5 37t48.5 105q0 145 -172 145h-63v104h57q162 0 162 127q0 57 -39.5 88t-114.5 31q-72 0 -114 -32t-43 -119h-150q1 94 43 157t108.5 90t153.5 27
q61 0 113.5 -12.5t96 -38t68.5 -71.5t25 -107q0 -75 -49.5 -123.5t-142.5 -63.5v-6q213 -17 213 -207zM426 0l766 1434h154l-766 -1434h-154zM1442 557q133 0 205.5 -84.5t72.5 -206.5q0 -130 -87 -213.5t-228 -83.5q-130 0 -224 66.5t-100 185.5h146q24 -129 178 -129
q76 0 123 47.5t47 126.5q0 72 -46 122t-122 50q-61 0 -100.5 -23.5t-65.5 -76.5l-141 29l80 467h483v-129h-369l-41 -248l7 -2q18 49 69.5 75.5t112.5 26.5z" />
    <glyph glyph-name="uni2158" unicode="&#x2158;" horiz-adv-x="1796" 
d="M612 799v-211h-155v211h-426v143l422 492h159v-506h113v-129h-113zM461 0l766 1434h153l-766 -1434h-153zM287 1057l-113 -129h289v352h-6q-28 -56 -170 -223zM1477 557q133 0 205.5 -84.5t72.5 -206.5q0 -130 -87 -213.5t-228 -83.5q-130 0 -224 66.5t-100 185.5h146
q24 -129 178 -129q76 0 123 47.5t47 126.5q0 72 -46 122t-122 50q-61 0 -100.5 -23.5t-65.5 -76.5l-141 29l79 467h484v-129h-369l-41 -248l6 -2q18 49 70 75.5t113 26.5z" />
    <glyph glyph-name="uni2159" unicode="&#x2159;" horiz-adv-x="1568" 
d="M250 1249h-6q-36 -46 -79.5 -69t-119.5 -23h-14v139q227 0 254 138h123v-846h-158v661zM389 0h-153l765 1434h154zM1014 406h8q11 64 66.5 105.5t152.5 41.5q118 0 202.5 -81t84.5 -204q0 -144 -89.5 -223.5t-224.5 -79.5q-174 0 -259 115t-85 321q0 201 90.5 324
t256.5 123q111 0 196 -62t105 -165h-150q-24 104 -151 104q-100 0 -150 -73.5t-53 -245.5zM1214 88q80 0 124 48t44 112q0 81 -48 129.5t-120 48.5q-75 0 -124.5 -48.5t-49.5 -129.5q0 -66 47.5 -113t126.5 -47z" />
    <glyph glyph-name="uni215A" unicode="&#x215a;" horiz-adv-x="1759" 
d="M680 866q0 -130 -87 -213.5t-228 -83.5q-130 0 -224 66.5t-100 185.5h145q24 -129 179 -129q76 0 123 47.5t47 126.5q0 72 -46 122t-122 50q-61 0 -100.5 -23.5t-65.5 -76.5l-142 29l80 467h484v-129h-369l-41 -248l6 -2q18 49 69.5 75.5t112.5 26.5q133 0 206 -84.5
t73 -206.5zM426 0l766 1434h154l-766 -1434h-154zM1432 553q118 0 202 -80.5t84 -204.5q0 -144 -89 -223.5t-224 -79.5q-174 0 -259 115t-85 321q0 201 90 324t256 123q111 0 196 -62t105 -165h-149q-24 104 -152 104q-100 0 -150 -73.5t-53 -245.5h8q11 64 67 105.5
t153 41.5zM1405 88q80 0 124 48t44 112q0 81 -48 129.5t-120 48.5q-75 0 -124.5 -48.5t-49.5 -129.5q0 -66 47.5 -113t126.5 -47z" />
    <glyph glyph-name="oneeighth" unicode="&#x215b;" horiz-adv-x="1628" 
d="M250 1249h-6q-36 -46 -79.5 -69t-119.5 -23h-14v139q227 0 254 138h123v-846h-158v661zM403 0h-153l766 1434h153zM1249 -33q-153 0 -242 69.5t-89 188.5q0 76 48 134t130 81v9q-65 11 -103.5 59.5t-38.5 120.5q0 103 80 163t215 60q132 0 209.5 -60t77.5 -163
q0 -74 -36 -122.5t-99 -57.5v-9q82 -23 129 -80.5t47 -134.5q0 -119 -88.5 -188.5t-239.5 -69.5zM1249 481q72 0 113 37.5t39 102.5q-1 55 -42.5 87.5t-109.5 32.5q-72 0 -113.5 -32t-41.5 -88q0 -65 41.5 -102.5t113.5 -37.5zM1249 90q82 0 131 39.5t50 106.5t-47.5 106
t-133.5 39t-133.5 -37t-48.5 -102q0 -69 49 -110.5t133 -41.5z" />
    <glyph glyph-name="threeeighths" unicode="&#x215c;" horiz-adv-x="1775" 
d="M461 1040v-6q213 -17 213 -207q0 -115 -93 -185.5t-225 -70.5q-145 0 -240.5 76.5t-95.5 210.5h146q1 -85 49.5 -123.5t140.5 -38.5q69 0 117.5 37t48.5 105q0 145 -172 145h-63v104h57q162 0 162 127q0 57 -39.5 88t-114.5 31q-72 0 -114 -32t-43 -119h-150q1 94 43 157
t108.5 90t153.5 27q61 0 113.5 -12.5t96 -38t68.5 -71.5t25 -107q0 -75 -49.5 -123.5t-142.5 -63.5zM588 0h-154l766 1434h154zM1411 -33q-153 0 -242.5 69.5t-89.5 188.5q0 76 48 134t130 81v9q-65 11 -103 59.5t-38 120.5q0 103 80 163t215 60q132 0 209.5 -60t77.5 -163
q0 -74 -36 -122.5t-99 -57.5v-9q82 -23 129 -80.5t47 -134.5q0 -119 -88.5 -188.5t-239.5 -69.5zM1411 481q72 0 113 37.5t39 102.5q-1 55 -42.5 87.5t-109.5 32.5q-72 0 -114 -32.5t-42 -87.5q0 -65 42 -102.5t114 -37.5zM1411 90q82 0 130 39t50 107q1 67 -47 106t-133 39
t-133.5 -37t-48.5 -102q0 -69 49 -110.5t133 -41.5z" />
    <glyph glyph-name="fiveeighths" unicode="&#x215d;" horiz-adv-x="1767" 
d="M680 866q0 -130 -87 -213.5t-228 -83.5q-130 0 -224 66.5t-100 185.5h145q24 -129 179 -129q76 0 123 47.5t47 126.5q0 72 -46 122t-122 50q-61 0 -100.5 -23.5t-65.5 -76.5l-142 29l80 467h484v-129h-369l-41 -248l6 -2q18 49 69.5 75.5t112.5 26.5q133 0 206 -84.5
t73 -206.5zM436 0l766 1434h154l-766 -1434h-154zM1550 449v-9q82 -23 129 -80.5t47 -134.5q0 -119 -88 -188.5t-239 -69.5q-153 0 -242.5 69.5t-89.5 188.5q0 76 48 134t130 81v9q-65 11 -103 59.5t-38 120.5q0 103 80 163t215 60q132 0 209.5 -60t77.5 -163
q0 -74 -36.5 -122.5t-99.5 -57.5zM1243 621q0 -65 42 -102.5t114 -37.5t112.5 37.5t38.5 102.5q-1 55 -42 87.5t-109 32.5q-72 0 -114 -32.5t-42 -87.5zM1579 236q1 67 -47 106t-133 39t-133.5 -37t-48.5 -102q0 -69 49 -110.5t133 -41.5q82 0 130 39t50 107z" />
    <glyph glyph-name="seveneighths" unicode="&#x215e;" horiz-adv-x="1595" 
d="M516 1298v7h-485v129h592v-131q-70 -67 -117.5 -128.5t-89.5 -146t-64 -193.5t-24 -247h-162q2 113 25 215t58 176t82.5 138.5t92 106t92.5 74.5zM399 0h-153l766 1434h153zM1237 -33q-153 0 -242.5 69.5t-89.5 188.5q0 76 48 134t130 81v9q-65 11 -103 59.5t-38 120.5
q0 103 80 163t215 60q132 0 209.5 -60t77.5 -163q0 -74 -36 -122.5t-99 -57.5v-9q82 -23 129 -80.5t47 -134.5q0 -119 -88.5 -188.5t-239.5 -69.5zM1237 481q72 0 113 37.5t39 102.5q-1 55 -42.5 87.5t-109.5 32.5q-72 0 -114 -32.5t-42 -87.5q0 -65 42 -102.5t114 -37.5z
M1237 90q82 0 130 39t50 107q1 67 -47 106t-133 39t-133.5 -37t-48.5 -102q0 -69 49 -110.5t133 -41.5z" />
    <glyph glyph-name="uni2189" unicode="&#x2189;" horiz-adv-x="1779" 
d="M385 571q-158 0 -251 111t-93 330q0 220 93 331t251 111q160 0 252 -111t92 -331q0 -219 -92.5 -330t-251.5 -111zM598 0h-154l766 1434h154zM385 702q103 0 144.5 81t41.5 229q0 71 -8.5 124.5t-29 97t-58 66.5t-90.5 23t-90.5 -23t-58 -66.5t-29 -97t-8.5 -124.5
q0 -148 41.5 -229t144.5 -81zM1530 434v-6q213 -17 213 -207q0 -115 -93 -185.5t-225 -70.5q-145 0 -240 76.5t-95 210.5h145q1 -85 49.5 -123.5t140.5 -38.5q70 0 118 36.5t48 104.5q0 146 -172 146h-63v104h57q162 0 162 127q0 57 -39.5 88t-114.5 31q-72 0 -114 -32.5
t-43 -119.5h-150q1 94 43 157.5t108.5 90.5t153.5 27q61 0 113.5 -12.5t96 -38t68.5 -71.5t25 -107q0 -75 -49.5 -123.5t-142.5 -63.5z" />
    <glyph glyph-name="arrowleft" unicode="&#x2190;" 
d="M793 1436h176q0 -253 -123 -408t-340 -215v-10h1212v-168h-1212v-10q217 -60 340 -215t123 -408h-176q0 95 -30 180t-78 150.5t-122 128t-148 109t-171 96.5v106q97 50 171 96.5t148 109t122 128t78 150.5t30 180z" />
    <glyph glyph-name="arrowup" unicode="&#x2191;" 
d="M250 709v176q118 0 220 43t184 123.5t144.5 171t125.5 211.5h106q63 -121 125.5 -211.5t144.5 -171t184 -123.5t220 -43v-176q-254 0 -414 123.5t-219 338.5h-10v-1171h-168v1171h-10q-59 -215 -219 -338.5t-414 -123.5z" />
    <glyph glyph-name="arrowright" unicode="&#x2192;" 
d="M989 1436h176q0 -95 30 -180t78 -150.5t122 -128t148 -109t171 -96.5v-106q-97 -50 -171 -96.5t-148 -109t-122 -128t-78 -150.5t-30 -180h-176q0 253 123 408t340 215v10h-1212v168h1212v10q-217 60 -340 215t-123 408z" />
    <glyph glyph-name="arrowdown" unicode="&#x2193;" 
d="M250 549v176q254 0 414 -123.5t219 -339.5h10v1172h168v-1172h10q59 216 219 339.5t414 123.5v-176q-118 0 -220 -43t-184 -123.5t-144.5 -171t-125.5 -211.5h-106q-63 121 -125.5 211.5t-144.5 171t-184 123.5t-220 43z" />
    <glyph glyph-name="arrowboth" unicode="&#x2194;" horiz-adv-x="2314" 
d="M1589 1436h176q0 -95 30 -180t78 -150.5t122 -128t148 -109t171 -96.5v-106q-97 -50 -171 -96.5t-148 -109t-122 -128t-78 -150.5t-30 -180h-176q0 253 123 408t340 215v10h-1790v-10q217 -60 340 -215t123 -408h-176q0 95 -30 180t-78 150.5t-122 128t-148 109
t-171 96.5v106q97 50 171 96.5t148 109t122 128t78 150.5t30 180h176q0 -253 -123 -408t-340 -215v-10h1790v10q-217 60 -340 215t-123 408z" />
    <glyph glyph-name="arrowupdn" unicode="&#x2195;" horiz-adv-x="1955" 
d="M1061 1432v-1547h10q59 216 219 339.5t414 123.5v-176q-118 0 -220 -43t-184 -123.5t-144.5 -171t-125.5 -211.5h-106q-63 121 -125.5 211.5t-144.5 171t-184 123.5t-220 43v176q254 0 414 -123.5t219 -339.5h10v1547h-10q-59 -216 -219 -339.5t-414 -123.5v176
q118 0 220 43t184 123.5t144.5 171t125.5 211.5h106q63 -121 125.5 -211.5t144.5 -171t184 -123.5t220 -43v-176q-254 0 -414 123.5t-219 339.5h-10z" />
    <glyph glyph-name="uni2196" unicode="&#x2196;" 
d="M1556 1358l123 -129q-71 -71 -173 -111t-209 -47t-219 7.5t-209.5 47t-174.5 76.5l-6 -8l1038 -1001l-120 -123l-1037 1005l-8 -6q56 -98 91 -219.5t43 -252t-31.5 -257t-128.5 -215.5l-132 121q55 55 87 133t38 169.5t0.5 182.5t-28 195.5t-44 184.5t-50.5 171l75 76
q109 -35 211 -61.5t235 -47t243 -20t215 31.5t171 97z" />
    <glyph glyph-name="uni2197" unicode="&#x2197;" horiz-adv-x="1871" 
d="M279 1229l122 129q66 -66 171.5 -97t215 -31.5t242.5 20t235.5 47t211.5 61.5l75 -76q-36 -112 -61 -207.5t-46.5 -224.5t-20 -232t32.5 -204.5t97 -167.5l-131 -121q-89 89 -128.5 215.5t-31.5 257t43 252t91 219.5l-8 6l-1037 -1005l-121 123l1039 1001l-6 8
q-77 -44 -174.5 -76.5t-209.5 -47t-219 -7.5t-209 47t-173 111z" />
    <glyph glyph-name="uni2198" unicode="&#x2198;" 
d="M401 63l-122 130q88 88 222 128t271.5 32t266 -43t225.5 -91l6 8l-1039 1002l121 123l1037 -1006l8 6q-56 98 -91 219.5t-43 252t31.5 257t128.5 215.5l131 -120q-66 -66 -97 -167.5t-32.5 -204.5t20 -232t46.5 -225t61 -208l-75 -76q-109 35 -211.5 61.5t-235.5 47
t-242.5 20t-215 -31.5t-171.5 -97z" />
    <glyph glyph-name="uni2199" unicode="&#x2199;" 
d="M1679 193l-123 -130q-66 66 -171 97t-215 31.5t-243 -20t-235 -47t-211 -61.5l-75 76q29 91 50.5 171t44 184.5t28 196t-0.5 183t-38 169.5t-87 133l132 120q89 -89 128.5 -215.5t31.5 -257t-43 -252t-91 -219.5l8 -6l1037 1006l120 -123l-1038 -1002l6 -8
q97 56 225.5 91t266 43t271.5 -32t222 -128z" />
    <glyph glyph-name="uni21A9" unicode="&#x21a9;" horiz-adv-x="1925" 
d="M1761 1010q0 -187 -115.5 -289.5t-318.5 -102.5h-919v-4q196 -86 206 -284h-112q-7 98 -91.5 170t-246.5 139v63q72 30 128 60.5t104 68.5t75 83.5t31 95.5h112q-13 -200 -206 -285v-4h921q157 0 239.5 73t82.5 216q0 288 -322 288h-461v103h459q204 0 319 -101.5
t115 -289.5z" />
    <glyph glyph-name="uni21AA" unicode="&#x21aa;" horiz-adv-x="1925" 
d="M164 1010q0 188 115 289.5t319 101.5h459v-103h-461q-322 0 -322 -288q0 -143 82.5 -216t239.5 -73h922v4q-194 86 -207 285h112q4 -50 31 -95.5t75 -83.5t104 -68.5t128 -60.5v-63q-162 -67 -246.5 -139t-91.5 -170h-112q6 109 60 176t147 108v4h-920
q-203 0 -318.5 102.5t-115.5 289.5z" />
    <glyph glyph-name="uni21B0" unicode="&#x21b0;" horiz-adv-x="1832" 
d="M164 1198v64q72 30 128 60.5t104 68t75 83t31 95.5h112q-13 -200 -206 -285v-4h1261v-1280h-104v1178h-1157v-4q196 -86 206 -285h-112q-7 98 -91.5 170t-246.5 139z" />
    <glyph glyph-name="uni21B1" unicode="&#x21b1;" horiz-adv-x="1832" 
d="M1669 1262v-64q-162 -67 -246.5 -139t-91.5 -170h-112q10 199 206 285v4h-1157v-1178h-104v1280h1261v4q-193 85 -206 285h112q4 -50 31 -95.5t75 -83t104 -68t128 -60.5z" />
    <glyph glyph-name="uni21B2" unicode="&#x21b2;" horiz-adv-x="1832" 
d="M164 307v64q162 67 246.5 139t91.5 170h112q-10 -199 -206 -285v-4h1157v1178h104v-1280h-1261v-4q193 -85 206 -285h-112q-4 50 -31 95.5t-75 83t-104 68t-128 60.5z" />
    <glyph glyph-name="uni21B3" unicode="&#x21b3;" horiz-adv-x="1832" 
d="M1669 371v-64q-72 -30 -128 -60.5t-104 -68t-75 -83t-31 -95.5h-112q13 200 206 285v4h-1261v1280h104v-1178h1157v4q-196 86 -206 285h112q7 -98 91.5 -170t246.5 -139z" />
    <glyph glyph-name="uni21B4" unicode="&#x21b4;" horiz-adv-x="1896" 
d="M1425 0h-63q-67 162 -139 246.5t-170 91.5v113q109 -6 176 -60t108 -147h4v1220h-1177v105h1280v-1325h4q86 194 285 207v-113q-50 -4 -95.5 -31t-83.5 -75t-68.5 -104t-60.5 -128z" />
    <glyph glyph-name="uni21BB" unicode="&#x21bb;" horiz-adv-x="2107" 
d="M164 719q0 220 101 393t270 265.5t374 92.5q153 0 289.5 -54t237.5 -150t160 -237t59 -306v-64h4q86 194 285 207v-112q-50 -4 -95.5 -31t-83.5 -75t-68.5 -104t-60.5 -128h-71q-66 161 -138.5 246t-171.5 92v112q184 -9 285 -207h4v64q0 139 -51.5 260t-138 205
t-202.5 132t-243 48t-242.5 -48t-201.5 -132t-137.5 -205t-51.5 -260q0 -140 51.5 -263t137.5 -208t202 -133.5t242 -48.5q128 0 252 51t223 141l76 -74q-229 -221 -551 -221q-152 0 -288 54t-237 150.5t-160.5 238.5t-59.5 309z" />
    <glyph glyph-name="uni21C4" unicode="&#x21c4;" horiz-adv-x="1880" 
d="M1608 1118v-102h-1200v-4q196 -86 206 -285h-112q-7 98 -91.5 170t-246.5 139v64q72 30 128 60.5t104 68t75 83t31 95.5h112q-13 -200 -206 -285v-4h1200zM1473 317h-1201v103h1201v4q-194 86 -207 285h112q4 -50 31 -95.5t75 -83.5t104 -68.5t128 -60.5v-63
q-162 -67 -246.5 -139t-91.5 -170h-112q6 109 60 176t147 108v4z" />
    <glyph glyph-name="uni21C5" unicode="&#x21c5;" horiz-adv-x="1705" 
d="M1253 1249v-1200h-102v1200h-4q-87 -197 -285 -207v113q98 7 170 91.5t139 246.5h64q30 -72 60.5 -128t68 -104t83 -75t95.5 -31v-113q-199 13 -285 207h-4zM453 1384h102v-1200h4q86 194 285 207v-112q-50 -4 -95.5 -31t-83 -75t-68 -104t-60.5 -128h-64
q-67 162 -139 246.5t-170 91.5v112q198 -10 285 -207h4v1200z" />
    <glyph glyph-name="partialdiff" unicode="&#x2202;" horiz-adv-x="1288" 
d="M766 1470q207 0 313.5 -123t106.5 -335q0 -300 -101 -561q-86 -225 -235.5 -354.5t-347.5 -129.5q-186 0 -298 106t-112 283q0 121 45 231.5t119.5 189.5t175 126t207.5 47q72 0 131 -19t104.5 -59.5t65 -111.5t6.5 -166l12 -2q54 202 54 412q0 153 -62 232t-200 79
q-98 0 -183 -67t-131 -171h-174q67 181 200.5 287t303.5 106zM506 123q105 0 193 63.5t136 161.5t48 203q0 115 -62 179.5t-168 64.5q-102 0 -190 -61.5t-138.5 -160t-50.5 -206.5q0 -109 63.5 -176.5t168.5 -67.5z" />
    <glyph glyph-name="product" unicode="&#x220f;" horiz-adv-x="1873" 
d="M133 1434h1608v-156h-225v-1655h-173v1655h-813v-1655h-172v1655h-225v156z" />
    <glyph glyph-name="summation" unicode="&#x2211;" horiz-adv-x="1177" 
d="M1126 -377h-1075v156l340 422q161 204 293 323v8q-61 55 -124 123.5t-97 109.5t-101 124l-311 389v156h1055v-156h-424q-250 0 -428 12l-4 -8q128 -149 270 -326l322 -387v-82l-322 -387q-10 -11 -50 -60t-102 -124t-118 -141l4 -8q175 12 428 12h444v-156z" />
    <glyph glyph-name="minus" unicode="&#x2212;" horiz-adv-x="1124" 
d="M82 803h960v-148h-960v148z" />
    <glyph glyph-name="radical" unicode="&#x221a;" horiz-adv-x="1605" 
d="M1575 1434v-152h-225l-594 -1659h-189l-311 856h-225v152h344l137 -389q4 -12 17 -48.5t16.5 -46t13.5 -39.5t13.5 -41t12.5 -38t13.5 -43t13 -43.5t15 -51.5t15 -54.5t17.5 -65.5h11q54 217 141 473l420 1190h344z" />
    <glyph glyph-name="infinity" unicode="&#x221e;" horiz-adv-x="1626" 
d="M442 336q-168 0 -264 108t-96 285q0 176 96 284.5t264 108.5q109 0 207.5 -65t159.5 -197h8q61 132 159.5 197t207.5 65q168 0 264 -108t96 -285q0 -176 -96 -284.5t-264 -108.5q-109 0 -207.5 64.5t-159.5 195.5h-8q-61 -131 -159.5 -195.5t-207.5 -64.5zM442 477
q151 0 295 252q-144 252 -295 252q-90 0 -144 -73t-54 -179q0 -108 55 -180t143 -72zM1184 477q90 0 144 73t54 179q0 108 -55 180t-143 72q-151 0 -295 -252q144 -252 295 -252z" />
    <glyph glyph-name="integral" unicode="&#x222b;" horiz-adv-x="882" 
d="M227 -395q-31 0 -145 6v143q111 -6 125 -6q151 0 151 150l2 1269q0 142 77 219.5t218 77.5q15 0 34 -0.5t51 -1.5t61 -2v-143q-31 1 -58.5 2t-42 1.5t-24.5 0.5q-75 0 -117.5 -38t-42.5 -112v-1269q0 -143 -74.5 -220t-214.5 -77z" />
    <glyph glyph-name="approxequal" unicode="&#x2248;" horiz-adv-x="1083" 
d="M225 764h-143q11 116 81 188t181 72q60 0 137 -25.5t147 -51t111 -25.5q101 0 119 112h143q-11 -116 -81 -188t-181 -72q-66 0 -206 51.5t-189 51.5q-101 0 -119 -113zM225 395h-143q11 116 81 188t181 72q60 0 137 -25.5t147 -51t111 -25.5q101 0 119 113h143
q-11 -116 -81 -188t-181 -72q-66 0 -206 51t-189 51q-101 0 -119 -113z" />
    <glyph glyph-name="notequal" unicode="&#x2260;" horiz-adv-x="1124" 
d="M1042 979v-148h-397l-74 -204h471v-148h-526l-82 -221l-78 25l74 196h-348v148h403l78 204h-481v148h536l76 203l74 -21l-68 -182h342z" />
    <glyph glyph-name="lessequal" unicode="&#x2264;" horiz-adv-x="1083" 
d="M1001 467v-176l-919 375v170l919 374v-176l-190 -76q-304 -122 -563 -202v-8q287 -93 528 -191zM1001 147v-147h-919v147h919z" />
    <glyph glyph-name="greaterequal" unicode="&#x2265;" horiz-adv-x="1083" 
d="M1001 666l-919 -375v176l225 90q237 96 529 191v8q-263 81 -564 202l-190 76v176l919 -374v-170zM1001 0h-919v147h919v-147z" />
    <glyph glyph-name="uni2460" unicode="&#x2460;" horiz-adv-x="1937" 
d="M969 -258q-195 0 -373.5 73t-309.5 197.5t-208.5 301.5t-77.5 376q0 201 78 379t209 302t309 195.5t373 71.5q202 0 381.5 -73.5t308 -199.5t203.5 -302t75 -373q0 -159 -49 -305.5t-139 -262.5t-209 -202t-266 -132t-305 -46zM969 -117q224 0 410.5 103.5t295.5 289
t109 414.5q0 171 -63 321.5t-171.5 257t-259 167.5t-321.5 61t-321.5 -61t-259 -167.5t-171.5 -257t-63 -321.5q0 -230 110 -416t296 -288.5t409 -102.5zM934 952h-6q-40 -52 -87 -77t-130 -25h-17v154q249 0 279 149h133v-924h-172v723z" />
    <glyph glyph-name="uni2461" unicode="&#x2461;" 
d="M969 -258q-195 0 -373.5 73t-309.5 197.5t-208.5 301.5t-77.5 376q0 201 78 379t209 302t309 195.5t373 71.5q202 0 381.5 -73.5t308 -199.5t203.5 -302t75 -373q0 -159 -49 -305.5t-139 -262.5t-209 -202t-266 -132t-305 -46zM969 -117q224 0 410.5 103.5t295.5 289
t109 414.5q0 171 -63 321.5t-171.5 257t-259 167.5t-321.5 61t-321.5 -61t-259 -167.5t-171.5 -257t-63 -321.5q0 -230 110 -416t296 -288.5t409 -102.5zM1313 248h-688v145q287 218 356 276q122 105 149 179q11 31 11 65q0 67 -47 102.5t-115 35.5q-177 0 -182 -154h-162
q6 139 98 218t242 79q151 0 239.5 -76.5t88.5 -212.5q0 -53 -20.5 -103.5t-52.5 -92.5t-96.5 -97.5t-124.5 -100t-165 -118.5l2 -6q82 4 227 4h240v-143z" />
    <glyph glyph-name="uni2462" unicode="&#x2462;" 
d="M969 -258q-195 0 -373.5 73t-309.5 197.5t-208.5 301.5t-77.5 376q0 201 78 379t209 302t309 195.5t373 71.5q202 0 381.5 -73.5t308 -199.5t203.5 -302t75 -373q0 -159 -49 -305.5t-139 -262.5t-209 -202t-266 -132t-305 -46zM969 -117q224 0 410.5 103.5t295.5 289
t109 414.5q0 171 -63 321.5t-171.5 257t-259 167.5t-321.5 61t-321.5 -61t-259 -167.5t-171.5 -257t-63 -321.5q0 -230 110 -416t296 -288.5t409 -102.5zM979 205q-159 0 -263 83t-104 230h158q3 -94 56 -136t153 -42q76 0 129 40.5t53 115.5q0 157 -188 157h-70v115h64
q176 0 176 139q0 62 -43.5 95.5t-124.5 33.5q-165 0 -170 -141h-166q0 128 95.5 202t238.5 74q67 0 124 -13.5t104.5 -42t74.5 -78.5t27 -117q0 -82 -54 -134t-155 -69v-6q231 -20 231 -228q0 -125 -100.5 -201.5t-245.5 -76.5z" />
    <glyph glyph-name="uni2463" unicode="&#x2463;" 
d="M969 -258q-195 0 -373.5 73t-309.5 197.5t-208.5 301.5t-77.5 376q0 201 78 379t209 302t309 195.5t373 71.5q202 0 381.5 -73.5t308 -199.5t203.5 -302t75 -373q0 -159 -49 -305.5t-139 -262.5t-209 -202t-266 -132t-305 -46zM969 -117q224 0 410.5 103.5t295.5 289
t109 414.5q0 171 -63 321.5t-171.5 257t-259 167.5t-321.5 61t-321.5 -61t-259 -167.5t-171.5 -257t-63 -321.5q0 -230 110 -416t296 -288.5t409 -102.5zM1174 250h-170v231h-467v156l462 539h175v-553h122v-142h-122v-231zM817 764l-123 -141h316v385h-6q-33 -68 -187 -244
z" />
    <glyph glyph-name="uni2464" unicode="&#x2464;" 
d="M969 1638q202 0 381.5 -73.5t308 -199.5t203.5 -302t75 -373q0 -159 -49 -305.5t-139 -262.5t-209 -202t-266 -132t-305 -46q-195 0 -373.5 73t-309.5 197.5t-208.5 301.5t-77.5 376q0 201 78 379t209 302t309 195.5t373 71.5zM969 -117q224 0 410.5 103.5t295.5 289
t109 414.5q0 171 -63 321.5t-171.5 257t-259 167.5t-321.5 61t-321.5 -61t-259 -167.5t-171.5 -257t-63 -321.5q0 -230 110 -416t296 -288.5t409 -102.5zM1018 850q98 0 169 -46t103.5 -117t32.5 -157q0 -142 -95.5 -233.5t-250.5 -91.5q-141 0 -244.5 73t-109.5 203h159
q26 -141 195 -141q84 0 135 51.5t51 138.5q0 78 -50.5 133.5t-133.5 55.5q-66 0 -109.5 -26t-70.5 -85l-156 33l88 512h531v-141h-406l-45 -273l6 -2q21 53 78 83t123 30z" />
    <glyph glyph-name="uni2465" unicode="&#x2465;" 
d="M969 -258q-195 0 -373.5 73t-309.5 197.5t-208.5 301.5t-77.5 376q0 201 78 379t209 302t309 195.5t373 71.5q202 0 381.5 -73.5t308 -199.5t203.5 -302t75 -373q0 -159 -49 -305.5t-139 -262.5t-209 -202t-266 -132t-305 -46zM969 -117q224 0 410.5 103.5t295.5 289
t109 414.5q0 171 -63 321.5t-171.5 257t-259 167.5t-321.5 61t-321.5 -61t-259 -167.5t-171.5 -257t-63 -321.5q0 -230 110 -416t296 -288.5t409 -102.5zM766 690h8q13 69 73.5 114.5t166.5 45.5q129 0 221 -87.5t92 -221.5q0 -157 -98 -244.5t-244 -87.5q-190 0 -283.5 126
t-93.5 351q0 219 99 353.5t280 134.5q121 0 214 -67.5t116 -180.5h-164q-27 112 -166 112q-109 0 -163.5 -80.5t-57.5 -267.5zM985 344q87 0 134.5 52t47.5 122q0 89 -52 142t-130 53q-83 0 -136.5 -53t-53.5 -142q0 -72 52 -123t138 -51z" />
    <glyph glyph-name="uni2466" unicode="&#x2466;" 
d="M969 -258q-195 0 -373.5 73t-309.5 197.5t-208.5 301.5t-77.5 376q0 201 78 379t209 302t309 195.5t373 71.5q202 0 381.5 -73.5t308 -199.5t203.5 -302t75 -373q0 -159 -49 -305.5t-139 -262.5t-209 -202t-266 -132t-305 -46zM969 -117q224 0 410.5 103.5t295.5 289
t109 414.5q0 171 -63 321.5t-171.5 257t-259 167.5t-321.5 61t-321.5 -61t-259 -167.5t-171.5 -257t-63 -321.5q0 -230 110 -416t296 -288.5t409 -102.5zM1182 983v8h-533v142h649v-144q-60 -59 -103.5 -110.5t-86 -122t-69 -147.5t-43.5 -179.5t-19 -224.5h-178
q2 124 27 235.5t63 193t90 152t101 116t102 81.5z" />
    <glyph glyph-name="uni2467" unicode="&#x2467;" 
d="M969 -258q-195 0 -373.5 73t-309.5 197.5t-208.5 301.5t-77.5 376q0 201 78 379t209 302t309 195.5t373 71.5q202 0 381.5 -73.5t308 -199.5t203.5 -302t75 -373q0 -159 -49 -305.5t-139 -262.5t-209 -202t-266 -132t-305 -46zM969 -117q224 0 410.5 103.5t295.5 289
t109 414.5q0 171 -63 321.5t-171.5 257t-259 167.5t-321.5 61t-321.5 -61t-259 -167.5t-171.5 -257t-63 -321.5q0 -230 110 -416t296 -288.5t409 -102.5zM979 203q-105 0 -184.5 28t-130 93t-50.5 161q0 95 56.5 154t138.5 82v10q-62 9 -108 66.5t-46 128.5q0 114 92 181
t232 67q136 0 224.5 -67t88.5 -181q0 -73 -42 -129.5t-105 -65.5v-10q82 -23 137 -82t55 -154q0 -136 -101 -209t-257 -73zM979 766q78 0 123 41.5t43 112.5q-2 57 -46 95t-120 38q-80 0 -126 -38t-46 -95q0 -71 46.5 -112.5t125.5 -41.5zM979 338q93 0 144 41t53 108
q1 83 -56.5 126.5t-140.5 43.5q-88 0 -144.5 -41.5t-56.5 -119.5q0 -72 53 -115t148 -43z" />
    <glyph glyph-name="uni2468" unicode="&#x2468;" 
d="M989 1638q195 0 373.5 -73t309.5 -197.5t208.5 -301.5t77.5 -376q0 -201 -78 -379t-209 -302t-309 -195.5t-373 -71.5q-202 0 -381.5 73.5t-308.5 199.5t-204 302t-75 373q0 159 49.5 305.5t139 262.5t209 202t266.5 132t305 46zM989 1497q-224 0 -410.5 -103.5
t-295.5 -289t-109 -414.5q0 -171 63 -321.5t171.5 -257t259 -167.5t321.5 -61t321.5 61t259 167.5t171.5 257t63 321.5q0 230 -110 416t-296 288.5t-409 102.5zM1192 690h-8q-13 -69 -73.5 -114.5t-166.5 -45.5q-129 0 -221 88t-92 222q0 157 98 244t244 87
q190 0 283.5 -126t93.5 -351q0 -219 -99 -353t-280 -134q-121 0 -214 67.5t-116 180.5h164q27 -113 166 -113q109 0 163.5 80.5t57.5 267.5zM973 1036q-87 0 -134.5 -52t-47.5 -122q0 -89 51.5 -141.5t130.5 -52.5q83 0 136.5 52.5t53.5 141.5q0 72 -52 123t-138 51z" />
    <glyph glyph-name="uni24EA" unicode="&#x24ea;" horiz-adv-x="1937" 
d="M969 -258q-195 0 -373.5 73t-309.5 197.5t-208.5 301.5t-77.5 376q0 201 78 379t209 302t309 195.5t373 71.5q202 0 381.5 -73.5t308 -199.5t203.5 -302t75 -373q0 -159 -49 -305.5t-139 -262.5t-209 -202t-266 -132t-305 -46zM969 -117q224 0 410.5 103.5t295.5 289
t109 414.5q0 171 -63 321.5t-171.5 257t-259 167.5t-321.5 61t-321.5 -61t-259 -167.5t-171.5 -257t-63 -321.5q0 -230 110 -416t296 -288.5t409 -102.5zM979 205q-173 0 -275 122t-102 361q0 241 102 363.5t275 122.5q175 0 277 -122.5t102 -363.5q0 -240 -102 -361.5
t-277 -121.5zM979 348q59 0 100 24.5t63.5 71.5t32 106t9.5 138q0 78 -9.5 136.5t-32 106.5t-63.5 73.5t-100 25.5t-100 -25.5t-63.5 -73.5t-32 -106.5t-9.5 -136.5q0 -79 9.5 -138t32 -106t63.5 -71.5t100 -24.5z" />
    <glyph glyph-name="uni24FF" unicode="&#x24ff;" 
d="M979 -256q-204 0 -386 74t-311.5 200.5t-205.5 302t-76 371.5q0 199 76.5 375t207 301.5t311.5 198.5t384 73q204 0 385.5 -73.5t311.5 -199.5t206 -302t76 -373q0 -198 -76.5 -374t-207 -302t-311.5 -199t-384 -73zM979 205q175 0 277 121.5t102 361.5q0 241 -102 363.5
t-277 122.5q-173 0 -275 -122.5t-102 -363.5q0 -239 102 -361t275 -122zM979 348q-59 0 -100 24.5t-63.5 71.5t-32 106t-9.5 138q0 78 9.5 136.5t32 106.5t63.5 73.5t100 25.5t100 -25.5t63.5 -73.5t32 -106.5t9.5 -136.5q0 -79 -9.5 -138t-32 -106t-63.5 -71.5t-100 -24.5z
" />
    <glyph glyph-name="filledbox" unicode="&#x25a0;" 
d="M1909 -221h-1860v1818h1860v-1818z" />
    <glyph glyph-name="uni25A1" unicode="&#x25a1;" 
d="M1909 -221h-1860v1818h1860v-1818zM203 1460v-1544h1552v1544h-1552z" />
    <glyph glyph-name="lozenge" unicode="&#x25ca;" horiz-adv-x="1163" 
d="M496 1434h172l444 -717l-444 -717h-172l-445 717zM575 147h13q20 42 46 89.5t43.5 77t51 85t45.5 74.5l146 244l-162 268q-124 204 -170 301h-13q-42 -92 -169 -301l-162 -268l145 -242q12 -20 57.5 -95t74 -126.5t54.5 -106.5z" />
    <glyph glyph-name="circle" unicode="&#x25cb;" horiz-adv-x="1937" 
d="M969 -258q-195 0 -373.5 73t-309.5 197.5t-208.5 301.5t-77.5 376q0 201 78 379t209 302t309 195.5t373 71.5q202 0 381.5 -73.5t308 -199.5t203.5 -302t75 -373q0 -159 -49 -305.5t-139 -262.5t-209 -202t-266 -132t-305 -46zM969 -117q224 0 410.5 103.5t295.5 289
t109 414.5q0 171 -63 321.5t-171.5 257t-259 167.5t-321.5 61t-321.5 -61t-259 -167.5t-171.5 -257t-63 -321.5q0 -230 110 -416t296 -288.5t409 -102.5z" />
    <glyph glyph-name="uni25CF" unicode="&#x25cf;" 
d="M979 -256q-204 0 -386 74t-311.5 200.5t-205.5 302t-76 371.5q0 199 76.5 375t207 301.5t311.5 198.5t384 73q204 0 385.5 -73.5t311.5 -199.5t206 -302t76 -373q0 -198 -76.5 -374t-207 -302t-311.5 -199t-384 -73z" />
    <glyph glyph-name="smileface" unicode="&#x263a;" horiz-adv-x="1777" 
d="M889 -125q-231 0 -426 114t-308.5 309t-113.5 425t113.5 424.5t308.5 308t426 113.5t426 -113.5t308.5 -308t113.5 -424.5t-113.5 -425t-308.5 -309t-426 -114zM889 16q144 0 273 56t221 151t146 225.5t54 274.5q0 192 -91 353.5t-251 256t-352 94.5t-352 -94.5
t-251 -256t-91 -353.5q0 -144 54 -274.5t146 -225.5t221 -151t273 -56zM522 829q-43 0 -73.5 30t-30.5 73q0 41 30.5 71.5t73.5 30.5q41 0 72 -30.5t31 -71.5q0 -42 -30.5 -72.5t-72.5 -30.5zM1260 829q-43 0 -73 30t-30 73q0 42 30.5 72t72.5 30q41 0 71.5 -30.5
t30.5 -71.5q0 -42 -30 -72.5t-72 -30.5zM1264 711h153q0 -107 -41.5 -205.5t-111 -169.5t-166.5 -113.5t-203 -42.5q-144 0 -267.5 71.5t-195.5 194t-72 265.5h154q0 -161 112.5 -275t268.5 -114q154 0 261.5 114t107.5 275z" />
    <glyph glyph-name="invsmileface" unicode="&#x263b;" horiz-adv-x="1777" 
d="M889 -125q-231 0 -426 114t-308.5 309t-113.5 425t113.5 424.5t308.5 308t426 113.5t426 -113.5t308.5 -308t113.5 -424.5t-113.5 -425t-308.5 -309t-426 -114zM481 850q42 0 72.5 30t30.5 72q0 41 -31 72t-72 31q-43 0 -73.5 -30.5t-30.5 -72.5q0 -43 30.5 -72.5
t73.5 -29.5zM1300 850q42 0 72.5 30t30.5 72q0 41 -31 72t-72 31q-42 0 -72 -30.5t-30 -72.5q0 -43 29.5 -72.5t72.5 -29.5zM895 160q147 0 272 74t198 201t73 276h-154q0 -169 -114 -289.5t-275 -120.5q-166 0 -283.5 120.5t-117.5 289.5h-154q0 -149 74.5 -276t202.5 -201
t278 -74z" />
    <glyph glyph-name="sun" unicode="&#x263c;" horiz-adv-x="1775" 
d="M793 -8l69 629l-258 -578q-30 -68 -91 -67q-50 0 -80 41q-37 54 4 117q1 3 3 5l375 510l-512 -373q-62 -45 -116 -11q-43 27 -45 77q-4 62 61 95q3 2 6 3l575 254l-626 -65q-75 -8 -105 47q-25 45 0 92q31 55 107 49l628 -69l-579 258q-67 29 -67 90q-1 50 41 80
q53 37 116 -3l6 -4l508 -374l-373 512q-45 63 -10 117q28 42 79 44q62 3 95 -62q1 -3 2 -5l256 -584l-69 635q-8 73 43.5 104t103 0t43.5 -104l-70 -629l258 578q30 68 91 67q50 0 80 -41q37 -54 -4 -117q-1 -3 -3 -5l-374 -510l512 372q63 36 112.5 13t49 -84t-67.5 -92
l-576 -254l627 65q75 8 105 -47q25 -45 0 -92q-31 -55 -107 -49l-629 69l580 -258q68 -30 67 -91q0 -51 -43 -80q-54 -38 -118 5l-3 2l-507 375l372 -512q45 -63 10 -117q-28 -42 -79 -44q-62 -3 -95 62q-1 3 -2 5l-256 584l70 -635q8 -73 -43.5 -104t-103 0t-43.5 104z" />
    <glyph glyph-name="uni2661" unicode="&#x2661;" horiz-adv-x="1841" 
d="M1329 1473q187 0 313.5 -130.5t126.5 -316.5q0 -107 -38.5 -205t-102 -175t-142 -147t-163.5 -134t-160 -123.5t-137.5 -127t-91.5 -132.5h-16q-29 65 -92.5 132.5t-139 127t-162 123.5t-165.5 134t-144 147t-104 175t-39 205q0 186 129 316.5t321 130.5
q145 0 261.5 -96.5t136.5 -233.5h16q17 137 132 233.5t261 96.5zM926 215q39 51 101 106.5t124 103t130.5 99.5t126.5 106t105.5 113.5t75 132t27.5 150.5q0 136 -76 219.5t-201 83.5q-128 0 -207.5 -98.5t-82.5 -261.5h-238q-7 162 -90 261t-209 99q-129 0 -208 -83.5
t-79 -219.5q0 -78 28 -150t76 -131.5t107.5 -114t129 -107t132.5 -99.5t125.5 -102.5t102.5 -106.5z" />
    <glyph glyph-name="heart" unicode="&#x2665;" horiz-adv-x="1800" 
d="M913 -18h-16q-29 65 -91 132.5t-136 127t-158 123.5t-161 134t-140 147t-101 175t-38 205q0 185 126 316t304 131q145 0 261 -96.5t136 -233.5h16q17 137 132.5 233.5t261.5 96.5q173 0 296.5 -131.5t123.5 -315.5q0 -107 -37.5 -205t-99.5 -175t-138 -147t-159 -134
t-156.5 -123.5t-135 -127t-90.5 -132.5z" />
    <glyph glyph-name="uni2776" unicode="&#x2776;" 
d="M979 -256q-204 0 -386 74t-311.5 200.5t-205.5 302t-76 371.5q0 199 76.5 375t207 301.5t311.5 198.5t384 73q204 0 385.5 -73.5t311.5 -199.5t206 -302t76 -373q0 -198 -76.5 -374t-207 -302t-311.5 -199t-384 -73zM932 932v-662h158v846h-123q-27 -137 -254 -137v-139
h14q76 0 119.5 23t79.5 69h6z" />
    <glyph glyph-name="uni2777" unicode="&#x2777;" 
d="M979 -256q-204 0 -386 74t-311.5 200.5t-205.5 302t-76 371.5q0 199 76.5 375t207 301.5t311.5 198.5t384 73q204 0 385.5 -73.5t311.5 -199.5t206 -302t76 -373q0 -198 -76.5 -374t-207 -302t-311.5 -199t-384 -73zM649 393v-145h688v143h-239q-146 0 -228 -4l-2 6
q105 74 165 118.5t124.5 100t96.5 97.5t52.5 92.5t20.5 103.5q0 136 -88.5 212.5t-239.5 76.5q-150 0 -242 -79t-98 -218h162q5 154 183 154q68 0 114.5 -35.5t46.5 -102.5q0 -90 -88 -176t-370 -300q-13 -10 -20 -15t-18 -13.5t-20 -15.5z" />
    <glyph glyph-name="uni2778" unicode="&#x2778;" 
d="M979 -256q-204 0 -386 74t-311.5 200.5t-205.5 302t-76 371.5q0 199 76.5 375t207 301.5t311.5 198.5t384 73q204 0 385.5 -73.5t311.5 -199.5t206 -302t76 -373q0 -198 -76.5 -374t-207 -302t-311.5 -199t-384 -73zM989 205q145 0 245.5 76.5t100.5 201.5
q0 208 -231 228v6q101 17 155 69t54 134q0 67 -27 117t-74.5 78.5t-104.5 42t-124 13.5q-143 0 -238.5 -74t-95.5 -202h166q5 141 170 141q81 0 124.5 -33.5t43.5 -95.5q0 -139 -176 -139h-64v-115h70q188 0 188 -157q0 -75 -53 -115.5t-129 -40.5q-100 0 -153 42t-56 136
h-157q0 -147 103.5 -230t262.5 -83z" />
    <glyph glyph-name="uni2779" unicode="&#x2779;" 
d="M979 -256q-204 0 -386 74t-311.5 200.5t-205.5 302t-76 371.5q0 199 76.5 375t207 301.5t311.5 198.5t384 73q204 0 385.5 -73.5t311.5 -199.5t206 -302t76 -373q0 -198 -76.5 -374t-207 -302t-311.5 -199t-384 -73zM1024 481v-231h170v231h123v142h-123v553h-174
l-463 -539v-156h467zM1030 623h-315l123 141q151 174 186 244h6v-385z" />
    <glyph glyph-name="uni277A" unicode="&#x277a;" 
d="M979 -256q-204 0 -386 74t-311.5 200.5t-205.5 302t-76 371.5q0 199 76.5 375t207 301.5t311.5 198.5t384 73q204 0 385.5 -73.5t311.5 -199.5t206 -302t76 -373q0 -198 -76.5 -374t-207 -302t-311.5 -199t-384 -73zM983 205q155 0 250.5 91.5t95.5 233.5q0 86 -32.5 157
t-103.5 117t-169 46q-66 0 -123 -30t-78 -83l-6 2l45 273h406v141h-531l-88 -512l156 -33q27 59 70.5 85t109.5 26q83 0 133.5 -55.5t50.5 -133.5q0 -87 -51 -138.5t-135 -51.5q-169 0 -195 141h-159q6 -130 109.5 -203t244.5 -73z" />
    <glyph glyph-name="uni277B" unicode="&#x277b;" 
d="M979 -256q-204 0 -386 74t-311.5 200.5t-205.5 302t-76 371.5q0 199 76.5 375t207 301.5t311.5 198.5t384 73q204 0 385.5 -73.5t311.5 -199.5t206 -302t76 -373q0 -198 -76.5 -374t-207 -302t-311.5 -199t-384 -73zM989 209q146 0 244 87t98 243q0 135 -92 223t-221 88
q-106 0 -166.5 -45.5t-73.5 -114.5h-8q3 187 57.5 267.5t163.5 80.5q139 0 166 -112h164q-23 113 -116 180.5t-214 67.5q-181 0 -280 -134.5t-99 -353.5q0 -225 93.5 -351t283.5 -126zM989 344q-86 0 -138 51t-52 123q0 89 53.5 142t136.5 53q78 0 130 -53.5t52 -141.5
q0 -70 -47.5 -122t-134.5 -52z" />
    <glyph glyph-name="uni277C" unicode="&#x277c;" 
d="M979 -256q-204 0 -386 74t-311.5 200.5t-205.5 302t-76 371.5q0 199 76.5 375t207 301.5t311.5 198.5t384 73q204 0 385.5 -73.5t311.5 -199.5t206 -302t76 -373q0 -198 -76.5 -374t-207 -302t-311.5 -199t-384 -73zM803 205h178q2 151 26 271t70.5 212.5t98 159
t127.5 141.5v144h-650v-142h531l2 -8q-53 -36 -102 -81.5t-101 -116t-90 -152t-63 -193t-27 -235.5z" />
    <glyph glyph-name="uni277D" unicode="&#x277d;" 
d="M979 -256q-204 0 -386 74t-311.5 200.5t-205.5 302t-76 371.5q0 199 76.5 375t207 301.5t311.5 198.5t384 73q204 0 385.5 -73.5t311.5 -199.5t206 -302t76 -373q0 -198 -76.5 -374t-207 -302t-311.5 -199t-384 -73zM1001 203q156 0 257.5 73t101.5 209q0 95 -55.5 154
t-137.5 82v10q63 9 105.5 66t42.5 129q0 114 -89 181t-225 67q-140 0 -231.5 -67t-91.5 -181q0 -71 45.5 -128.5t107.5 -66.5v-10q-82 -23 -138 -82t-56 -154q0 -96 50 -161t130 -93t184 -28zM1001 766q-79 0 -125.5 41.5t-46.5 112.5q0 57 46 95t126 38q76 0 120 -38
t46 -95q2 -71 -43 -112.5t-123 -41.5zM1001 338q-97 0 -148.5 42.5t-51.5 115.5q0 78 56 119.5t144 41.5q83 0 140.5 -43.5t56.5 -126.5q-2 -67 -53 -108t-144 -41z" />
    <glyph glyph-name="uni277E" unicode="&#x277e;" 
d="M979 1640q204 0 386 -74t311.5 -200.5t205.5 -302t76 -371.5q0 -199 -76.5 -375t-207 -301.5t-311.5 -198.5t-384 -73q-204 0 -385.5 73.5t-311.5 199.5t-206 302t-76 373q0 198 76.5 374t207 302t311.5 199t384 73zM963 1176q-144 0 -243 -83.5t-99 -226.5
q0 -149 91 -240t222 -91q106 0 166.5 45t73.5 114h8q-3 -187 -57.5 -267.5t-163.5 -80.5q-139 0 -166 113h-164q23 -113 116 -180.5t214 -67.5q181 0 279.5 134t98.5 353q0 225 -93 351.5t-283 126.5zM963 1040q86 0 138 -51t52 -123q0 -89 -53.5 -141.5t-136.5 -52.5
q-79 0 -131 52.5t-52 141.5q0 70 48 122t135 52z" />
    <glyph glyph-name="uni2E18" unicode="&#x2e18;" horiz-adv-x="1046" 
d="M524 1210q50 0 83.5 -33.5t33.5 -86.5q0 -49 -33.5 -82t-83.5 -33q-54 0 -88.5 32.5t-34.5 82.5q0 54 34.5 87t88.5 33zM444 457h-8q-26 -65 -119 -158q-48 -48 -71 -95.5t-23 -111.5q0 -113 74 -171t203 -58q157 0 234.5 76.5t84.5 250.5h166q-3 -245 -130 -363
t-349 -118q-203 0 -329 100t-126 281q0 105 53 189.5t160 173.5q114 95 143 154t35 196h158q1 -49 4 -146.5t4 -146.5l6 -459h-174z" />
    <glyph glyph-name="uniE000" unicode="&#xe000;" horiz-adv-x="1691" 
d="M453 0h-64q-30 72 -60.5 128t-68 104t-83 75t-95.5 31v113q199 -13 285 -207h4v1325h1280v-105h-1178v-1220h4q87 197 285 207v-113q-98 -7 -170 -91.5t-139 -246.5z" />
    <glyph glyph-name="uniF8FF" unicode="&#xf8ff;" horiz-adv-x="1495" 
d="M752 -131q-199 0 -387 82q166 -10 237 76q36 45 45 102q-108 -105 -266 -102q-139 5 -240.5 106t-101.5 240q0 112 61.5 202.5t161.5 137.5q147 70 227 196q34 60 43 129l-221 2v138h131q78 0 121 41.5t43 119.5v138l668 112v-411l149 2v-148l-278 2v-131
q0 -75 11 -109.5t52 -56.5q26 -13 33.5 -41.5t-6.5 -56.5q-13 -27 -41.5 -34.5t-54.5 5.5l-86 45q19 -126 102 -209q-70 -19 -151 0q-70 15 -148 76q26 -77 70 -116q81 -68 213 -46v-233q-90 2 -271 2q3 -44 25 -74q38 -51 125 -70t180 -3q-209 -113 -446 -113zM938 817
q29 0 48.5 19.5t19.5 46.5q0 28 -19.5 47.5t-48.5 19.5q-26 0 -45 -19.5t-19 -47.5q0 -26 19 -46t45 -20z" />
    <glyph glyph-name="u1F345" unicode="&#x1f345;" horiz-adv-x="1781" 
d="M891 -131q-139 0 -269 43t-234 122t-183 184t-121.5 235t-42.5 268q0 173 67 330t181 270.5t271 180.5t331 67q231 0 427 -114t309.5 -309t113.5 -425q0 -138 -42.5 -268t-121.5 -235t-183 -184t-234 -122t-269 -43zM748 305l147 377h10l144 -375q27 -69 94 -62
q57 5 96 53q45 57 14 111q-8 13 -20 25l-293 283v8l373 2q72 0 86 63q13 55 -22 111q-38 59 -94 52q-19 -2 -38 -13l-309 -176l-6 10l86 334q18 72 -44 108q-53 29 -115 11q-62 -17 -72 -72q-3 -22 3 -47l82 -334l-4 -10l-311 176q-64 36 -115 -18q-42 -45 -41 -107
q1 -67 55 -85q16 -5 35 -5l365 -2l2 -8l-287 -283q-53 -53 -18 -117q26 -49 81 -66q66 -21 102 30q8 11 14 26z" />
    <glyph glyph-name="K.ss01" horiz-adv-x="1351" 
d="M295 0h-172v1434h172l-8 -789l10 -2q59 81 260 275l535 516h229l-621 -576l617 -858h-207l-530 743l-285 -264v-479z" />
    <glyph glyph-name="uni0136.ss01" horiz-adv-x="1351" 
d="M295 0h-172v1434h172l-8 -789l10 -2q59 81 260 275l535 516h229l-621 -576l617 -858h-207l-530 743l-285 -264v-479zM621 -514h-125l106 340h174z" />
    <glyph glyph-name="R.ss01" horiz-adv-x="1304" 
d="M881 711l-4 -13l387 -698h-201l-324 580h-434v-580h-172v1434h592q224 0 359 -98.5t135 -262.5q0 -157 -92 -256t-246 -106zM305 735h430q141 0 225 76.5t84 204.5q0 120 -84 191t-225 71h-430v-543z" />
    <glyph glyph-name="Racute.ss01" horiz-adv-x="1304" 
d="M1073 1972l62 -133l-568 -246l-49 109zM881 711l-4 -13l387 -698h-201l-324 580h-434v-580h-172v1434h592q224 0 359 -98.5t135 -262.5q0 -157 -92 -256t-246 -106zM305 735h430q141 0 225 76.5t84 204.5q0 120 -84 191t-225 71h-430v-543z" />
    <glyph glyph-name="Rcaron.ss01" horiz-adv-x="1304" 
d="M1028 1903l-274 -295h-205l-275 295h185l71 -76q87 -92 115 -131h12q37 53 117 135l70 72h184zM881 711l-4 -13l387 -698h-201l-324 580h-434v-580h-172v1434h592q224 0 359 -98.5t135 -262.5q0 -157 -92 -256t-246 -106zM305 735h430q141 0 225 76.5t84 204.5
q0 120 -84 191t-225 71h-430v-543z" />
    <glyph glyph-name="uni0156.ss01" horiz-adv-x="1304" 
d="M881 711l-4 -13l387 -698h-201l-324 580h-434v-580h-172v1434h592q224 0 359 -98.5t135 -262.5q0 -157 -92 -256t-246 -106zM305 735h430q141 0 225 76.5t84 204.5q0 120 -84 191t-225 71h-430v-543zM637 -514h-125l106 340h175z" />
    <glyph glyph-name="uni1E9E.ss01" horiz-adv-x="1435" 
d="M289 0h-176v1434h1167v-158l-535 -313q-88 -52 -88 -136q0 -69 39 -109.5t125 -60.5l318 -71q245 -56 245 -297q0 -147 -121 -234.5t-323 -87.5q-232 0 -367 98.5t-135 266.5h176q0 -94 86.5 -149.5t239.5 -55.5q122 0 195 43t73 115q0 123 -143 153l-252 56
q-174 40 -253 116.5t-79 206.5q0 172 203 291l270 158v12h-665v-1278z" />
    <glyph glyph-name="R.ss02" horiz-adv-x="1349" 
d="M1184 442q14 -276 24 -336q11 -66 37 -106h-172q-57 71 -57 328q0 137 -53.5 194.5t-198.5 57.5h-459v-580h-172v1434h612q214 0 344 -99t130 -262q0 -155 -94 -254.5t-248 -107.5v-13q25 0 45.5 -1t52.5 -6.5t57 -15.5t53.5 -29t48 -45.5t33.5 -67t17 -91.5zM305 735
h430q139 0 224 77.5t85 203.5q0 118 -84.5 190t-224.5 72h-430v-543z" />
    <glyph glyph-name="Racute.ss02" horiz-adv-x="1349" 
d="M1073 1972l62 -133l-568 -246l-49 109zM1184 442q14 -276 24 -336q11 -66 37 -106h-172q-57 71 -57 328q0 137 -53.5 194.5t-198.5 57.5h-459v-580h-172v1434h612q214 0 344 -99t130 -262q0 -155 -94 -254.5t-248 -107.5v-13q25 0 45.5 -1t52.5 -6.5t57 -15.5t53.5 -29
t48 -45.5t33.5 -67t17 -91.5zM305 735h430q139 0 224 77.5t85 203.5q0 118 -84.5 190t-224.5 72h-430v-543z" />
    <glyph glyph-name="Rcaron.ss02" horiz-adv-x="1349" 
d="M1028 1903l-274 -295h-205l-275 295h185l71 -76q87 -92 115 -131h12q37 53 117 135l70 72h184zM1184 442q14 -276 24 -336q11 -66 37 -106h-172q-57 71 -57 328q0 137 -53.5 194.5t-198.5 57.5h-459v-580h-172v1434h612q214 0 344 -99t130 -262q0 -155 -94 -254.5
t-248 -107.5v-13q25 0 45.5 -1t52.5 -6.5t57 -15.5t53.5 -29t48 -45.5t33.5 -67t17 -91.5zM305 735h430q139 0 224 77.5t85 203.5q0 118 -84.5 190t-224.5 72h-430v-543z" />
    <glyph glyph-name="uni0156.ss02" horiz-adv-x="1349" 
d="M1184 442q14 -276 24 -336q11 -66 37 -106h-172q-57 71 -57 328q0 137 -53.5 194.5t-198.5 57.5h-459v-580h-172v1434h612q214 0 344 -99t130 -262q0 -155 -94 -254.5t-248 -107.5v-13q25 0 45.5 -1t52.5 -6.5t57 -15.5t53.5 -29t48 -45.5t33.5 -67t17 -91.5zM305 735
h430q139 0 224 77.5t85 203.5q0 118 -84.5 190t-224.5 72h-430v-543zM637 -514h-125l106 340h175z" />
    <glyph glyph-name="i.loclTRK" horiz-adv-x="403" 
d="M199 1231q-46 0 -78.5 32t-32.5 78t32.5 78.5t78.5 32.5t78 -32.5t32 -78.5t-32 -78t-78 -32zM119 0v1057h164v-1057h-164z" />
    <glyph glyph-name="a.ss01" horiz-adv-x="1155" 
d="M61 260q0 142 92 216.5t285 98.5l430 52v22q0 157 -74.5 227t-232.5 70t-238.5 -79.5t-95.5 -213.5h-164q0 88 35 167t98.5 139t159.5 95.5t211 35.5q233 0 349 -117.5t116 -308.5v-664h-155l-9 352h-8q-9 -83 -39 -149.5t-72.5 -109.5t-98 -72t-114 -41.5t-122.5 -12.5
q-150 0 -251.5 78t-101.5 215zM229 283q0 -81 57.5 -129t162.5 -48q121 0 220 57.5t151 150t48 196.5l-399 -49q-122 -15 -181 -58.5t-59 -119.5z" />
    <glyph glyph-name="aacute.ss01" horiz-adv-x="1155" 
d="M1059 1462l-567 -245l-50 108l555 270zM61 260q0 142 92 216.5t285 98.5l430 52v22q0 157 -74.5 227t-232.5 70t-238.5 -79.5t-95.5 -213.5h-164q0 88 35 167t98.5 139t159.5 95.5t211 35.5q233 0 349 -117.5t116 -308.5v-664h-155l-9 352h-8q-9 -83 -39 -149.5
t-72.5 -109.5t-98 -72t-114 -41.5t-122.5 -12.5q-150 0 -251.5 78t-101.5 215zM229 283q0 -81 57.5 -129t162.5 -48q121 0 220 57.5t151 150t48 196.5l-399 -49q-122 -15 -181 -58.5t-59 -119.5z" />
    <glyph glyph-name="abreve.ss01" horiz-adv-x="1155" 
d="M575 1231q-137 0 -223 83.5t-92 221.5h141q6 -84 52.5 -128t121.5 -44q78 0 123.5 45t51.5 127h141q-11 -138 -96.5 -221.5t-219.5 -83.5zM61 260q0 142 92 216.5t285 98.5l430 52v22q0 157 -74.5 227t-232.5 70t-238.5 -79.5t-95.5 -213.5h-164q0 88 35 167t98.5 139
t159.5 95.5t211 35.5q233 0 349 -117.5t116 -308.5v-664h-155l-9 352h-8q-9 -83 -39 -149.5t-72.5 -109.5t-98 -72t-114 -41.5t-122.5 -12.5q-150 0 -251.5 78t-101.5 215zM229 283q0 -81 57.5 -129t162.5 -48q121 0 220 57.5t151 150t48 196.5l-399 -49
q-122 -15 -181 -58.5t-59 -119.5z" />
    <glyph glyph-name="acircumflex.ss01" horiz-adv-x="1155" 
d="M383 1231h-184l274 295h205l274 -295h-184l-70 72q-77 79 -116 135h-13q-30 -43 -114 -131zM61 260q0 142 92 216.5t285 98.5l430 52v22q0 157 -74.5 227t-232.5 70t-238.5 -79.5t-95.5 -213.5h-164q0 88 35 167t98.5 139t159.5 95.5t211 35.5q233 0 349 -117.5
t116 -308.5v-664h-155l-9 352h-8q-9 -83 -39 -149.5t-72.5 -109.5t-98 -72t-114 -41.5t-122.5 -12.5q-150 0 -251.5 78t-101.5 215zM229 283q0 -81 57.5 -129t162.5 -48q121 0 220 57.5t151 150t48 196.5l-399 -49q-122 -15 -181 -58.5t-59 -119.5z" />
    <glyph glyph-name="adieresis.ss01" horiz-adv-x="1155" 
d="M395 1231q-46 0 -78 32t-32 78t32 78.5t78 32.5t78.5 -32.5t32.5 -78.5t-32.5 -78t-78.5 -32zM756 1231q-46 0 -78.5 32t-32.5 78t32.5 78.5t78.5 32.5t78 -32.5t32 -78.5t-32 -78t-78 -32zM61 260q0 142 92 216.5t285 98.5l430 52v22q0 157 -74.5 227t-232.5 70
t-238.5 -79.5t-95.5 -213.5h-164q0 88 35 167t98.5 139t159.5 95.5t211 35.5q233 0 349 -117.5t116 -308.5v-664h-155l-9 352h-8q-9 -83 -39 -149.5t-72.5 -109.5t-98 -72t-114 -41.5t-122.5 -12.5q-150 0 -251.5 78t-101.5 215zM229 283q0 -81 57.5 -129t162.5 -48
q121 0 220 57.5t151 150t48 196.5l-399 -49q-122 -15 -181 -58.5t-59 -119.5z" />
    <glyph glyph-name="agrave.ss01" horiz-adv-x="1155" 
d="M713 1325l-49 -108l-568 245l62 133zM61 260q0 142 92 216.5t285 98.5l430 52v22q0 157 -74.5 227t-232.5 70t-238.5 -79.5t-95.5 -213.5h-164q0 88 35 167t98.5 139t159.5 95.5t211 35.5q233 0 349 -117.5t116 -308.5v-664h-155l-9 352h-8q-9 -83 -39 -149.5
t-72.5 -109.5t-98 -72t-114 -41.5t-122.5 -12.5q-150 0 -251.5 78t-101.5 215zM229 283q0 -81 57.5 -129t162.5 -48q121 0 220 57.5t151 150t48 196.5l-399 -49q-122 -15 -181 -58.5t-59 -119.5z" />
    <glyph glyph-name="amacron.ss01" horiz-adv-x="1155" 
d="M872 1231h-593v137h593v-137zM61 260q0 142 92 216.5t285 98.5l430 52v22q0 157 -74.5 227t-232.5 70t-238.5 -79.5t-95.5 -213.5h-164q0 88 35 167t98.5 139t159.5 95.5t211 35.5q233 0 349 -117.5t116 -308.5v-664h-155l-9 352h-8q-9 -83 -39 -149.5t-72.5 -109.5
t-98 -72t-114 -41.5t-122.5 -12.5q-150 0 -251.5 78t-101.5 215zM229 283q0 -81 57.5 -129t162.5 -48q121 0 220 57.5t151 150t48 196.5l-399 -49q-122 -15 -181 -58.5t-59 -119.5z" />
    <glyph glyph-name="aogonek.ss01" horiz-adv-x="1155" 
d="M1032 664v-664q-213 -106 -213 -199q0 -49 34 -68.5t99 -19.5q22 0 80 4v-131q-74 -8 -104 -8q-128 0 -196 38.5t-68 131.5q0 82 82 148.5t217 95.5v8h-86l-9 352h-8q-9 -83 -39 -149.5t-72.5 -109.5t-98 -72t-114 -41.5t-122.5 -12.5q-150 0 -251.5 78t-101.5 215
q0 142 92 216.5t285 98.5l430 52v22q0 157 -74.5 227t-232.5 70t-238.5 -79.5t-95.5 -213.5h-164q0 88 35 167t98.5 139t159.5 95.5t211 35.5q233 0 349 -117.5t116 -308.5zM449 106q121 0 220 57.5t151 150t48 196.5l-399 -49q-122 -15 -181 -58.5t-59 -119.5
q0 -81 57.5 -129t162.5 -48z" />
    <glyph glyph-name="aring.ss01" horiz-adv-x="1155" 
d="M575 1231q-117 0 -188.5 63t-71.5 166t71.5 166.5t188.5 63.5t189 -63.5t72 -166.5t-72 -166t-189 -63zM575 1350q60 0 97 30.5t37 79.5q0 50 -37 80.5t-97 30.5t-96.5 -30.5t-36.5 -80.5t36.5 -80t96.5 -30zM61 260q0 142 92 216.5t285 98.5l430 52v22q0 157 -74.5 227
t-232.5 70t-238.5 -79.5t-95.5 -213.5h-164q0 88 35 167t98.5 139t159.5 95.5t211 35.5q233 0 349 -117.5t116 -308.5v-664h-155l-9 352h-8q-9 -83 -39 -149.5t-72.5 -109.5t-98 -72t-114 -41.5t-122.5 -12.5q-150 0 -251.5 78t-101.5 215zM229 283q0 -81 57.5 -129
t162.5 -48q121 0 220 57.5t151 150t48 196.5l-399 -49q-122 -15 -181 -58.5t-59 -119.5z" />
    <glyph glyph-name="atilde.ss01" horiz-adv-x="1155" 
d="M352 1231h-139q0 184 98 237.5t264 -43.5q98 -59 142.5 -45.5t44.5 103.5h139q0 -186 -98 -236.5t-273 43.5q-89 52 -133.5 42.5t-44.5 -101.5zM61 260q0 142 92 216.5t285 98.5l430 52v22q0 157 -74.5 227t-232.5 70t-238.5 -79.5t-95.5 -213.5h-164q0 88 35 167
t98.5 139t159.5 95.5t211 35.5q233 0 349 -117.5t116 -308.5v-664h-155l-9 352h-8q-9 -83 -39 -149.5t-72.5 -109.5t-98 -72t-114 -41.5t-122.5 -12.5q-150 0 -251.5 78t-101.5 215zM229 283q0 -81 57.5 -129t162.5 -48q121 0 220 57.5t151 150t48 196.5l-399 -49
q-122 -15 -181 -58.5t-59 -119.5z" />
    <glyph glyph-name="ae.ss01" horiz-adv-x="1959" 
d="M414 -33q-150 0 -251.5 78t-101.5 215q0 144 93 222t284 98l430 47v22q0 157 -74.5 227t-232.5 70t-238.5 -79.5t-95.5 -213.5h-164q0 88 35 167t98.5 139t159.5 95.5t211 35.5q146 0 239.5 -50.5t158.5 -156.5h8q61 97 173.5 152t242.5 55q146 0 261 -67.5t176.5 -183.5
t61.5 -259v-78h-856q3 -187 102.5 -289t258.5 -102q129 0 213.5 73t105.5 187h168q-23 -182 -157 -293t-330 -111q-160 0 -280.5 66.5t-182.5 197.5q-28 54 -43 121h-8q-9 -83 -41 -150t-77 -110t-104 -72t-119 -41t-124 -12zM1032 616h96q121 0 181 -1.5t146 -9.5
t146.5 -27.5t112.5 -51.5l10 6q4 205 -89.5 309.5t-252.5 104.5q-147 0 -243.5 -86t-106.5 -244zM449 106q121 0 220 57.5t151 150t48 196.5l-399 -45q-240 -27 -240 -182q0 -81 57.5 -129t162.5 -48z" />
    <glyph glyph-name="aeacute.ss01" horiz-adv-x="1959" 
d="M1470 1462l-567 -245l-49 108l555 270zM414 -33q-150 0 -251.5 78t-101.5 215q0 144 93 222t284 98l430 47v22q0 157 -74.5 227t-232.5 70t-238.5 -79.5t-95.5 -213.5h-164q0 88 35 167t98.5 139t159.5 95.5t211 35.5q146 0 239.5 -50.5t158.5 -156.5h8q61 97 173.5 152
t242.5 55q146 0 261 -67.5t176.5 -183.5t61.5 -259v-78h-856q3 -187 102.5 -289t258.5 -102q129 0 213.5 73t105.5 187h168q-23 -182 -157 -293t-330 -111q-160 0 -280.5 66.5t-182.5 197.5q-28 54 -43 121h-8q-9 -83 -41 -150t-77 -110t-104 -72t-119 -41t-124 -12z
M1032 616h96q121 0 181 -1.5t146 -9.5t146.5 -27.5t112.5 -51.5l10 6q4 205 -89.5 309.5t-252.5 104.5q-147 0 -243.5 -86t-106.5 -244zM449 106q121 0 220 57.5t151 150t48 196.5l-399 -45q-240 -27 -240 -182q0 -81 57.5 -129t162.5 -48z" />
    <glyph glyph-name="uni01E3.ss01" horiz-adv-x="1959" 
d="M1284 1231h-594v137h594v-137zM414 -33q-150 0 -251.5 78t-101.5 215q0 144 93 222t284 98l430 47v22q0 157 -74.5 227t-232.5 70t-238.5 -79.5t-95.5 -213.5h-164q0 88 35 167t98.5 139t159.5 95.5t211 35.5q146 0 239.5 -50.5t158.5 -156.5h8q61 97 173.5 152t242.5 55
q146 0 261 -67.5t176.5 -183.5t61.5 -259v-78h-856q3 -187 102.5 -289t258.5 -102q129 0 213.5 73t105.5 187h168q-23 -182 -157 -293t-330 -111q-160 0 -280.5 66.5t-182.5 197.5q-28 54 -43 121h-8q-9 -83 -41 -150t-77 -110t-104 -72t-119 -41t-124 -12zM1032 616h96
q121 0 181 -1.5t146 -9.5t146.5 -27.5t112.5 -51.5l10 6q4 205 -89.5 309.5t-252.5 104.5q-147 0 -243.5 -86t-106.5 -244zM449 106q121 0 220 57.5t151 150t48 196.5l-399 -45q-240 -27 -240 -182q0 -81 57.5 -129t162.5 -48z" />
    <glyph glyph-name="e.ss01" horiz-adv-x="1163" 
d="M1092 580v-78h-856q3 -187 102 -289t258 -102q129 0 213.5 73t105.5 187h168q-23 -182 -157 -293t-330 -111q-116 0 -211 35t-165 104t-109 177.5t-39 248.5q0 261 143 409.5t377 148.5q221 0 360.5 -146t139.5 -364zM918 526l10 6q4 209 -90.5 311.5t-251.5 102.5
q-147 0 -243.5 -86t-106.5 -244h149q223 0 338 -19.5t195 -70.5z" />
    <glyph glyph-name="eacute.ss01" horiz-adv-x="1163" 
d="M1020 1595l61 -133l-567 -245l-49 108zM1092 580v-78h-856q3 -187 102 -289t258 -102q129 0 213.5 73t105.5 187h168q-23 -182 -157 -293t-330 -111q-116 0 -211 35t-165 104t-109 177.5t-39 248.5q0 261 143 409.5t377 148.5q221 0 360.5 -146t139.5 -364zM918 526l10 6
q4 209 -90.5 311.5t-251.5 102.5q-147 0 -243.5 -86t-106.5 -244h149q223 0 338 -19.5t195 -70.5z" />
    <glyph glyph-name="ebreve.ss01" horiz-adv-x="1163" 
d="M598 1231q-137 0 -223 83.5t-92 221.5h141q6 -84 52.5 -128t121.5 -44q78 0 123 45t51 127h141q-11 -138 -96 -221.5t-219 -83.5zM1092 580v-78h-856q3 -187 102 -289t258 -102q129 0 213.5 73t105.5 187h168q-23 -182 -157 -293t-330 -111q-116 0 -211 35t-165 104
t-109 177.5t-39 248.5q0 261 143 409.5t377 148.5q221 0 360.5 -146t139.5 -364zM918 526l10 6q4 209 -90.5 311.5t-251.5 102.5q-147 0 -243.5 -86t-106.5 -244h149q223 0 338 -19.5t195 -70.5z" />
    <glyph glyph-name="ecaron.ss01" horiz-adv-x="1163" 
d="M975 1526l-275 -295h-204l-275 295h185l71 -76q87 -92 115 -131h12q37 53 117 135l70 72h184zM1092 580v-78h-856q3 -187 102 -289t258 -102q129 0 213.5 73t105.5 187h168q-23 -182 -157 -293t-330 -111q-116 0 -211 35t-165 104t-109 177.5t-39 248.5q0 261 143 409.5
t377 148.5q221 0 360.5 -146t139.5 -364zM918 526l10 6q4 209 -90.5 311.5t-251.5 102.5q-147 0 -243.5 -86t-106.5 -244h149q223 0 338 -19.5t195 -70.5z" />
    <glyph glyph-name="ecircumflex.ss01" horiz-adv-x="1163" 
d="M477 1307l-71 -76h-185l275 295h204l275 -295h-184l-70 72q-80 82 -117 135h-12q-28 -39 -115 -131zM1092 580v-78h-856q3 -187 102 -289t258 -102q129 0 213.5 73t105.5 187h168q-23 -182 -157 -293t-330 -111q-116 0 -211 35t-165 104t-109 177.5t-39 248.5
q0 261 143 409.5t377 148.5q221 0 360.5 -146t139.5 -364zM918 526l10 6q4 209 -90.5 311.5t-251.5 102.5q-147 0 -243.5 -86t-106.5 -244h149q223 0 338 -19.5t195 -70.5z" />
    <glyph glyph-name="edieresis.ss01" horiz-adv-x="1163" 
d="M418 1231q-46 0 -78.5 32t-32.5 78t32.5 78.5t78.5 32.5t78 -32.5t32 -78.5t-32 -78t-78 -32zM778 1231q-46 0 -78 32t-32 78t32 78.5t78 32.5t78.5 -32.5t32.5 -78.5t-32.5 -78t-78.5 -32zM1092 580v-78h-856q3 -187 102 -289t258 -102q129 0 213.5 73t105.5 187h168
q-23 -182 -157 -293t-330 -111q-116 0 -211 35t-165 104t-109 177.5t-39 248.5q0 261 143 409.5t377 148.5q221 0 360.5 -146t139.5 -364zM918 526l10 6q4 209 -90.5 311.5t-251.5 102.5q-147 0 -243.5 -86t-106.5 -244h149q223 0 338 -19.5t195 -70.5z" />
    <glyph glyph-name="edotaccent.ss01" horiz-adv-x="1163" 
d="M598 1231q-46 0 -78.5 32t-32.5 78t32.5 78.5t78.5 32.5t78.5 -32.5t32.5 -78.5t-32.5 -78t-78.5 -32zM1092 580v-78h-856q3 -187 102 -289t258 -102q129 0 213.5 73t105.5 187h168q-23 -182 -157 -293t-330 -111q-116 0 -211 35t-165 104t-109 177.5t-39 248.5
q0 261 143 409.5t377 148.5q221 0 360.5 -146t139.5 -364zM918 526l10 6q4 209 -90.5 311.5t-251.5 102.5q-147 0 -243.5 -86t-106.5 -244h149q223 0 338 -19.5t195 -70.5z" />
    <glyph glyph-name="egrave.ss01" horiz-adv-x="1163" 
d="M180 1595l555 -270l-49 -108l-567 245zM1092 580v-78h-856q3 -187 102 -289t258 -102q129 0 213.5 73t105.5 187h168q-23 -182 -157 -293t-330 -111q-116 0 -211 35t-165 104t-109 177.5t-39 248.5q0 261 143 409.5t377 148.5q221 0 360.5 -146t139.5 -364zM918 526l10 6
q4 209 -90.5 311.5t-251.5 102.5q-147 0 -243.5 -86t-106.5 -244h149q223 0 338 -19.5t195 -70.5z" />
    <glyph glyph-name="emacron.ss01" horiz-adv-x="1163" 
d="M301 1368h594v-137h-594v137zM1092 580v-78h-856q3 -187 102 -289t258 -102q129 0 213.5 73t105.5 187h168q-23 -182 -157 -293t-330 -111q-116 0 -211 35t-165 104t-109 177.5t-39 248.5q0 261 143 409.5t377 148.5q221 0 360.5 -146t139.5 -364zM918 526l10 6
q4 209 -90.5 311.5t-251.5 102.5q-147 0 -243.5 -86t-106.5 -244h149q223 0 338 -19.5t195 -70.5z" />
    <glyph glyph-name="eogonek.ss01" horiz-adv-x="1163" 
d="M1092 580v-78h-856q3 -187 102 -289t258 -102q129 0 213.5 73t105.5 187h168q-17 -133 -95.5 -230.5t-201.5 -140.5q-208 -106 -208 -199q0 -49 36 -68.5t103 -19.5q20 0 74 4v-131q-47 -8 -103 -8q-58 0 -102 7t-83 24t-60 50t-21 81q0 74 70 138t182 85v8
q-54 -4 -78 -4q-116 0 -211 35t-165 104t-109 177.5t-39 248.5q0 261 143 409.5t377 148.5q221 0 360.5 -146t139.5 -364zM918 526l10 6q4 209 -90.5 311.5t-251.5 102.5q-147 0 -243.5 -86t-106.5 -244h149q223 0 338 -19.5t195 -70.5z" />
    <glyph glyph-name="j.ss01" horiz-adv-x="460" 
d="M229 1231q-46 0 -78 32t-32 78t32 78.5t78 32.5t78.5 -32.5t32.5 -78.5t-32.5 -78t-78.5 -32zM309 -377h-164v1434h164v-1434z" />
    <glyph glyph-name="k.ss01" horiz-adv-x="1075" 
d="M287 0h-164v1434h164v-584q0 -116 -4 -350l8 -2q48 81 315 327l250 232h209l-459 -426l459 -631h-180l-387 530l-211 -196v-334z" />
    <glyph glyph-name="uni0137.ss01" horiz-adv-x="1075" 
d="M287 0h-164v1434h164v-584q0 -116 -4 -350l8 -2q48 81 315 327l250 232h209l-459 -426l459 -631h-180l-387 530l-211 -196v-334zM469 -514h-125l107 340h174z" />
    <glyph glyph-name="t.ss01" horiz-adv-x="724" 
d="M383 1057h291v-123h-291v-934h-164v934h-188v123h188v276h158z" />
    <glyph glyph-name="tbar.ss01" horiz-adv-x="724" 
d="M674 1057v-123h-291v-328h291v-94h-291v-512h-164v512h-188v94h188v328h-188v123h188v276h158l6 -276h291z" />
    <glyph glyph-name="tcaron.ss01" horiz-adv-x="724" 
d="M545 1556h180l-143 -421h-115zM219 1333h158l6 -276h291v-123h-291v-934h-164v934h-188v123h188v276z" />
    <glyph glyph-name="uni0163.ss01" horiz-adv-x="724" 
d="M383 0h-12q0 -26 -19 -53t-65 -39v-6h16q82 0 133 -44t51 -106q0 -190 -280 -190q-23 0 -125 4v96q47 -2 119 -2q57 0 93 22.5t36 65.5q0 33 -30 52t-70 20.5t-80 -2.5v78q86 31 86 104h-17v934h-188v123h188v276h158l6 -276h291v-123h-291v-934z" />
    <glyph glyph-name="uni021B.ss01" horiz-adv-x="724" 
d="M377 1333l6 -276h291v-123h-291v-934h-164v934h-188v123h188v276h158zM231 -514h-125l107 340h174z" />
    <glyph glyph-name="g.ss02" horiz-adv-x="1249" 
d="M946 750l8 307h156v-975q0 -246 -130 -375t-378 -129q-221 0 -346.5 96t-142.5 279l163 2q12 -112 95.5 -170.5t230.5 -58.5q168 0 256 98t88 285v243h-8q-32 -153 -139 -246.5t-250 -93.5q-213 0 -345 151t-132 388t132 388t345 151q143 0 250 -93.5t139 -246.5h8z
M592 160q156 0 255 105.5t99 256.5v58q0 151 -99 256.5t-255 105.5q-158 0 -256 -110t-98 -281t98 -281t256 -110z" />
    <glyph glyph-name="gbreve.ss02" horiz-adv-x="1249" 
d="M625 1231q-137 0 -223.5 83.5t-92.5 221.5h142q6 -84 52.5 -128t121.5 -44q78 0 123 45t51 127h141q-11 -138 -96 -221.5t-219 -83.5zM946 750l8 307h156v-975q0 -246 -130 -375t-378 -129q-221 0 -346.5 96t-142.5 279l163 2q12 -112 95.5 -170.5t230.5 -58.5
q168 0 256 98t88 285v243h-8q-32 -153 -139 -246.5t-250 -93.5q-213 0 -345 151t-132 388t132 388t345 151q143 0 250 -93.5t139 -246.5h8zM592 160q156 0 255 105.5t99 256.5v58q0 151 -99 256.5t-255 105.5q-158 0 -256 -110t-98 -281t98 -281t256 -110z" />
    <glyph glyph-name="uni0123.ss02" horiz-adv-x="1249" 
d="M668 1571h174l-156 -340h-125zM946 750l8 307h156v-975q0 -246 -130 -375t-378 -129q-221 0 -346.5 96t-142.5 279l163 2q12 -112 95.5 -170.5t230.5 -58.5q168 0 256 98t88 285v243h-8q-32 -153 -139 -246.5t-250 -93.5q-213 0 -345 151t-132 388t132 388t345 151
q143 0 250 -93.5t139 -246.5h8zM592 160q156 0 255 105.5t99 256.5v58q0 151 -99 256.5t-255 105.5q-158 0 -256 -110t-98 -281t98 -281t256 -110z" />
    <glyph glyph-name="gdotaccent.ss02" horiz-adv-x="1249" 
d="M625 1231q-46 0 -78.5 32t-32.5 78t32.5 78.5t78.5 32.5t78 -32.5t32 -78.5t-32 -78t-78 -32zM946 750l8 307h156v-975q0 -246 -130 -375t-378 -129q-221 0 -346.5 96t-142.5 279l163 2q12 -112 95.5 -170.5t230.5 -58.5q168 0 256 98t88 285v243h-8
q-32 -153 -139 -246.5t-250 -93.5q-213 0 -345 151t-132 388t132 388t345 151q143 0 250 -93.5t139 -246.5h8zM592 160q156 0 255 105.5t99 256.5v58q0 151 -99 256.5t-255 105.5q-158 0 -256 -110t-98 -281t98 -281t256 -110z" />
    <glyph glyph-name="l.ss02" horiz-adv-x="563" 
d="M379 -12q-139 0 -199.5 81t-60.5 234v1131h164v-1141q0 -89 33.5 -123.5t101.5 -34.5q41 0 74 2v-145q-51 -4 -113 -4z" />
    <glyph glyph-name="lacute.ss02" horiz-adv-x="563" 
d="M682 1839l-567 -246l-49 109l555 270zM379 -12q-139 0 -199.5 81t-60.5 234v1131h164v-1141q0 -89 33.5 -123.5t101.5 -34.5q41 0 74 2v-145q-51 -4 -113 -4z" />
    <glyph glyph-name="lcaron.ss02" horiz-adv-x="563" 
d="M379 -12q-139 0 -199.5 81t-60.5 234v1131h164v-1141q0 -89 33.5 -123.5t101.5 -34.5q41 0 74 2v-145q-51 -4 -113 -4zM494 864h-115l78 566h180z" />
    <glyph glyph-name="uni013C.ss02" horiz-adv-x="563" 
d="M379 -12q-139 0 -199.5 81t-60.5 234v1131h164v-1141q0 -89 33.5 -123.5t101.5 -34.5q41 0 74 2v-145q-51 -4 -113 -4zM211 -514h-125l107 340h174z" />
    <glyph glyph-name="lslash.ss02" horiz-adv-x="585" 
d="M461 135q41 0 74 2v-145q-51 -4 -113 -4q-139 0 -199.5 81t-60.5 234v307l-162 -90v109l162 90v715h164v-623l184 104v-108l-184 -105v-409q0 -89 33.5 -123.5t101.5 -34.5z" />
    <glyph glyph-name="oe.ss02" horiz-adv-x="2101" 
d="M623 -33q-146 0 -270.5 67.5t-202.5 198.5t-78 299q0 165 78 294t202.5 196.5t270.5 67.5q138 0 259.5 -65t196.5 -187h8q65 125 179.5 188.5t263.5 63.5q221 0 360.5 -146t139.5 -364v-78h-856q3 -187 102 -289t258 -102q129 0 213.5 73t105.5 187h168
q-23 -182 -157 -293t-330 -111q-314 0 -440 252h-13q-74 -123 -196.5 -187.5t-261.5 -64.5zM1174 616h157q205 0 323 -19t201 -71l11 6q6 204 -88 309t-254 105q-147 0 -243.5 -86t-106.5 -244zM623 115q171 0 277 112.5t106 304.5q0 188 -106 299t-277 111t-277 -111
t-106 -299q0 -192 106 -304.5t277 -112.5z" />
    <glyph glyph-name="u.ss02" horiz-adv-x="1179" 
d="M586 -33q-211 0 -337 117.5t-126 333.5v639h164v-641q-1 -153 79.5 -227t219.5 -74q140 0 224 74t83 227v641h164v-639q0 -147 -63.5 -250.5t-168 -152t-239.5 -48.5z" />
    <glyph glyph-name="uacute.ss02" horiz-adv-x="1179" 
d="M1073 1462l-567 -245l-49 108l555 270zM586 -33q-211 0 -337 117.5t-126 333.5v639h164v-641q-1 -153 79.5 -227t219.5 -74q140 0 224 74t83 227v641h164v-639q0 -147 -63.5 -250.5t-168 -152t-239.5 -48.5z" />
    <glyph glyph-name="ucircumflex.ss02" horiz-adv-x="1179" 
d="M397 1231h-184l274 295h205l275 -295h-185l-69 72q-80 82 -117 135h-12q-28 -39 -115 -131zM586 -33q-211 0 -337 117.5t-126 333.5v639h164v-641q-1 -153 79.5 -227t219.5 -74q140 0 224 74t83 227v641h164v-639q0 -147 -63.5 -250.5t-168 -152t-239.5 -48.5z" />
    <glyph glyph-name="udieresis.ss02" horiz-adv-x="1179" 
d="M410 1231q-46 0 -78.5 32t-32.5 78t32.5 78.5t78.5 32.5t78 -32.5t32 -78.5t-32 -78t-78 -32zM770 1231q-46 0 -78.5 32t-32.5 78t32.5 78.5t78.5 32.5t78.5 -32.5t32.5 -78.5t-32.5 -78t-78.5 -32zM586 -33q-211 0 -337 117.5t-126 333.5v639h164v-641
q-1 -153 79.5 -227t219.5 -74q140 0 224 74t83 227v641h164v-639q0 -147 -63.5 -250.5t-168 -152t-239.5 -48.5z" />
    <glyph glyph-name="ugrave.ss02" horiz-adv-x="1179" 
d="M727 1325l-49 -108l-567 245l61 133zM586 -33q-211 0 -337 117.5t-126 333.5v639h164v-641q-1 -153 79.5 -227t219.5 -74q140 0 224 74t83 227v641h164v-639q0 -147 -63.5 -250.5t-168 -152t-239.5 -48.5z" />
    <glyph glyph-name="uhungarumlaut.ss02" horiz-adv-x="1179" 
d="M733 1511l-252 -294l-98 69l201 328zM1057 1511l-252 -294l-98 69l200 328zM586 -33q-211 0 -337 117.5t-126 333.5v639h164v-641q-1 -153 79.5 -227t219.5 -74q140 0 224 74t83 227v641h164v-639q0 -147 -63.5 -250.5t-168 -152t-239.5 -48.5z" />
    <glyph glyph-name="umacron.ss02" horiz-adv-x="1179" 
d="M887 1231h-594v137h594v-137zM586 -33q-211 0 -337 117.5t-126 333.5v639h164v-641q-1 -153 79.5 -227t219.5 -74q140 0 224 74t83 227v641h164v-639q0 -147 -63.5 -250.5t-168 -152t-239.5 -48.5z" />
    <glyph glyph-name="uogonek.ss02" horiz-adv-x="1179" 
d="M893 416v641h164v-639q0 -160 -73.5 -267t-201.5 -153q-209 -104 -209 -197q0 -49 36 -68.5t104 -19.5q19 0 73 4v-131q-47 -8 -102 -8q-58 0 -102 7t-83 24t-60 50t-21 81q0 74 70 138t182 85v8q-58 -4 -84 -4q-211 0 -337 117.5t-126 333.5v639h164v-641
q-1 -153 79.5 -227t219.5 -74q140 0 224 74t83 227z" />
    <glyph glyph-name="f_b" horiz-adv-x="1857" 
d="M1309 1090q215 0 346 -155t131 -409t-131 -408.5t-346 -154.5q-143 0 -250 93.5t-139 246.5h-9l-8 -303h-155v1300h-218q-92 0 -134 -42.5t-42 -124.5v-76h312v-123h-308v-934h-163v934h-164v123h164v96q0 133 83 216t248 83h385v-702h9q32 153 139 246.5t250 93.5z
M1266 111q160 0 257 114t97 301q0 188 -97 302t-257 114q-156 0 -255.5 -105.5t-99.5 -256.5v-107q0 -151 99.5 -256.5t255.5 -105.5z" />
    <glyph glyph-name="f_f_b" horiz-adv-x="2426" 
d="M1878 1090q215 0 346 -155t131 -409t-131 -408.5t-346 -154.5q-143 0 -250 93.5t-139 246.5h-8l-8 -303h-156v1300h-217q-92 0 -134 -42.5t-42 -124.5v-76h311v-123h-307v-934h-164v934h-406v-934h-163v934h-164v123h164v73q0 173 89 245.5t275 74.5q35 0 117 -4v-146
q-108 5 -113 5q-124 -1 -166.5 -41t-42.5 -134v-73h410v96q0 133 83.5 216t248.5 83h385v-702h8q32 153 139 246.5t250 93.5zM1835 111q160 0 257 114t97 301q0 188 -97 302t-257 114q-156 0 -255 -105.5t-99 -256.5v-107q0 -151 99 -256.5t255 -105.5z" />
    <glyph glyph-name="f_f_h" horiz-adv-x="2371" 
d="M1868 1090q171 0 276 -107t105 -281v-702h-164v649q0 130 -77.5 209.5t-205.5 79.5q-145 0 -233 -108t-88 -285v-545h-166v1300h-215q-92 0 -134 -42.5t-42 -124.5v-76h311v-123h-307v-934h-164v934h-406v-934h-163v934h-164v123h164v73q0 173 89 245.5t275 74.5
q35 0 117 -4v-146q-108 5 -113 5q-124 -1 -166.5 -41t-42.5 -134v-73h410v96q0 133 83.5 216t248.5 83h385v-702h12q20 154 123 247t252 93z" />
    <glyph glyph-name="f_f_j" horiz-adv-x="1601" 
d="M924 1057h557v-1163q0 -159 -86.5 -224.5t-300.5 -52.5v147q134 -6 178.5 19.5t44.5 112.5v1038h-389v-934h-164v934h-406v-934h-163v934h-164v123h164v73q0 173 89 245.5t275 74.5q35 0 117 -4v-146q-108 5 -113 5q-124 -1 -166.5 -41t-42.5 -134v-73h410v96
q0 133 83.5 216t248.5 83h385l-2 -152h-379q-92 0 -134 -42.5t-42 -124.5v-76z" />
    <glyph glyph-name="f_f_k" horiz-adv-x="2269" 
d="M1784 621h43q122 0 190.5 -57t102.5 -158l139 -406h-168l-115 328q-32 90 -70 123.5t-120 33.5h-141l-164 -151v-334h-164v1300h-217q-92 0 -134 -42.5t-42 -124.5v-76h311v-123h-307v-934h-164v934h-406v-934h-163v934h-164v123h164v73q0 173 89 245.5t275 74.5
q35 0 117 -4v-146q-108 5 -113 5q-124 -1 -166.5 -41t-42.5 -134v-73h410v96q0 133 83.5 216t248.5 83h385v-563q0 -131 -4 -389l8 -2q16 23 32.5 43.5t35 41.5t30.5 34.5t34 35t30.5 29.5t33.5 31.5t31 29.5l338 314h209l-217 -201q-218 -204 -258 -229v-6z" />
    <glyph glyph-name="f_f_r" horiz-adv-x="1959" 
d="M1481 657h8q35 223 138.5 319.5t301.5 96.5v-147q-246 -15 -347 -142.5t-101 -406.5v-377h-164v934h-389v-934h-164v934h-406v-934h-163v934h-164v123h164v73q0 173 89 245.5t275 74.5q35 0 117 -4v-146q-108 5 -113 5q-124 -1 -166.5 -41t-42.5 -134v-73h410v96
q0 133 83.5 216t248.5 83h385l-2 -152h-379q-92 0 -134 -42.5t-42 -124.5v-76h551z" />
    <glyph glyph-name="f_f_y" horiz-adv-x="2189" 
d="M1911 819l88 238h180l-438 -1071q-49 -117 -94 -187t-107.5 -114t-140 -58.5t-193.5 -9.5v154q59 -5 105 -0.5t79 13t61 33t51 60t50 92.5l17 35l-359 930h-282v-934h-164v934h-406v-934h-163v934h-164v123h164v73q0 173 89 245.5t275 74.5q35 0 117 -4v-146
q-108 5 -113 5q-124 -1 -166.5 -41t-42.5 -134v-73h410v73q0 173 89 245.5t275 74.5q35 0 117 -4v-146q-107 5 -112 5q-124 -1 -166.5 -41t-42.5 -134v-73h422l88 -244q204 -571 223 -627h8q47 126 133.5 345.5t112.5 287.5z" />
    <glyph glyph-name="f_h" horiz-adv-x="1802" 
d="M1298 1090q171 0 276 -107t105 -281v-702h-163v649q0 130 -77.5 209.5t-205.5 79.5q-145 0 -233.5 -108t-88.5 -285v-545h-166v1300h-215q-92 0 -134 -42.5t-42 -124.5v-76h312v-123h-308v-934h-163v934h-164v123h164v96q0 133 83 216t248 83h385v-702h13
q20 154 122.5 247t251.5 93z" />
    <glyph glyph-name="f_j" horiz-adv-x="1032" 
d="M354 1057h557v-1163q0 -159 -86.5 -224.5t-300.5 -52.5v147q134 -6 179 19.5t45 112.5v1038h-390v-934h-163v934h-164v123h164v96q0 133 83 216t248 83h385l-2 -152h-379q-92 0 -134 -42.5t-42 -124.5v-76z" />
    <glyph glyph-name="f_k" horiz-adv-x="1699" 
d="M1214 621h43q122 0 190.5 -57t102.5 -158l140 -406h-168l-115 328q-32 90 -70 123.5t-120 33.5h-142l-164 -151v-334h-163v1300h-218q-92 0 -134 -42.5t-42 -124.5v-76h312v-123h-308v-934h-163v934h-164v123h164v96q0 133 83 216t248 83h385v-563q0 -131 -4 -389l8 -2
q19 26 40 52t36 43.5t40.5 43t35.5 35t40 37.5t36 34l338 314h209l-217 -201q-216 -202 -259 -229v-6z" />
    <glyph glyph-name="f_r" horiz-adv-x="1390" 
d="M911 657h9q35 223 138.5 319.5t301.5 96.5v-147q-247 -15 -348 -143t-101 -406v-377h-163v934h-390v-934h-163v934h-164v123h164v96q0 133 83 216t248 83h385l-2 -152h-379q-92 0 -134 -42.5t-42 -124.5v-76h551z" />
    <glyph glyph-name="f_t" horiz-adv-x="1251" 
d="M1200 1057v-123h-291v-662q0 -83 35.5 -110t120.5 -27q55 0 135 6v-145q-86 -6 -151 -6q-89 0 -143.5 11t-92.5 41.5t-53 83t-15 136.5v672h-387v-934h-163v934h-164v123h164v73q0 173 89 245.5t275 74.5q35 0 117 -4v-146q-108 5 -113 5q-124 -1 -166.5 -41t-42.5 -134
v-73h391v276h158l6 -276h291z" />
    <glyph glyph-name="f_u" horiz-adv-x="1804" 
d="M1516 512v545h165v-1057h-155l-10 307h-13q-20 -154 -123 -247t-252 -93q-171 0 -275.5 106.5t-104.5 280.5v580h-390v-934h-163v934h-164v123h164v96q0 133 83 216t248 83h385l-2 -152h-379q-92 0 -134 -42.5t-42 -124.5v-76h557v-649q0 -130 77.5 -209.5t205.5 -79.5
q145 0 233.5 108t88.5 285z" />
    <glyph glyph-name="f_y" horiz-adv-x="1619" 
d="M1341 819l89 238h180l-439 -1071q-39 -94 -75.5 -156t-79.5 -107t-97.5 -68.5t-121.5 -32.5t-160 -5v154q59 -5 105 -0.5t79 13t61 33t51 60t50 92.5l16 35l-358 930h-283v-934h-163v934h-164v123h164v73q0 173 89 245.5t275 74.5q35 0 117 -4v-146q-108 5 -113 5
q-124 -1 -166.5 -41t-42.5 -134v-73h422l88 -244q204 -571 223 -627h9q47 126 133.5 345.5t111.5 287.5z" />
    <glyph glyph-name="g_g" horiz-adv-x="2191" 
d="M422 184l1352 -2q170 0 266 -81t96 -224q0 -146 -95.5 -225.5t-266.5 -79.5l-1346 -6q-176 0 -271.5 66.5t-95.5 181.5q0 55 22 97t61 66.5t81.5 38t93.5 19.5v10q-100 13 -155 68.5t-55 132.5q0 61 34 103.5t82 60t105 18.5v10q-89 46 -137 125t-48 180q0 306 408 357
q215 25 543 90v-158l-369 47l-2 -10q120 -33 185 -119.5t67 -206.5q3 -158 -108.5 -256t-305.5 -98q-106 0 -188 31q-113 -26 -113 -117q0 -51 39.5 -85t120.5 -34zM1608 1100q212 24 542 90v-158l-368 47l-2 -10q120 -33 185 -119.5t67 -206.5q3 -158 -108.5 -256
t-305.5 -98q-193 0 -305.5 98t-112.5 256q0 306 408 357zM563 946q-118 0 -184 -57t-66 -146q0 -94 66 -152.5t184 -58.5t184 58.5t66 152.5q0 89 -66 146t-184 57zM1868 743q0 89 -66 146t-184 57t-184 -57t-66 -146q0 -94 66 -152.5t184 -58.5t184 58.5t66 152.5z
M451 -291l1323 4q93 0 144.5 42.5t51.5 121.5q0 76 -52 120t-144 44h-1366q-100 -20 -145.5 -68t-45.5 -102q0 -162 234 -162z" />
    <glyph glyph-name="i_t" horiz-adv-x="1204" 
d="M229 1231q-46 0 -78 32t-32 78t32 78.5t78 32.5t78.5 -32.5t32.5 -78.5t-32.5 -78t-78.5 -32zM862 1057h291v-123h-291v-934h-164v934h-387v-934h-164v1057h551v276h158z" />
    <glyph glyph-name="m_m" horiz-adv-x="3325" 
d="M2843 1090q162 0 261 -107t99 -281v-702h-164v649q0 131 -72 210t-190 79q-136 0 -219.5 -108t-83.5 -285v-545h-164v649q0 131 -72 210t-190 79q-126 0 -207.5 -93t-93.5 -249v-596h-164v649q0 131 -72 210t-190 79q-136 0 -219.5 -108t-83.5 -285v-545h-164v649
q0 131 -72 210t-190 79q-126 0 -207.5 -93t-93.5 -249v-596h-166l-2 1055h156l12 -305h10q20 153 118 246.5t238 93.5q151 0 248 -92.5t111 -247.5h14q20 153 118 246.5t238 93.5q151 0 248 -92.5t111 -247.5h12q20 153 118.5 246.5t238.5 93.5q151 0 247.5 -92.5
t110.5 -247.5h14q20 153 118.5 246.5t238.5 93.5z" />
    <glyph glyph-name="t_f" horiz-adv-x="1302" 
d="M1139 1305q-124 -1 -166.5 -41t-42.5 -134v-73h321v-123h-317v-934h-164v934h-387v-934h-164v934h-188v123h188v276h158l6 -276h387v73q0 173 89.5 245.5t275.5 74.5q34 0 116 -4v-146q-108 5 -112 5z" />
    <glyph glyph-name="t_i" horiz-adv-x="1083" 
d="M852 1231q-46 0 -78.5 32t-32.5 78t32.5 78.5t78.5 32.5t78.5 -32.5t32.5 -78.5t-32.5 -78t-78.5 -32zM383 1057h551v-1057h-164v934h-387v-934h-164v934h-188v123h188v276h158z" />
    <glyph glyph-name="t_t" horiz-adv-x="1275" 
d="M1225 1057v-123h-291v-662q0 -83 35.5 -110t120.5 -27q56 0 135 6v-145q-85 -6 -152 -6q-89 0 -143 11t-92 41.5t-53 83t-15 136.5v672h-387v-934h-164v934h-188v123h188v276h158l6 -276h387v276h158l6 -276h291z" />
    <glyph glyph-name="t_w" horiz-adv-x="2269" 
d="M1950 680l137 377h174l-391 -1057h-160l-262 852h-8l-262 -852h-160l-346 934h-289v-934h-164v934h-188v123h188v276h158l6 -276h418l137 -377q18 -50 51 -140.5t59.5 -165t53.5 -157.5h8q33 111 83 275.5t58 189.5l115 375h156l114 -375q15 -48 62.5 -202t79.5 -263h8
q27 83 53.5 157.5t59.5 165t51 140.5z" />
    <glyph glyph-name="t_y" horiz-adv-x="1644" 
d="M1366 819l88 238h180l-438 -1071q-39 -94 -75.5 -156t-79.5 -107t-97.5 -68.5t-121.5 -32.5t-160 -5v154q59 -5 105 -0.5t79 13t61 33t51 60t50 92.5l16 35l-358 930h-283v-934h-164v934h-188v123h188v276h158l6 -276h418l88 -244q204 -571 223 -627h8
q47 126 133.5 345.5t112.5 287.5z" />
    <glyph glyph-name="u_f" horiz-adv-x="1976" 
d="M1812 1305q-124 -1 -166 -41t-42 -134v-73h321v-123h-317v-934h-164v934h-387v-934h-156l-10 307h-12q-20 -154 -123 -247t-252 -93q-171 0 -276 106.5t-105 280.5v703h164v-649q0 -131 77.5 -210t204.5 -79q145 0 233.5 108t88.5 285v545h553v73q0 173 89 245.5
t275 74.5q35 0 117 -4v-146q-107 5 -113 5z" />
    </font>
</defs>
</svg>
